<?xml version="1.0" encoding="UTF-8"?>
<svg version="1.1" xmlns="http://www.w3.org/2000/svg" width="1296" height="558">
<path d="M0 0 C1.21057493 -0.00266251 1.21057493 -0.00266251 2.44560592 -0.00537882 C5.16034665 -0.01012427 7.87503437 -0.00774447 10.58977759 -0.00541991 C12.55999296 -0.00737279 14.53020793 -0.00976162 16.5004223 -0.01254788 C21.94293821 -0.01895899 27.38543938 -0.01910862 32.82795834 -0.01827047 C38.73840367 -0.01843975 44.64884367 -0.02434342 50.55928636 -0.02951133 C60.92781218 -0.03775979 71.29633552 -0.04226285 81.66486418 -0.04423732 C92.79222996 -0.04636558 103.9195918 -0.05062495 115.0469557 -0.05748004 C115.7493919 -0.05791065 116.4518281 -0.05834127 117.17555024 -0.05878493 C120.03641494 -0.06054327 122.89727964 -0.06231292 125.75814433 -0.06409795 C160.44488531 -0.08569849 195.13162706 -0.09657685 229.81837323 -0.10557419 C241.06654568 -0.10850811 252.31471794 -0.11187799 263.56289017 -0.1155414 C264.35640661 -0.11579969 265.14992305 -0.11605798 265.96748544 -0.1163241 C269.17778345 -0.11737032 272.38808146 -0.11841875 275.59837947 -0.11946992 C330.51268564 -0.13743497 385.42699212 -0.15281388 440.34130082 -0.16022895 C444.65486717 -0.16081292 448.96843352 -0.16141019 453.28199986 -0.16200657 C454.137674 -0.16212469 454.99334814 -0.16224281 455.87495179 -0.16236451 C464.54412508 -0.16356189 473.21329836 -0.16477065 481.88247165 -0.16599704 C483.62066552 -0.16624227 485.35885939 -0.16648613 487.09705326 -0.16672861 C542.91771071 -0.17451781 598.73834713 -0.19689985 654.5589954 -0.22940504 C694.66650083 -0.25275236 734.77400208 -0.27430323 774.88151419 -0.28141135 C775.70644235 -0.28155837 776.5313705 -0.28170539 777.38129648 -0.28185687 C795.49113765 -0.28504179 813.60097878 -0.28709261 831.71082019 -0.28808442 C838.9976459 -0.28849915 846.28447159 -0.28905405 853.57129729 -0.28964633 C854.36879058 -0.289707 855.16628387 -0.28976766 855.98794362 -0.28983017 C881.67107226 -0.29184571 907.35417606 -0.30608082 933.03729604 -0.32659133 C958.90983908 -0.34717982 984.78235342 -0.35506246 1010.65490383 -0.34551357 C1014.2321057 -0.34419515 1017.8093076 -0.3430171 1021.38650954 -0.34192294 C1022.43833072 -0.34159317 1022.43833072 -0.34159317 1023.51140082 -0.34125673 C1034.60341142 -0.33814544 1045.69536705 -0.34845713 1056.78736491 -0.36439849 C1067.70097572 -0.37980395 1078.61452002 -0.38054956 1089.52813509 -0.36685025 C1095.36342911 -0.35993839 1101.19853439 -0.35933634 1107.03381173 -0.37641034 C1112.34735094 -0.39183106 1117.66054993 -0.38867497 1122.97407915 -0.37100006 C1124.87956652 -0.36786252 1126.78508002 -0.37135885 1128.69053745 -0.38249181 C1144.52327085 -0.4689361 1158.66042762 1.56900004 1172.87373793 9.12880117 C1173.71291762 9.56966054 1174.55209731 10.01051992 1175.41670668 10.46473867 C1182.0420854 14.18316827 1187.40514459 18.89114504 1192.87373793 24.12880117 C1193.83280043 24.99311757 1193.83280043 24.99311757 1194.81123793 25.87489492 C1207.49749121 37.68330478 1216.34682438 57.24350931 1217.0025391 74.52298564 C1217.00522195 76.4021223 1217.00522195 76.4021223 1217.00795901 78.31922132 C1217.01031124 79.02371429 1217.01266347 79.72820727 1217.01508698 80.45404851 C1217.02174365 82.81459164 1217.02131977 85.1750793 1217.02090895 87.535631 C1217.02420966 89.24532405 1217.02793567 90.95501632 1217.03205043 92.6647076 C1217.04205514 97.36331757 1217.04578477 102.06191476 1217.04843974 106.76053387 C1217.05234737 111.82827195 1217.06192544 116.89599995 1217.0706526 121.96373159 C1217.0904048 134.20316378 1217.10048199 146.44259678 1217.10938039 158.68204093 C1217.11376563 164.44894887 1217.11913186 170.21585589 1217.12436926 175.98276311 C1217.14138086 195.15903643 1217.15587414 214.33530917 1217.163118 233.51158887 C1217.16502783 238.4866948 1217.16694817 243.46180072 1217.16890395 248.43690664 C1217.16938769 249.6734124 1217.16987143 250.90991817 1217.17036983 252.18389381 C1217.17866678 272.20603092 1217.20399839 292.22810821 1217.23648462 312.25021921 C1217.26958144 332.81671331 1217.28756917 353.38317705 1217.29076225 373.94969791 C1217.29292499 385.49283898 1217.30163908 397.03589285 1217.32722342 408.57900792 C1217.34896629 418.41153146 1217.35696321 428.24394661 1217.34725664 438.07649146 C1217.34272226 443.08910965 1217.3445479 448.10150438 1217.36401808 453.11409169 C1217.38172442 457.71250061 1217.38059187 462.31052428 1217.36512079 466.90893771 C1217.362756 468.56314179 1217.36700896 470.21737308 1217.37894944 471.87153576 C1217.48085671 486.93507561 1215.04486519 500.64624319 1207.87373793 514.12880117 C1207.21244887 515.3875707 1207.21244887 515.3875707 1206.53780043 516.67176992 C1202.81937083 523.29714863 1198.11139406 528.66020782 1192.87373793 534.12880117 C1192.00942153 535.08786367 1192.00942153 535.08786367 1191.12764418 536.06630117 C1179.77079296 548.2674267 1162.19305568 555.87326423 1145.87373793 558.12880117 C1143.15595507 558.21988777 1140.46461498 558.26504083 1137.74747586 558.25760233 C1136.53690093 558.26026485 1136.53690093 558.26026485 1135.30186994 558.26298115 C1132.58712921 558.2677266 1129.87244149 558.26534681 1127.15769827 558.26302224 C1125.18748291 558.26497513 1123.21726793 558.26736395 1121.24705356 558.27015021 C1115.80453765 558.27656132 1110.36203649 558.27671095 1104.91951752 558.27587281 C1099.0090722 558.27604209 1093.09863219 558.28194576 1087.18818951 558.28711367 C1076.81966368 558.29536212 1066.45114034 558.29986519 1056.08261168 558.30183965 C1044.9552459 558.30396792 1033.82788406 558.30822728 1022.70052016 558.31508237 C1021.99808396 558.31551299 1021.29564777 558.3159436 1020.57192563 558.31638726 C1017.71106092 558.31814561 1014.85019622 558.31991525 1011.98933153 558.32170028 C977.30259056 558.34330082 942.6158488 558.35417919 907.92910264 558.36317652 C896.68093019 558.36611044 885.43275793 558.36948033 874.18458569 558.37314373 C873.39106925 558.37340202 872.59755281 558.37366031 871.77999042 558.37392643 C868.56969241 558.37497266 865.3593944 558.37602108 862.1490964 558.37707225 C807.23479022 558.3950373 752.32048374 558.41041622 697.40617505 558.41783129 C693.0926087 558.41841526 688.77904235 558.41901252 684.465476 558.4196089 C683.60980186 558.41972702 682.75412773 558.41984514 681.87252407 558.41996684 C673.20335078 558.42116423 664.5341775 558.42237299 655.86500422 558.42359937 C654.12681035 558.42384461 652.38861648 558.42408846 650.6504226 558.42433094 C594.82976515 558.43212014 539.00912873 558.45450218 483.18848046 558.48700737 C443.08097503 558.5103547 402.97347378 558.53190556 362.86596167 558.53901368 C362.04103351 558.5391607 361.21610536 558.53930773 360.36617938 558.5394592 C342.25633821 558.54264412 324.14649709 558.54469495 306.03665567 558.54568675 C298.74982997 558.54610149 291.46300427 558.54665638 284.17617857 558.54724866 C283.37868529 558.54730933 282.581192 558.54737 281.75953224 558.54743251 C256.0764036 558.54944804 230.3932998 558.56368316 204.71017982 558.58419366 C178.83763678 558.60478215 152.96512244 558.6126648 127.09257203 558.6031159 C123.51537017 558.60179749 119.93816827 558.60061943 116.36096632 558.59952527 C115.30914514 558.5991955 115.30914514 558.5991955 114.23607504 558.59885907 C103.14406444 558.59574777 92.05210881 558.60605946 80.96011095 558.62200082 C70.04650014 558.63740629 59.13295584 558.63815189 48.21934078 558.62445259 C42.38404675 558.61754072 36.54894148 558.61693867 30.71366413 558.63401268 C25.40012492 558.64943339 20.08692594 558.64627731 14.77339671 558.6286024 C12.86790934 558.62546485 10.96239584 558.62896119 9.05693842 558.64009414 C-6.77579499 558.72653843 -20.91295176 556.6886023 -35.12626207 549.12880117 C-35.96544176 548.68794179 -36.80462144 548.24708242 -37.66923082 547.79286367 C-44.29460954 544.07443406 -49.65766872 539.36645729 -55.12626207 534.12880117 C-55.76563707 533.55259023 -56.40501207 532.97637929 -57.06376207 532.38270742 C-69.75001535 520.57429755 -78.59934852 501.01409303 -79.25506324 483.7346167 C-79.25685181 482.48185892 -79.25864038 481.22910115 -79.26048315 479.93838102 C-79.26283538 479.23388804 -79.26518761 478.52939507 -79.26761112 477.80355382 C-79.27426778 475.44301069 -79.2738439 473.08252303 -79.27343309 470.72197133 C-79.2767338 469.01227829 -79.28045981 467.30258602 -79.28457457 465.59289473 C-79.29457927 460.89428477 -79.2983089 456.19568757 -79.30096388 451.49706846 C-79.30487151 446.42933039 -79.31444958 441.36160238 -79.32317674 436.29387075 C-79.34292894 424.05443855 -79.35300612 411.81500555 -79.36190453 399.5755614 C-79.36628977 393.80865346 -79.371656 388.04174644 -79.3768934 382.27483922 C-79.393905 363.09856591 -79.40839827 343.92229316 -79.41564214 324.74601346 C-79.41755197 319.77090753 -79.41947231 314.79580161 -79.42142808 309.8206957 C-79.42191182 308.58418993 -79.42239556 307.34768416 -79.42289396 306.07370852 C-79.43119092 286.05157142 -79.45652253 266.02949412 -79.48900876 246.00738312 C-79.52210558 225.44088902 -79.54009331 204.87442529 -79.54328638 184.30790442 C-79.54544912 172.76476335 -79.55416322 161.22170948 -79.57974756 149.67859441 C-79.60149043 139.84607087 -79.60948735 130.01365572 -79.59978078 120.18111087 C-79.5952464 115.16849268 -79.59707204 110.15609796 -79.61654222 105.14351064 C-79.63424856 100.54510173 -79.633116 95.94707806 -79.61764493 91.34866463 C-79.61528014 89.69446054 -79.61953309 88.04022925 -79.63147358 86.38606657 C-79.73338085 71.32252672 -77.29738933 57.61135915 -70.12626207 44.12880117 C-69.46497301 42.87003164 -69.46497301 42.87003164 -68.79032457 41.58583242 C-65.07189496 34.9604537 -60.36391819 29.59739451 -55.12626207 24.12880117 C-54.55005113 23.48942617 -53.97384019 22.85005117 -53.38016832 22.19130117 C-40.13599614 7.96255024 -19.16748068 -0.05247327 0 0 Z M-46.06376207 46.69130117 C-56.48669869 61.0607866 -58.73988812 77.02739894 -58.63419664 94.28260976 C-58.63881772 95.95144042 -58.64517867 97.62026698 -58.65310562 99.28908521 C-58.66965642 103.82839487 -58.66161822 108.36736403 -58.64916074 112.90667421 C-58.6400536 117.82019606 -58.65410788 122.73366222 -58.66508043 127.64717275 C-58.68281014 137.25438641 -58.67905047 146.86147463 -58.66742986 156.46869308 C-58.65837391 164.28092296 -58.65718088 172.09311783 -58.66152513 179.90535146 C-58.66213806 181.01981 -58.66275099 182.13426853 -58.6633825 183.28249854 C-58.66466148 185.5469303 -58.66595834 187.81136206 -58.66727287 190.0757938 C-58.67866241 211.27903916 -58.66559049 232.4822152 -58.6440714 253.68544918 C-58.62620192 271.85475225 -58.62930648 290.02395307 -58.64774644 308.19325429 C-58.6691819 329.32378554 -58.67756393 350.45425612 -58.66529739 371.58479673 C-58.66402327 373.84061477 -58.66276579 376.09643282 -58.66152513 378.35225087 C-58.66090803 379.46198022 -58.66029093 380.57170958 -58.65965512 381.71506709 C-58.65621025 389.51239682 -58.66201193 397.30968788 -58.67144334 405.10701162 C-58.68269446 414.61725204 -58.67955802 424.12736051 -58.65832037 433.63758594 C-58.64785176 438.48419083 -58.64361618 443.33057619 -58.65691698 448.17717916 C-58.66893411 452.62348023 -58.66212668 457.0693606 -58.64100677 461.51562411 C-58.63657984 463.11433905 -58.63871763 464.71309038 -58.64850992 466.31178147 C-58.76069067 486.16700262 -54.17792053 503.95958607 -39.92313707 518.43348867 C-23.32456101 534.42932313 -4.6068792 537.75303562 17.63284743 537.63216573 C19.59425653 537.63634622 21.55566252 537.64227709 23.51706171 537.64978319 C28.88858914 537.6652971 34.2598273 537.65607269 39.63134979 537.64267138 C45.48213769 537.63249769 51.33288225 537.64557488 57.18366396 537.65564471 C67.43193865 537.67007716 77.68013611 537.66979743 87.92841399 537.65945607 C98.9193632 537.64843301 109.91026299 537.64614414 120.9012152 537.65440542 C121.94432094 537.65518045 121.94432094 537.65518045 123.00849952 537.65597114 C125.84098767 537.65810434 128.67347576 537.66029919 131.5059638 537.66257225 C157.86069149 537.68370684 184.21538606 537.68517446 210.57011855 537.67398244 C211.35035606 537.67365126 212.13059357 537.67332008 212.93447464 537.67297886 C213.71596643 537.67264714 214.49745823 537.67231542 215.30263159 537.67197365 C239.12196148 537.66187647 262.94127769 537.65927742 286.76060927 537.66406423 C288.3563529 537.66437415 289.95209653 537.66468277 291.54784016 537.66499011 C297.96065311 537.666232 304.37346605 537.66750667 310.78627898 537.66882916 C328.71216544 537.67249699 346.63805195 537.67477954 364.56393874 537.67597371 C365.38020573 537.6760283 366.19647273 537.67608288 367.03747509 537.67613912 C393.04291094 537.67777595 419.04834203 537.67327008 445.05377638 537.6645754 C445.89709987 537.6642944 446.74042336 537.66401341 447.6093021 537.66372389 C461.30387901 537.65914423 474.99845581 537.65426632 488.6930326 537.6493632 C543.00555956 537.62993822 597.31804708 537.63083982 651.63057387 537.65028554 C665.31828236 537.6551704 679.00599087 537.66001464 692.69369948 537.6645754 C693.5365292 537.66485719 694.37935892 537.66513898 695.24772894 537.66542932 C721.2263323 537.67405549 747.20493238 537.67771088 773.18353713 537.67597371 C773.99920288 537.67591938 774.81486864 537.67586504 775.65525155 537.67580906 C793.56130341 537.67455908 811.46735493 537.6720244 829.37340646 537.6683317 C835.78044772 537.66701517 842.18748901 537.66576284 848.59453029 537.66452886 C850.18839991 537.6642193 851.78226954 537.66390438 853.37613916 537.66358407 C877.18843229 537.65881185 901.00071001 537.6628713 924.81300122 537.67297886 C925.59323873 537.67331004 926.37347624 537.67364122 927.17735732 537.67398244 C927.95615219 537.67431317 928.73494706 537.6746439 929.53734177 537.67498465 C955.81685251 537.68602268 982.09632355 537.68194867 1008.37582862 537.66085947 C1011.19930593 537.6586501 1014.02278328 537.65650328 1016.84626067 537.65440542 C1017.53917858 537.65388459 1018.2320965 537.65336376 1018.94601193 537.65282715 C1029.90609121 537.64494576 1040.86612103 537.65042182 1051.82619584 537.66148144 C1062.61001039 537.67207748 1073.39373805 537.6679852 1084.17754215 537.64942509 C1089.94311151 537.63990607 1095.70849392 537.63666463 1101.47405744 537.65104902 C1106.72421917 537.66401395 1111.9740289 537.65841818 1117.22416522 537.63832638 C1119.10668033 537.63431404 1120.9892249 537.63691904 1122.87171648 537.64715013 C1143.59407173 537.75173741 1161.95372062 533.91989552 1177.17842543 518.92567617 C1192.31783259 503.21579859 1196.5115467 485.17827922 1196.3816725 463.97499257 C1196.38629359 462.30616192 1196.39265453 460.63733535 1196.40058148 458.96851712 C1196.41713228 454.42920746 1196.40909408 449.8902383 1196.39663661 445.35092813 C1196.38752946 440.43740628 1196.40158374 435.52394011 1196.41255629 430.61042958 C1196.430286 421.00321593 1196.42652634 411.3961277 1196.41490573 401.78890926 C1196.40584977 393.97667938 1196.40465674 386.1644845 1196.40900099 378.35225087 C1196.40961392 377.23779234 1196.41022686 376.1233338 1196.41085836 374.9751038 C1196.41213734 372.71067203 1196.4134342 370.44624028 1196.41474873 368.18180853 C1196.42613828 346.97856317 1196.41306635 325.77538714 1196.39154726 304.57215315 C1196.37367778 286.40285008 1196.37678234 268.23364926 1196.39522231 250.06434804 C1196.41665776 228.93381679 1196.42503979 207.80334621 1196.41277325 186.67280561 C1196.41149914 184.41698757 1196.41024165 182.16116952 1196.40900099 179.90535146 C1196.40838389 178.79562211 1196.40776679 177.68589276 1196.40713099 176.54253525 C1196.40368611 168.74520551 1196.40948779 160.94791446 1196.41891921 153.15059072 C1196.43017032 143.64035029 1196.42703388 134.13024182 1196.40579623 124.6200164 C1196.39532762 119.7734115 1196.39109204 114.92702614 1196.40439284 110.08042318 C1196.41640997 105.6341221 1196.40960254 101.18824174 1196.38848263 96.74197823 C1196.3840557 95.14326328 1196.38619349 93.54451195 1196.39598578 91.94582087 C1196.50816653 72.09059972 1191.92539639 54.29801627 1177.67061293 39.82411367 C1161.07203688 23.8282792 1142.35435506 20.50456671 1120.11462843 20.6254366 C1118.15321934 20.62125612 1116.19181334 20.61532524 1114.23041415 20.60781914 C1108.85888673 20.59230524 1103.48764856 20.60152965 1098.11612608 20.61493095 C1092.26533818 20.62510464 1086.41459361 20.61202746 1080.5638119 20.60195762 C1070.31553721 20.58752517 1060.06733975 20.5878049 1049.81906188 20.59814626 C1038.82811266 20.60916932 1027.83721287 20.6114582 1016.84626067 20.60319692 C1015.80315493 20.60242188 1015.80315493 20.60242188 1014.73897634 20.60163119 C1011.90648819 20.599498 1009.0740001 20.59730315 1006.24151206 20.59503009 C979.88678438 20.57389549 953.5320898 20.57242788 927.17735732 20.58361989 C926.3971198 20.58395107 925.61688229 20.58428226 924.81300122 20.58462347 C924.03150943 20.58495519 923.25001764 20.58528691 922.44484428 20.58562868 C898.62551439 20.59572586 874.80619818 20.59832492 850.98686659 20.59353811 C849.39112296 20.59322819 847.79537934 20.59291956 846.19963571 20.59261223 C839.78682276 20.59137033 833.37400981 20.59009566 826.96119688 20.58877317 C809.03531042 20.58510534 791.10942392 20.58282279 773.18353713 20.58162862 C772.36727013 20.58157404 771.55100313 20.58151945 770.71000077 20.58146322 C744.70456492 20.57982638 718.69913383 20.58433225 692.69369948 20.59302694 C691.85037599 20.59330793 691.00705251 20.59358893 690.13817376 20.59387844 C676.44359686 20.5984581 662.74902005 20.60333601 649.05444326 20.60823913 C594.7419163 20.62766412 540.42942878 20.62676251 486.11690199 20.60731679 C472.4291935 20.60243193 458.74148499 20.59758769 445.05377638 20.59302694 C443.7895318 20.59260425 443.7895318 20.59260425 442.49974692 20.59217302 C416.52114356 20.58354685 390.54254349 20.57989145 364.56393874 20.58162862 C363.3404401 20.58171013 363.3404401 20.58171013 362.09222432 20.58179328 C344.18617245 20.58304325 326.28012093 20.58557793 308.37406941 20.58927063 C301.96702814 20.59058717 295.55998686 20.5918395 289.15294557 20.59307348 C287.55907595 20.59338303 285.96520633 20.59369795 284.37133671 20.59401826 C260.55904357 20.59879048 236.74676585 20.59473103 212.93447464 20.58462347 C212.15423713 20.58429229 211.37399962 20.58396111 210.57011855 20.58361989 C209.79132368 20.58328916 209.01252881 20.58295843 208.21013409 20.58261768 C181.93062336 20.57157965 155.65115231 20.57565367 129.37164724 20.59674287 C126.54816993 20.59895223 123.72469259 20.60109905 120.9012152 20.60319692 C120.20829728 20.60371775 119.51537936 20.60423857 118.80146393 20.60477518 C107.84138465 20.61265658 96.88135483 20.60718052 85.92128002 20.5961209 C75.13746548 20.58552485 64.35373781 20.58961713 53.56993372 20.60817725 C47.80436435 20.61769627 42.03898194 20.6209377 36.27341843 20.60655332 C31.02325669 20.59358838 25.77344696 20.59918416 20.52331065 20.61927596 C18.64079554 20.62328829 16.75825096 20.62068329 14.87575938 20.6104522 C-9.98567535 20.48497467 -29.95042282 27.02047144 -46.06376207 46.69130117 Z " fill="#FFFFFF" transform="translate(79.12626206874847,-0.128801167011261)"/>
<path d="M0 0 C0 68.64 0 137.28 0 208 C-42.64247737 208 -74.58247996 206.14530008 -105.6875 175.8125 C-112.32533673 169.14124013 -117.43000705 162.20183695 -122 154 C-122.95132812 152.33904297 -122.95132812 152.33904297 -123.921875 150.64453125 C-136.22127574 127.80654142 -138.88057016 99.84494365 -131.60302734 74.97851562 C-131.40402832 74.32560547 -131.2050293 73.67269531 -131 73 C-130.80744629 72.35998047 -130.61489258 71.71996094 -130.41650391 71.06054688 C-122.01263461 43.90418395 -102.96554179 23.12004915 -78.30078125 9.71484375 C-53.04229126 -3.40761436 -29.44026216 0 0 0 Z " fill="#FFFFFF" transform="translate(410,82)"/>
<path d="M0 0 C58.03158427 0 58.03158427 0 75.875 8.8125 C76.57568604 9.151604 77.27637207 9.49070801 77.99829102 9.84008789 C88.28249997 14.96740771 96.66934185 22.17205398 105 30 C105.60328125 30.52722656 106.2065625 31.05445312 106.828125 31.59765625 C118.11694804 41.91057636 125.36160564 56.84817416 130.25 71.0625 C130.5087793 71.80669189 130.76755859 72.55088379 131.03417969 73.31762695 C139.10416248 97.78346598 135.1831901 128.28487166 124 151 C121.88084027 154.84449332 119.56352822 158.43889971 117 162 C116.23816406 163.09441406 116.23816406 163.09441406 115.4609375 164.2109375 C107.79755279 174.66787132 98.0815273 184.25391002 87 191 C86.28714844 191.43441406 85.57429688 191.86882812 84.83984375 192.31640625 C57.16947729 208.3360921 31.6133859 208 0 208 C0 139.36 0 70.72 0 0 Z " fill="#FFFFFF" transform="translate(115,82)"/>
<path d="M0 0 C105.51513158 0 105.51513158 0 123.875 10.3125 C124.57004639 10.69365967 125.26509277 11.07481934 125.98120117 11.4675293 C151.75889155 25.94573606 169.15350491 49.03365824 177.30859375 77.265625 C178.63448215 82.50925144 179.18236404 87.42664279 179.23828125 92.8359375 C179.246353 93.59234528 179.25442474 94.34875305 179.26274109 95.12808228 C179.27653829 96.73005924 179.28727986 98.33206506 179.29516602 99.93408203 C179.3065955 101.54354711 179.32690109 103.15297706 179.35668945 104.76220703 C179.64698854 120.48376787 176.76378656 133.6577411 170 148 C169.50886719 149.04800781 169.01773438 150.09601563 168.51171875 151.17578125 C164.13884679 159.89021582 158.57396921 166.89505635 152 174 C151.14921875 174.92167969 150.2984375 175.84335937 149.421875 176.79296875 C133.30648897 193.54182121 110.94924434 204.13134446 88 207 C58.96 207 29.92 207 0 207 C0 138.69 0 70.38 0 0 Z M33 32 C33 78.86 33 125.72 33 174 C85.34915223 176.3197757 85.34915223 176.3197757 127.3984375 152.78125 C140.73305029 138.52562792 147.74750025 120.16375849 147.1796875 100.57421875 C145.66124326 78.82085455 136.40143434 61.41492521 120 47 C95.63918453 26.48132657 63.07591767 32 33 32 Z " fill="#FFFFFF" transform="translate(471,82)"/>
<path d="M0 0 C10.56 0 21.12 0 32 0 C32.33 24.42 32.66 48.84 33 74 C38.28 71.36 43.56 68.72 49 66 C67.2030459 60.05614828 87.51812343 61.35368054 104.76391602 69.58398438 C113.05748051 73.80287084 119.53407495 79.37732525 126 86 C126.66515625 86.64453125 127.3303125 87.2890625 128.015625 87.953125 C140.90396989 101.30591475 145.70316642 119.88059171 145.46875 137.97460938 C144.72771175 156.85564654 137.30175502 172.67457638 124 186 C123.39929688 186.69480469 122.79859375 187.38960937 122.1796875 188.10546875 C110.35923875 201.33311378 90.22760793 207.16015188 73.0625 208.25 C57.95537757 207.96834179 45.29986428 202.64993214 32 196 C32 199.96 32 203.92 32 208 C21.44 208 10.88 208 0 208 C0 139.36 0 70.72 0 0 Z M40.5625 107.15625 C33.65537582 115.30665653 29.76046743 125.25097587 30 136 C31.85003859 150.50298111 37.77055007 161.54862252 49.1875 170.8125 C58.2572603 176.72220807 69.43148146 178.31379823 80 177 C92.96471835 173.98462606 102.34075894 167.58605923 109.59765625 156.453125 C115.39049144 146.31969743 116.34037351 135.28270937 113.875 124 C110.68625608 112.3923761 103.95880655 103.64670887 93.5625 97.6875 C74.93285515 88.23402663 54.76605294 92.16361078 40.5625 107.15625 Z " fill="#FFFFFF" transform="translate(887,82)"/>
<path d="M0 0 C11.55 0 23.1 0 35 0 C38.61136399 7.22272798 42.08013745 14.25076781 45.125 21.6875 C48.59980728 30.09541721 52.22144285 38.40595254 56.125 46.625 C59.7013096 54.2169202 63.03907415 61.90923337 66.35986328 69.61572266 C69.16267673 76.11341078 72.04953005 82.56800674 75 89 C77.02734737 86.97265263 77.66886772 85.72814315 78.7421875 83.125 C79.07992188 82.31804687 79.41765625 81.51109375 79.765625 80.6796875 C80.13171875 79.79539062 80.4978125 78.91109375 80.875 78 C84.41483859 69.58409237 88.14120749 61.27427737 92 53 C96.55028757 43.22816551 100.89320357 33.38969331 105.09765625 23.46484375 C106.96567479 19.05816495 108.91541766 14.69343304 110.9296875 10.3515625 C112.33868297 7.25588632 113.66753895 4.12937995 115 1 C119.03821705 0.83166143 123.07666417 0.67118279 127.11547852 0.51782227 C128.48795874 0.46461784 129.86035905 0.40930691 131.23266602 0.35180664 C133.2108742 0.26929161 135.18942414 0.19510415 137.16796875 0.12109375 C138.35672607 0.0739624 139.5454834 0.02683105 140.77026367 -0.02172852 C143.68371968 -0.00212782 146.17975522 0.30947016 149 1 C148.67304142 9.3153521 145.80460075 15.70866667 142.3125 23.1875 C141.75686136 24.40139753 141.20258759 25.6159207 140.6496582 26.83105469 C139.57528811 29.18843835 138.49722567 31.54414359 137.41503906 33.89794922 C135.77577715 37.49154167 134.21757708 41.10875099 132.6875 44.75 C130.48760951 49.93224931 128.13973337 55.03532021 125.74047852 60.12719727 C123.11945201 65.70392531 120.61040803 71.32684998 118.11938477 76.96264648 C115.99865204 81.75899899 113.85376369 86.54351692 111.69042969 91.32080078 C107.80146773 99.91187129 104.01338477 108.53850078 100.35766602 117.23168945 C97.97056681 122.8688941 95.42425106 128.42332459 92.82246399 133.96383667 C90.54686426 138.81358408 88.31234727 143.6807518 86.09765625 148.55859375 C85.76717285 149.28536819 85.43668945 150.01214264 85.09619141 150.76094055 C83.74729778 153.72758794 82.39886528 156.69443184 81.05493164 159.66333008 C77.39149516 167.75204847 73.6723615 175.81047471 69.7578125 183.78125 C69.4425209 184.43415512 69.12722931 185.08706024 68.80238342 185.75975037 C65.84011686 191.71466447 62.26223693 195.98126507 57 200 C56.12472656 200.6909375 55.24945312 201.381875 54.34765625 202.09375 C44.36603796 208.70444069 32.57297314 208.8328238 21 207 C15.29051589 205.42533928 10.13147626 202.91950463 5 200 C5.4817927 193.25490223 8.0238943 187.72881505 10.8125 181.625 C11.25142578 180.61566406 11.69035156 179.60632813 12.14257812 178.56640625 C12.57634766 177.60863281 13.01011719 176.65085937 13.45703125 175.6640625 C13.84866455 174.79217285 14.24029785 173.9202832 14.64379883 173.02197266 C16 171 16 171 17.97143555 170.14599609 C20 170 20 170 23 171 C24.95475009 171.1447963 26.9151138 171.22067502 28.875 171.25 C29.90367188 171.27578125 30.93234375 171.3015625 31.9921875 171.328125 C35.57000913 170.93781719 37.21134371 170.27994619 40 168 C41.4644889 165.63518659 42.65648211 163.44336457 43.8125 160.9375 C44.14435303 160.24084229 44.47620605 159.54418457 44.81811523 158.82641602 C45.52328166 157.33556358 46.22107485 155.84120516 46.91210938 154.34375 C48.02533495 151.94541842 49.17501367 149.56687496 50.328125 147.1875 C51.07486332 145.60508382 51.81970342 144.02177028 52.5625 142.4375 C52.92126221 141.70072021 53.28002441 140.96394043 53.6496582 140.20483398 C55.85448378 135.37246758 56.45161002 132.29172576 55 127 C53.73530891 123.71555039 52.26252728 120.55177321 50.75 117.375 C49.83490532 115.40803195 48.92089844 113.44055757 48.0078125 111.47265625 C47.51958008 110.42609863 47.03134766 109.37954102 46.52832031 108.30126953 C43.84062778 102.49568192 41.23573565 96.65298367 38.625 90.8125 C38.07153034 89.57629948 37.51798178 88.34013428 36.96435547 87.10400391 C28.8975358 69.08691559 20.87439213 51.0504716 12.95727539 32.96704102 C10.78038331 28.00411004 8.57788617 23.05605305 6.3125 18.1328125 C5.89057373 17.21234131 5.46864746 16.29187012 5.03393555 15.34350586 C4.24249848 13.62252968 3.44486245 11.90438533 2.63989258 10.18969727 C2.11625122 9.0497229 2.11625122 9.0497229 1.58203125 7.88671875 C1.12147339 6.89998169 1.12147339 6.89998169 0.65161133 5.89331055 C0 4 0 4 0 0 Z " fill="#FFFFFF" transform="translate(1030,144)"/>
<path d="M0 0 C16.25954301 13.50126753 27.07723738 30.36858635 29.19677734 51.60595703 C30.41959065 71.89263027 25.41233055 90.36794439 11.82177734 105.85595703 C-2.5379131 120.99053803 -18.36809576 130.5483454 -39.54345703 131.1472168 C-49.92076026 131.21115627 -59.26675938 130.99496816 -68.80322266 126.60595703 C-69.42310059 126.34282715 -70.04297852 126.07969727 -70.68164062 125.80859375 C-89.04465591 117.98050014 -103.04431995 104.25745196 -110.80322266 85.60595703 C-114.2454768 76.44998646 -115.51681044 68.11559555 -115.42822266 58.35595703 C-115.41984375 57.0876001 -115.41146484 55.81924316 -115.40283203 54.51245117 C-114.91967909 34.38322018 -106.2859079 18.56158253 -91.80322266 4.60595703 C-66.41952399 -17.39087173 -27.26387225 -21.07726923 0 0 Z M-73.43212891 28.16064453 C-81.35454237 37.37518145 -85.37380224 47.40210574 -85.80322266 59.60595703 C-84.29576272 73.05824235 -79.64769922 82.37965796 -69.80322266 91.60595703 C-59.94591775 99.08121051 -49.09173741 102.03230249 -36.80322266 100.60595703 C-23.54161757 97.67101164 -13.74051993 91.66726415 -6.20556641 80.12548828 C-0.531817 69.93170452 0.45704523 58.45588987 -2.06103516 47.17626953 C-5.22215622 36.22880817 -12.25426802 27.19814059 -21.86572266 21.10595703 C-38.3876131 12.17656891 -59.95925615 15.06813519 -73.43212891 28.16064453 Z " fill="#FFFFFF" transform="translate(780.80322265625,158.39404296875)"/>
<path d="M0 0 C10.89 0 21.78 0 33 0 C33 68.64 33 137.28 33 208 C22.11 208 11.22 208 0 208 C0 139.36 0 70.72 0 0 Z " fill="#FFFFFF" transform="translate(829,82)"/>
<path d="M0 0 C15.73991031 -1.49903908 15.73991031 -1.49903908 20.296875 1.5234375 C22.14437547 4.23754901 23.53086192 7.06172384 25 10 C26.97623684 13.16812496 29.0594845 16.26459076 31.125 19.375 C32.26553408 21.13118285 33.40351561 22.88902582 34.5390625 24.6484375 C37.85075953 29.77124789 41.17405956 34.88642966 44.5 40 C45.56773052 41.64321475 46.63543873 43.286444 47.703125 44.9296875 C50.02315296 48.49928419 52.34666374 52.06659017 54.671875 55.6328125 C55.27064453 56.55191406 55.86941406 57.47101563 56.48632812 58.41796875 C57.64041749 60.18936174 58.79533281 61.96021695 59.95117188 63.73046875 C60.46744141 64.52324219 60.98371094 65.31601562 61.515625 66.1328125 C62.20060059 67.18299561 62.20060059 67.18299561 62.89941406 68.25439453 C64 70 64 70 65 72 C65.33 48.24 65.66 24.48 66 0 C70.62 0 75.24 0 80 0 C80 31.35 80 62.7 80 95 C74.06 95 68.12 95 62 95 C58.50744269 91.06394335 57.12051323 88.62282204 55 84 C53.37567779 81.29821309 51.62231178 78.68590635 49.875 76.0625 C48.9160805 74.58716308 47.95909809 73.11056558 47.00390625 71.6328125 C46.51164551 70.87387695 46.01938477 70.11494141 45.51220703 69.33300781 C43.99447984 66.9914836 42.47953701 64.64817518 40.96484375 62.3046875 C32.42580221 49.12049201 23.71555788 36.07333682 15 23 C14.67 46.76 14.34 70.52 14 95 C9.38 95 4.76 95 0 95 C-1.03785851 84.78477199 -1.14668847 74.68739567 -1.1328125 64.43359375 C-1.13348746 62.66431159 -1.13445909 60.89502952 -1.13571167 59.12574768 C-1.13717612 55.44376734 -1.13507236 51.76181146 -1.13037109 48.07983398 C-1.12463658 43.35879064 -1.12798406 38.63780369 -1.13394356 33.91676235 C-1.13755094 30.27514721 -1.13641042 26.63354554 -1.13381577 22.99193001 C-1.13314894 21.24998022 -1.13396639 19.50802921 -1.13629532 17.76608086 C-1.13882882 15.34198612 -1.13497308 12.91798427 -1.12939453 10.49389648 C-1.13141876 9.77547577 -1.13344299 9.05705505 -1.13552856 8.31686401 C-1.12248283 5.26381244 -0.97379406 2.92138218 0 0 Z " fill="#FFFFFF" transform="translate(836,382)"/>
<path d="M0 0 C9.06053273 8.28744974 14.82249205 20.42061347 15.66015625 32.61328125 C16.29495826 47.8337666 12.12741787 59.32900292 1.9765625 70.78125 C1.1309375 71.52375 0.2853125 72.26625 -0.5859375 73.03125 C-1.12347656 73.51078125 -1.66101563 73.9903125 -2.21484375 74.484375 C-13.83365911 84.0899092 -26.47517336 85.33621605 -41.01708984 84.31347656 C-51.61394947 83.14925211 -59.96842305 78.33842127 -67.5859375 71.03125 C-68.15828125 70.48726563 -68.730625 69.94328125 -69.3203125 69.3828125 C-78.15524635 60.04692879 -80.76643427 49.1702012 -80.8359375 36.78125 C-80.8565625 35.87761719 -80.8771875 34.97398437 -80.8984375 34.04296875 C-80.96665651 22.18991508 -76.32845292 11.74417062 -68.62109375 2.734375 C-49.57136194 -15.57039523 -20.51381771 -15.61777058 0 0 Z M-58.5859375 13.03125 C-65.39214543 23.50005784 -67.24000323 33.67486213 -65.5859375 46.03125 C-63.26127986 54.69423197 -58.12751202 62.16064979 -50.5859375 67.03125 C-49.9671875 67.46050781 -49.3484375 67.88976562 -48.7109375 68.33203125 C-40.72786706 72.86928418 -29.14786877 72.54941237 -20.48046875 70.18359375 C-11.71524864 66.17469463 -4.94933215 59.04160725 -1.5859375 50.03125 C2.2450927 39.35280376 0.76067956 29.31470987 -3.5859375 19.03125 C-7.12075037 12.22346224 -13.50421637 5.90576448 -20.7109375 3.03125 C-34.65488998 -0.7050455 -49.03482002 1.86441886 -58.5859375 13.03125 Z " fill="#FFFFFF" transform="translate(784.5859375,392.96875)"/>
<path d="M0 0 C5.28 0 10.56 0 16 0 C20.6968341 10.90877598 24.80093024 22.02498835 28.93945312 33.15478516 C29.85444955 35.60952005 30.77584278 38.06160561 31.703125 40.51171875 C34.5779485 48.11150882 37.35222799 55.73659696 39.99682617 63.41967773 C41.14912851 66.73717729 42.38887127 69.8821834 44 73 C50.18147217 56.82084133 56.28392611 40.61724433 62.20629883 24.34130859 C70.54658927 1.45341073 70.54658927 1.45341073 72 0 C74.53049402 -0.07313567 77.03304837 -0.09247527 79.5625 -0.0625 C80.62887695 -0.05573242 80.62887695 -0.05573242 81.71679688 -0.04882812 C83.47790013 -0.03700864 85.23896036 -0.01907263 87 0 C86.3060557 4.17943729 85.00543306 7.91905645 83.5 11.875 C83.23791748 12.5649707 82.97583496 13.25494141 82.70581055 13.96582031 C78.87669104 24.00530333 74.93222821 34.00060257 71 44 C70.09757452 46.29684289 69.19523305 48.59371879 68.29296875 50.890625 C66.89933025 54.43824614 65.50557312 57.9858203 64.11132812 61.53320312 C59.72904058 72.68417242 55.36227629 83.84118955 51 95 C46.38 95 41.76 95 37 95 C32.82044585 87.21175764 29.78677011 78.98557823 26.625 70.75 C26.01221048 69.16252057 25.3990032 67.57520235 24.78540039 65.98803711 C23.50557604 62.67671597 22.22756621 59.36470263 20.95068359 56.05224609 C19.02435348 51.05864188 17.08634359 46.06963266 15.14453125 41.08203125 C14.83187317 40.27895538 14.51921509 39.47587952 14.19708252 38.64846802 C13.57804058 37.05871358 12.95894157 35.46898137 12.33978271 33.87927246 C10.39037877 28.87382872 8.44194098 23.86801821 6.49951172 18.85986328 C5.50195745 16.28812583 4.49770924 13.71914611 3.48876953 11.15185547 C3.02970215 9.9763916 2.57063477 8.80092773 2.09765625 7.58984375 C1.69168213 6.55593506 1.28570801 5.52202637 0.86743164 4.45678711 C0 2 0 2 0 0 Z " fill="#FFFFFF" transform="translate(379,382)"/>
<path d="M0 0 C10.61810447 -0.4895956 20.46940568 2.33993847 28.6484375 9.1875 C28.37738215 13.79544092 26.36430273 15.96734246 23.31640625 19.1484375 C21.6484375 20.1875 21.6484375 20.1875 19.61328125 19.97265625 C17.6484375 19.1875 17.6484375 19.1875 15.0234375 17.25 C9.50948112 13.88035999 3.65498086 12.43736108 -2.7265625 13.9375 C-4.5209375 14.55625 -4.5209375 14.55625 -6.3515625 15.1875 C-7.1146875 15.435 -7.8778125 15.6825 -8.6640625 15.9375 C-11.32743919 17.91037162 -12.17604844 20.13116345 -13.3515625 23.1875 C-13.92943502 27.90679224 -13.15229093 30.38608847 -10.3515625 34.1875 C-7.62331043 35.94162265 -7.62331043 35.94162265 -4.4140625 37.25 C-2.67382812 38.01183594 -2.67382812 38.01183594 -0.8984375 38.7890625 C2.32103848 40.05841536 5.52609016 41.12175612 8.8359375 42.125 C17.46257959 44.89784924 24.25948374 49.34416798 28.80859375 57.29296875 C31.51252377 63.39253182 31.89127344 70.66778861 29.671875 76.953125 C28.44868809 79.45953253 27.12178494 81.82069406 25.6484375 84.1875 C25.0915625 85.115625 24.5346875 86.04375 23.9609375 87 C15.50335652 95.00041444 5.44224561 95.63620258 -5.53515625 95.4609375 C-15.339351 95.07764984 -24.16965067 90.9020423 -31.3515625 84.1875 C-31.3515625 81.1875 -31.3515625 81.1875 -29.890625 79.58203125 C-29.25898437 79.05996094 -28.62734375 78.53789062 -27.9765625 78 C-27.35007812 77.47019531 -26.72359375 76.94039063 -26.078125 76.39453125 C-24.3515625 75.1875 -24.3515625 75.1875 -22.3515625 75.1875 C-22.3515625 74.5275 -22.3515625 73.8675 -22.3515625 73.1875 C-19.56746881 74.36538579 -17.9159923 75.59268158 -15.6640625 77.6875 C-11.04185494 81.6443898 -5.59936679 81.99372377 0.2734375 82.5 C5.49025498 82.01696134 9.20540665 80.55458186 13.0234375 76.9375 C15.0427038 73.52028011 15.57879798 71.1569527 15.6484375 67.1875 C13.94615635 62.08065656 11.25916327 59.67417696 6.6484375 57.1875 C2.34394791 55.38903341 -2.06811481 53.88494714 -6.4765625 52.36328125 C-13.89123452 49.68160592 -21.23510169 46.18939197 -25.2890625 39.0625 C-25.66933594 38.42054688 -26.04960938 37.77859375 -26.44140625 37.1171875 C-29.21353529 31.23979803 -28.75025271 24.97833146 -27.8515625 18.6875 C-24.41793167 10.67569474 -18.53947582 5.53356643 -10.65234375 2.05078125 C-7.03197409 0.6923743 -3.82549754 0.30502306 0 0 Z " fill="#FFFFFF" transform="translate(580.3515625,381.8125)"/>
<path d="M0 0 C4.95 0 9.9 0 15 0 C15 31.35 15 62.7 15 95 C10.05 95 5.1 95 0 95 C0 63.65 0 32.3 0 0 Z " fill="#FFFFFF" transform="translate(651,382)"/>
<path d="M0 0 C4.29 0 8.58 0 13 0 C13 31.35 13 62.7 13 95 C8.05 95 3.1 95 -2 95 C-2.0462659 82.90886365 -2.08183989 70.81774823 -2.10362434 58.72654152 C-2.11407784 53.1125845 -2.12826553 47.49868788 -2.15087891 41.88476562 C-2.17255154 36.47073139 -2.18455681 31.05675538 -2.18975449 25.64268112 C-2.1934603 23.5733384 -2.20069644 21.50399899 -2.21146011 19.43468094 C-2.22590091 16.54443635 -2.22798106 13.6544348 -2.22705078 10.76416016 C-2.23424133 9.90173203 -2.24143188 9.03930389 -2.24884033 8.15074158 C-2.22810432 2.22810432 -2.22810432 2.22810432 0 0 Z " fill="#FFFFFF" transform="translate(498,382)"/>
<path d="M0 0 C0.66 0 1.32 0 2 0 C2 0.99 2 1.98 2 3 C1.34 3 0.68 3 0 3 C0 2.01 0 1.02 0 0 Z " fill="#FFFFFF" transform="translate(105,87)"/>
</svg>
