<svg version="1.1" id="Layer_1" xmlns="http://www.w3.org/2000/svg" xmlns:xlink="http://www.w3.org/1999/xlink" x="0px" y="0px"
	 width="100%" viewBox="0 0 2079 1024" enable-background="new 0 0 2079 1024" xml:space="preserve">
<path fill="#F5C518" opacity="1.000000" stroke="none" 
	d="
M2080.000000,104.000000 
	C2080.000000,377.699402 2080.000000,651.398804 2079.623535,925.658752 
	C2078.834229,926.895752 2078.158203,927.531738 2078.047119,928.254639 
	C2074.852295,949.023926 2065.721680,967.200867 2052.319580,982.952332 
	C2036.428467,1001.628845 2016.717529,1015.003662 1992.568848,1021.056824 
	C1987.062378,1022.437134 1981.523804,1023.688965 1976.000000,1025.000000 
	C1352.633911,1025.000000 729.267883,1025.000000 105.302437,1024.604980 
	C102.877556,1024.134033 101.002037,1024.303833 99.234161,1023.944397 
	C78.538399,1019.735596 59.482590,1011.632751 43.481583,997.777222 
	C24.540222,981.375549 10.639511,961.472412 4.829329,936.580933 
	C3.908867,932.637512 2.293879,928.856262 1.000001,925.000000 
	C1.000000,650.633911 1.000000,376.267883 1.372752,101.330917 
	C2.163387,99.549377 2.755275,98.369171 2.973194,97.123535 
	C6.547870,76.690521 15.321524,58.565281 28.711807,42.978722 
	C44.683273,24.387611 64.324043,10.995673 88.442596,4.934850 
	C93.943932,3.552403 99.479950,2.307960 105.000000,1.000000 
	C728.366028,1.000000 1351.732056,1.000000 1975.697510,1.394968 
	C1987.908447,2.433951 1998.695068,6.212467 2009.233887,10.725628 
	C2024.585205,17.299593 2037.637573,27.106106 2048.926270,39.387436 
	C2059.557617,50.953491 2067.919678,63.910023 2072.931396,78.807625 
	C2075.708984,87.063385 2077.670654,95.593521 2080.000000,104.000000 
M23.000000,180.500000 
	C23.000000,423.664154 22.995129,666.828308 23.013815,909.992493 
	C23.014788,922.653687 26.324160,934.608826 31.548609,946.025940 
	C38.793530,961.858337 49.458263,975.029175 63.675381,985.087891 
	C79.164589,996.046509 96.389580,1002.913513 115.498985,1002.916687 
	C731.996521,1003.017822 1348.494019,1003.002014 1964.991577,1002.986328 
	C1977.652466,1002.986023 1989.584717,999.625916 2001.031006,994.463867 
	C2016.938965,987.289612 2030.043701,976.521667 2040.067383,962.309875 
	C2050.980469,946.836853 2057.919678,929.645325 2057.927246,910.502014 
	C2058.034912,645.669739 2058.004395,380.837463 2057.986816,116.005165 
	C2057.985840,103.342979 2054.673828,91.389534 2049.449707,79.972244 
	C2042.205200,64.139259 2031.539307,50.969971 2017.322998,40.910618 
	C2001.834106,29.950853 1984.607910,23.086603 1965.498901,23.083458 
	C1349.834717,22.982134 734.170471,22.978926 118.506310,23.193510 
	C108.931015,23.196846 99.056236,25.103529 89.846603,27.870596 
	C72.454338,33.096165 57.968109,43.173737 46.179630,57.222862 
	C31.852810,74.297096 23.543512,93.693901 23.092083,116.002113 
	C22.663931,137.160034 23.000000,158.333420 23.000000,180.500000 
z"/>
<path fill="none" stroke="none" 
	d="
M2080.000000,103.531342 
	C2077.670654,95.593521 2075.708984,87.063385 2072.931396,78.807625 
	C2067.919678,63.910023 2059.557617,50.953491 2048.926270,39.387436 
	C2037.637573,27.106106 2024.585205,17.299593 2009.233887,10.725628 
	C1998.695068,6.212467 1987.908447,2.433951 1976.148438,1.394968 
	C2010.593262,1.000000 2045.186523,1.000000 2080.000000,1.000000 
	C2080.000000,35.020576 2080.000000,69.041634 2080.000000,103.531342 
z"/>
<path fill="none" stroke="none" 
	d="
M104.531342,1.000000 
	C99.479950,2.307960 93.943932,3.552403 88.442596,4.934850 
	C64.324043,10.995673 44.683273,24.387611 28.711807,42.978722 
	C15.321524,58.565281 6.547870,76.690521 2.973194,97.123535 
	C2.755275,98.369171 2.163387,99.549377 1.372752,100.880020 
	C1.000000,67.738297 1.000000,34.476585 1.000000,1.000000 
	C35.353928,1.000000 69.708305,1.000000 104.531342,1.000000 
z"/>
<path fill="none" stroke="none" 
	d="
M1.000001,925.468628 
	C2.293879,928.856262 3.908867,932.637512 4.829329,936.580933 
	C10.639511,961.472412 24.540222,981.375549 43.481583,997.777222 
	C59.482590,1011.632751 78.538399,1019.735596 99.234161,1023.944397 
	C101.002037,1024.303833 102.877556,1024.134033 104.851532,1024.604980 
	C70.407829,1025.000000 35.815659,1025.000000 1.000000,1025.000000 
	C1.000000,991.979431 1.000000,958.958374 1.000001,925.468628 
z"/>
<path fill="none" stroke="none" 
	d="
M1976.468628,1025.000000 
	C1981.523804,1023.688965 1987.062378,1022.437134 1992.568848,1021.056824 
	C2016.717529,1015.003662 2036.428467,1001.628845 2052.319580,982.952332 
	C2065.721680,967.200867 2074.852295,949.023926 2078.047119,928.254639 
	C2078.158203,927.531738 2078.834229,926.895752 2079.623535,926.109619 
	C2080.000000,958.928772 2080.000000,991.857483 2080.000000,1025.000000 
	C2045.645996,1025.000000 2011.291626,1025.000000 1976.468628,1025.000000 
z"/>
<path fill="none" stroke="none" 
	d="
M23.000000,180.000000 
	C23.000000,158.333420 22.663931,137.160034 23.092083,116.002113 
	C23.543512,93.693901 31.852810,74.297096 46.179630,57.222862 
	C57.968109,43.173737 72.454338,33.096165 89.846603,27.870596 
	C99.056236,25.103529 108.931015,23.196846 118.506310,23.193510 
	C734.170471,22.978926 1349.834717,22.982134 1965.498901,23.083458 
	C1984.607910,23.086603 2001.834106,29.950853 2017.322998,40.910618 
	C2031.539307,50.969971 2042.205200,64.139259 2049.449707,79.972244 
	C2054.673828,91.389534 2057.985840,103.342979 2057.986816,116.005165 
	C2058.004395,380.837463 2058.034912,645.669739 2057.927246,910.502014 
	C2057.919678,929.645325 2050.980469,946.836853 2040.067383,962.309875 
	C2030.043701,976.521667 2016.938965,987.289612 2001.031006,994.463867 
	C1989.584717,999.625916 1977.652466,1002.986023 1964.991577,1002.986328 
	C1348.494019,1003.002014 731.996521,1003.017822 115.498985,1002.916687 
	C96.389580,1002.913513 79.164589,996.046509 63.675381,985.087891 
	C49.458263,975.029175 38.793530,961.858337 31.548609,946.025940 
	C26.324160,934.608826 23.014788,922.653687 23.013815,909.992493 
	C22.995129,666.828308 23.000000,423.664154 23.000000,180.000000 
M873.500000,816.000000 
	C910.255737,816.000000 947.011475,816.000000 983.733154,816.000000 
	C983.733154,616.047852 983.733154,416.653717 983.733154,217.234879 
	C916.375061,217.234879 849.284058,217.234879 782.120544,217.234879 
	C770.534790,307.844086 758.977417,398.231720 747.420044,488.619354 
	C747.039978,488.566101 746.659912,488.512848 746.279846,488.459595 
	C733.290039,398.022369 720.300171,307.585144 707.325684,217.254669 
	C639.776184,217.254669 573.029846,217.254669 506.242554,217.254669 
	C506.242554,416.903503 506.242554,616.297607 506.242554,815.756836 
	C551.554810,815.756836 596.624146,815.756836 642.662354,815.756836 
	C642.662354,690.172180 642.662354,564.828064 642.662354,439.483887 
	C643.230469,439.449463 643.798584,439.415039 644.366699,439.380615 
	C662.387878,564.788208 680.409058,690.195740 698.487122,815.998962 
	C729.826172,815.998962 761.285400,816.037048 792.743164,815.839355 
	C793.836243,815.832520 795.581299,813.609009 795.871094,812.184448 
	C796.648804,808.361511 796.683838,804.394897 797.225342,800.514954 
	C798.414307,791.995422 799.841003,783.508301 800.970093,774.981384 
	C802.125427,766.256775 802.932129,757.486023 804.088867,748.761597 
	C805.625854,737.168823 807.420166,725.610352 808.977844,714.020142 
	C810.106201,705.624268 810.940369,697.188782 812.068909,688.792969 
	C813.279907,679.784058 814.750793,670.810181 815.979858,661.803528 
	C817.124695,653.414612 818.016296,644.990967 819.174500,636.604065 
	C820.350891,628.085022 821.834595,619.607727 822.967285,611.083435 
	C824.126526,602.358337 824.905762,593.582886 826.063477,584.857605 
	C827.601440,573.265991 829.415100,561.711060 830.976624,550.122375 
	C832.107971,541.726746 832.929565,533.289307 834.058228,524.893250 
	C835.269226,515.884583 836.755005,506.912903 837.977478,497.905609 
	C839.116516,489.513702 839.990417,481.085876 841.119263,472.692474 
	C842.678223,461.100922 844.341003,449.523041 846.015442,437.947449 
	C846.530640,434.385925 847.229370,430.850952 847.844055,427.303833 
	C848.295715,427.381958 848.747375,427.460083 849.199036,427.538208 
	C849.199036,556.951477 849.199036,686.364746 849.199036,816.000000 
	C857.212646,816.000000 864.856323,816.000000 873.500000,816.000000 
M1366.041626,773.434021 
	C1366.807739,772.026184 1367.446167,770.528809 1368.360352,769.224792 
	C1375.256714,759.388123 1378.899292,748.058044 1380.729980,736.574036 
	C1383.401001,719.818970 1384.753906,702.814026 1385.870483,685.863037 
	C1386.828491,671.319824 1386.987671,656.701904 1386.946533,642.118591 
	C1386.726929,564.373779 1386.374512,486.629211 1385.963379,408.885071 
	C1385.886230,394.299347 1385.490356,379.710327 1384.948120,365.133698 
	C1384.544678,354.287933 1383.432373,343.468018 1383.053467,332.621979 
	C1382.410889,314.223114 1378.140747,296.868042 1368.971680,280.841339 
	C1359.384766,264.084290 1346.459595,250.520554 1329.483887,241.184784 
	C1306.421021,228.501404 1281.125366,223.607880 1255.305908,221.076996 
	C1240.759521,219.651138 1226.149292,218.732742 1211.545654,218.075439 
	C1196.643188,217.404694 1181.714355,217.092102 1166.795776,217.045929 
	C1124.467163,216.914871 1082.137939,216.997360 1039.808960,217.012909 
	C1038.554565,217.013367 1037.300171,217.205078 1036.338989,217.283646 
	C1036.338989,417.103577 1036.338989,616.494385 1036.338989,815.999817 
	C1037.503174,815.999817 1038.328491,816.003418 1039.153687,815.999207 
	C1104.066284,815.666504 1168.979004,815.371460 1233.891113,814.962646 
	C1244.810669,814.893921 1255.725098,814.201233 1266.645508,814.032043 
	C1282.035034,813.793640 1297.168091,811.735535 1312.067017,807.981140 
	C1333.621460,802.549622 1351.959839,791.987732 1366.041626,773.434021 
M1587.000000,275.500000 
	C1587.000000,256.070435 1587.000000,236.640854 1587.000000,217.291077 
	C1537.018677,217.291077 1487.614258,217.291077 1438.288940,217.291077 
	C1438.288940,416.983093 1438.288940,616.383911 1438.288940,815.888306 
	C1484.872559,815.888306 1531.167114,815.888306 1577.437256,815.888306 
	C1580.618286,803.583313 1583.770874,791.388000 1586.859009,779.441833 
	C1593.634766,785.849670 1600.024780,792.216064 1606.766357,798.185425 
	C1615.041870,805.512939 1624.330078,811.607361 1634.875854,814.836853 
	C1645.143188,817.980957 1655.767578,820.241455 1666.391113,821.876770 
	C1683.889282,824.570374 1701.262329,823.493408 1718.346436,818.301208 
	C1736.272827,812.852966 1750.859253,802.452942 1763.537842,788.988037 
	C1772.131958,779.860901 1777.858032,769.172668 1780.981812,757.095825 
	C1786.724976,734.891602 1787.682617,712.049988 1787.768311,689.400024 
	C1788.050415,614.818787 1787.399902,540.233337 1786.917114,465.650726 
	C1786.855713,456.152435 1786.610596,446.477509 1784.805176,437.204834 
	C1780.868286,416.986206 1770.842407,400.176727 1753.805176,387.975830 
	C1735.061279,374.552795 1713.479614,369.991791 1691.144775,369.252563 
	C1678.779785,368.843323 1666.274048,370.552551 1653.931519,372.101990 
	C1634.892822,374.492035 1618.252808,382.704559 1603.614380,394.953003 
	C1598.019409,399.634613 1592.769409,404.728577 1587.000000,409.963196 
	C1587.000000,365.109711 1587.000000,320.804871 1587.000000,275.500000 
M455.000000,415.500000 
	C455.000000,349.406372 455.000000,283.312775 455.000000,217.288986 
	C403.022583,217.288986 351.618408,217.288986 300.286499,217.288986 
	C300.286499,416.978668 300.286499,616.379272 300.286499,815.710815 
	C351.977722,815.710815 403.381927,815.710815 455.000000,815.710815 
	C455.000000,682.447876 455.000000,549.473938 455.000000,415.500000 
z"/>
<path fill="#F5C518" opacity="1.000000" stroke="none" 
	d="
M873.000000,816.000000 
	C864.856323,816.000000 857.212646,816.000000 849.199036,816.000000 
	C849.199036,686.364746 849.199036,556.951477 849.199036,427.538208 
	C848.747375,427.460083 848.295715,427.381958 847.844055,427.303833 
	C847.229370,430.850952 846.530640,434.385925 846.015442,437.947449 
	C844.341003,449.523041 842.678223,461.100922 841.119263,472.692474 
	C839.990417,481.085876 839.116516,489.513702 837.977478,497.905609 
	C836.755005,506.912903 835.269226,515.884583 834.058228,524.893250 
	C832.929565,533.289307 832.107971,541.726746 830.976624,550.122375 
	C829.415100,561.711060 827.601440,573.265991 826.063477,584.857605 
	C824.905762,593.582886 824.126526,602.358337 822.967285,611.083435 
	C821.834595,619.607727 820.350891,628.085022 819.174500,636.604065 
	C818.016296,644.990967 817.124695,653.414612 815.979858,661.803528 
	C814.750793,670.810181 813.279907,679.784058 812.068909,688.792969 
	C810.940369,697.188782 810.106201,705.624268 808.977844,714.020142 
	C807.420166,725.610352 805.625854,737.168823 804.088867,748.761597 
	C802.932129,757.486023 802.125427,766.256775 800.970093,774.981384 
	C799.841003,783.508301 798.414307,791.995422 797.225342,800.514954 
	C796.683838,804.394897 796.648804,808.361511 795.871094,812.184448 
	C795.581299,813.609009 793.836243,815.832520 792.743164,815.839355 
	C761.285400,816.037048 729.826172,815.998962 698.487122,815.998962 
	C680.409058,690.195740 662.387878,564.788208 644.366699,439.380615 
	C643.798584,439.415039 643.230469,439.449463 642.662354,439.483887 
	C642.662354,564.828064 642.662354,690.172180 642.662354,815.756836 
	C596.624146,815.756836 551.554810,815.756836 506.242554,815.756836 
	C506.242554,616.297607 506.242554,416.903503 506.242554,217.254669 
	C573.029846,217.254669 639.776184,217.254669 707.325684,217.254669 
	C720.300171,307.585144 733.290039,398.022369 746.279846,488.459595 
	C746.659912,488.512848 747.039978,488.566101 747.420044,488.619354 
	C758.977417,398.231720 770.534790,307.844086 782.120544,217.234879 
	C849.284058,217.234879 916.375061,217.234879 983.733154,217.234879 
	C983.733154,416.653717 983.733154,616.047852 983.733154,816.000000 
	C947.011475,816.000000 910.255737,816.000000 873.000000,816.000000 
z"/>
<path fill="#F5C518" opacity="1.000000" stroke="none" 
	d="
M1365.789307,773.705261 
	C1351.959839,791.987732 1333.621460,802.549622 1312.067017,807.981140 
	C1297.168091,811.735535 1282.035034,813.793640 1266.645508,814.032043 
	C1255.725098,814.201233 1244.810669,814.893921 1233.891113,814.962646 
	C1168.979004,815.371460 1104.066284,815.666504 1039.153687,815.999207 
	C1038.328491,816.003418 1037.503174,815.999817 1036.338989,815.999817 
	C1036.338989,616.494385 1036.338989,417.103577 1036.338989,217.283646 
	C1037.300171,217.205078 1038.554565,217.013367 1039.808960,217.012909 
	C1082.137939,216.997360 1124.467163,216.914871 1166.795776,217.045929 
	C1181.714355,217.092102 1196.643188,217.404694 1211.545654,218.075439 
	C1226.149292,218.732742 1240.759521,219.651138 1255.305908,221.076996 
	C1281.125366,223.607880 1306.421021,228.501404 1329.483887,241.184784 
	C1346.459595,250.520554 1359.384766,264.084290 1368.971680,280.841339 
	C1378.140747,296.868042 1382.410889,314.223114 1383.053467,332.621979 
	C1383.432373,343.468018 1384.544678,354.287933 1384.948120,365.133698 
	C1385.490356,379.710327 1385.886230,394.299347 1385.963379,408.885071 
	C1386.374512,486.629211 1386.726929,564.373779 1386.946533,642.118591 
	C1386.987671,656.701904 1386.828491,671.319824 1385.870483,685.863037 
	C1384.753906,702.814026 1383.401001,719.818970 1380.729980,736.574036 
	C1378.899292,748.058044 1375.256714,759.388123 1368.360352,769.224792 
	C1367.446167,770.528809 1366.807739,772.026184 1365.789307,773.705261 
M1235.002441,340.645172 
	C1233.197632,332.571014 1227.935547,327.130768 1220.593994,324.394745 
	C1211.205322,320.895813 1201.246216,320.365326 1191.209229,321.244995 
	C1191.209229,451.232910 1191.209229,580.929871 1191.209229,711.378113 
	C1197.643311,710.906128 1203.939819,711.033203 1209.993164,709.881958 
	C1224.147217,707.189880 1230.730591,702.740540 1233.569946,690.388245 
	C1236.181396,679.027466 1237.777832,667.168762 1237.816162,655.522827 
	C1238.138794,557.568604 1238.057861,459.612762 1237.873413,361.657867 
	C1237.860718,354.932800 1236.036011,348.211121 1235.002441,340.645172 
z"/>
<path fill="#F5C518" opacity="1.000000" stroke="none" 
	d="
M1587.000000,276.000000 
	C1587.000000,320.804871 1587.000000,365.109711 1587.000000,409.963196 
	C1592.769409,404.728577 1598.019409,399.634613 1603.614380,394.953003 
	C1618.252808,382.704559 1634.892822,374.492035 1653.931519,372.101990 
	C1666.274048,370.552551 1678.779785,368.843323 1691.144775,369.252563 
	C1713.479614,369.991791 1735.061279,374.552795 1753.805176,387.975830 
	C1770.842407,400.176727 1780.868286,416.986206 1784.805176,437.204834 
	C1786.610596,446.477509 1786.855713,456.152435 1786.917114,465.650726 
	C1787.399902,540.233337 1788.050415,614.818787 1787.768311,689.400024 
	C1787.682617,712.049988 1786.724976,734.891602 1780.981812,757.095825 
	C1777.858032,769.172668 1772.131958,779.860901 1763.537842,788.988037 
	C1750.859253,802.452942 1736.272827,812.852966 1718.346436,818.301208 
	C1701.262329,823.493408 1683.889282,824.570374 1666.391113,821.876770 
	C1655.767578,820.241455 1645.143188,817.980957 1634.875854,814.836853 
	C1624.330078,811.607361 1615.041870,805.512939 1606.766357,798.185425 
	C1600.024780,792.216064 1593.634766,785.849670 1586.859009,779.441833 
	C1583.770874,791.388000 1580.618286,803.583313 1577.437256,815.888306 
	C1531.167114,815.888306 1484.872559,815.888306 1438.288940,815.888306 
	C1438.288940,616.383911 1438.288940,416.983093 1438.288940,217.291077 
	C1487.614258,217.291077 1537.018677,217.291077 1587.000000,217.291077 
	C1587.000000,236.640854 1587.000000,256.070435 1587.000000,276.000000 
M1587.000000,549.500000 
	C1587.000000,557.499573 1586.890747,565.500916 1587.018066,573.498413 
	C1587.750610,619.497498 1585.072388,665.551208 1589.086914,711.490967 
	C1589.626831,717.667664 1590.129639,724.158081 1594.677002,729.163330 
	C1601.599487,736.782959 1609.994629,737.015320 1619.271240,734.413635 
	C1626.464233,732.396362 1633.224854,729.717102 1634.821655,721.763794 
	C1636.546631,713.172546 1637.831299,704.328186 1637.865967,695.588562 
	C1638.115967,632.592896 1638.084839,569.595459 1637.910400,506.599213 
	C1637.883667,496.933197 1637.033081,487.225220 1635.860718,477.622467 
	C1635.110229,471.475708 1633.687744,465.389862 1627.346313,461.709961 
	C1619.602905,457.216400 1611.293823,455.981781 1602.851440,457.281433 
	C1596.895874,458.198242 1591.814697,461.905548 1590.989624,468.580811 
	C1589.410645,481.357147 1587.757812,494.165863 1587.147949,507.009186 
	C1586.492554,520.810669 1587.000000,534.667358 1587.000000,549.500000 
z"/>
<path fill="#F5C518" opacity="1.000000" stroke="none" 
	d="
M455.000000,416.000000 
	C455.000000,549.473938 455.000000,682.447876 455.000000,815.710815 
	C403.381927,815.710815 351.977722,815.710815 300.286499,815.710815 
	C300.286499,616.379272 300.286499,416.978668 300.286499,217.288986 
	C351.618408,217.288986 403.022583,217.288986 455.000000,217.288986 
	C455.000000,283.312775 455.000000,349.406372 455.000000,416.000000 
z"/>
<path fill="none" stroke="none" 
	d="
M1235.028320,341.066528 
	C1236.036011,348.211121 1237.860718,354.932800 1237.873413,361.657867 
	C1238.057861,459.612762 1238.138794,557.568604 1237.816162,655.522827 
	C1237.777832,667.168762 1236.181396,679.027466 1233.569946,690.388245 
	C1230.730591,702.740540 1224.147217,707.189880 1209.993164,709.881958 
	C1203.939819,711.033203 1197.643311,710.906128 1191.209229,711.378113 
	C1191.209229,580.929871 1191.209229,451.232910 1191.209229,321.244995 
	C1201.246216,320.365326 1211.205322,320.895813 1220.593994,324.394745 
	C1227.935547,327.130768 1233.197632,332.571014 1235.028320,341.066528 
z"/>
<path fill="none" stroke="none" 
	d="
M1587.000000,549.000000 
	C1587.000000,534.667358 1586.492554,520.810669 1587.147949,507.009186 
	C1587.757812,494.165863 1589.410645,481.357147 1590.989624,468.580811 
	C1591.814697,461.905548 1596.895874,458.198242 1602.851440,457.281433 
	C1611.293823,455.981781 1619.602905,457.216400 1627.346313,461.709961 
	C1633.687744,465.389862 1635.110229,471.475708 1635.860718,477.622467 
	C1637.033081,487.225220 1637.883667,496.933197 1637.910400,506.599213 
	C1638.084839,569.595459 1638.115967,632.592896 1637.865967,695.588562 
	C1637.831299,704.328186 1636.546631,713.172546 1634.821655,721.763794 
	C1633.224854,729.717102 1626.464233,732.396362 1619.271240,734.413635 
	C1609.994629,737.015320 1601.599487,736.782959 1594.677002,729.163330 
	C1590.129639,724.158081 1589.626831,717.667664 1589.086914,711.490967 
	C1585.072388,665.551208 1587.750610,619.497498 1587.018066,573.498413 
	C1586.890747,565.500916 1587.000000,557.499573 1587.000000,549.000000 
z"/>
</svg>