<?xml version="1.0" encoding="utf-8"?>
<svg version="1.1" xmlns="http://www.w3.org/2000/svg" xmlns:xlink="http://www.w3.org/1999/xlink" x="0px" y="0px" viewBox="0 0 256 256" enable-background="new 0 0 256 256" xml:space="preserve">
<g><g><g><g><path fill="#000000" d="M181.1,23.5C137.5,1.7,94.9,6.7,55.5,35.4l-6.3,4.8l-8.1,1.2c0,0-12.9,1.9-19.3,2.9l12.5,11.8l-4.3,6.2C17.3,81.3,10,102.1,10,124.9c-0.1,48.9,21.5,86.1,65.1,107.8c43.8,21.8,86.4,16.4,126.1-12.4l5.8-3.9l28.5-4.9l-13.7-12c16.1-21.8,24.5-44.8,24.1-70.2C245.4,81.3,223.8,44.8,181.1,23.5z M215.7,184.3c-0.9,1.4-2,2.8-3.8,5.3L201,178.9l-3.9,27.4l-5.4,4.1C157.2,235,120.1,239.6,82.2,221c-37.7-18.5-57.4-50-58.5-92.4c-0.6-21.1,5.7-40.4,17.3-57.9c0.7-1.1,1.6-2.6,3.7-5.2L55,77c1.1-7.3,1.9-14.7,3.5-22l1-5l3.5-3.1c39.1-32.2,97.2-30.1,135.9,4.8C236,85.2,243.3,142.4,215.7,184.3z"/><path fill="#000000" d="M149.6,151.1c1.9-8.2,3.9-16.4,5.6-24.6c1.1-5.4-0.7-8.2-4.9-8.4c-5.3-0.2-10.5,3.7-11.7,8.9c-2,8.4-3.8,16.8-5.9,25.1l-0.9,3.9l-18.4,0c0.4-1.9,0.6-2.7,0.8-3.6c2-8.4,4-16.7,5.8-25.2c1.3-5.8-0.5-8.9-4.7-9.1c-5.2-0.3-10.5,3.7-11.7,8.7c-2,8.4-3.8,16.8-5.9,25.1l-1,4.1l-18.5,0c3.2-13.8,6.1-26.6,9.1-39.7c-10.1,0-19.6,0-29,0c-6.6,27.7,9.3,68.3,50.1,79.9c41.6,11.9,76.3-15.3,84.6-40.1c-14.6,0-29.1,0-44.3,0C149.1,153.7,149.2,152.4,149.6,151.1z"/><path fill="#000000" d="M137.5,57.8c-33.8-5.1-69.4,16-76,43.7h46.9l0,2.8c15.9-7.9,23-4.2,31.6,4.1c2-1.4,3.9-3,6.1-4.2c7.6-4.5,15.6-6.1,23.2-0.8c7.4,5.1,6.5,12.8,4.8,20.3c-1.3,5.8-2.6,11.5-3.9,17.5c9.6,0,18.5,0,27.7,0C205.7,101.1,178.5,63.9,137.5,57.8z"/></g></g></g></g>
</svg>
