<?xml version="1.0" encoding="utf-8"?>
<svg version="1.1" id="Layer_1" xmlns="http://www.w3.org/2000/svg" x="0px" y="0px" width="100%" viewBox="0 0 2079 1024" enable-background="new 0 0 2079 1024">
  <defs>
    <linearGradient id="gradient-border" x1="0%" y1="0%" x2="100%" y2="100%">
      <stop offset="0.6" stop-color="#FCD24C"/>
      <stop offset="1" stop-color="#D35722"/>
    </linearGradient>
  </defs>
  <path d=" M2080.000000,104.000000 C2080.000000,377.699402 2080.000000,651.398804 2079.623535,925.658752 C2078.834229,926.895752 2078.158203,927.531738 2078.047119,928.254639 C2074.852295,949.023926 2065.721680,967.200867 2052.319580,982.952332 C2036.428467,1001.628845 2016.717529,1015.003662 1992.568848,1021.056824 C1987.062378,1022.437134 1981.523804,1023.688965 1976.000000,1025.000000 C1352.633911,1025.000000 729.267883,1025.000000 105.302437,1024.604980 C102.877556,1024.134033 101.002037,1024.303833 99.234161,1023.944397 C78.538399,1019.735596 59.482590,1011.632751 43.481583,997.777222 C24.540222,981.375549 10.639511,961.472412 4.829329,936.580933 C3.908867,932.637512 2.293879,928.856262 1.000001,925.000000 C1.000000,650.633911 1.000000,376.267883 1.372752,101.330917 C2.163387,99.549377 2.755275,98.369171 2.973194,97.123535 C6.547870,76.690521 15.321524,58.565281 28.711807,42.978722 C44.683273,24.387611 64.324043,10.995673 88.442596,4.934850 C93.943932,3.552403 99.479950,2.307960 105.000000,1.000000 C728.366028,1.000000 1351.732056,1.000000 1975.697510,1.394968 C1987.908447,2.433951 1998.695068,6.212467 2009.233887,10.725628 C2024.585205,17.299593 2037.637573,27.106106 2048.926270,39.387436 C2059.557617,50.953491 2067.919678,63.910023 2072.931396,78.807625 C2075.708984,87.063385 2077.670654,95.593521 2080.000000,104.000000 M23.000000,180.500000 C23.000000,423.664154 22.995129,666.828308 23.013815,909.992493 C23.014788,922.653687 26.324160,934.608826 31.548609,946.025940 C38.793530,961.858337 49.458263,975.029175 63.675381,985.087891 C79.164589,996.046509 96.389580,1002.913513 115.498985,1002.916687 C731.996521,1003.017822 1348.494019,1003.002014 1964.991577,1002.986328 C1977.652466,1002.986023 1989.584717,999.625916 2001.031006,994.463867 C2016.938965,987.289612 2030.043701,976.521667 2040.067383,962.309875 C2050.980469,946.836853 2057.919678,929.645325 2057.927246,910.502014 C2058.034912,645.669739 2058.004395,380.837463 2057.986816,116.005165 C2057.985840,103.342979 2054.673828,91.389534 2049.449707,79.972244 C2042.205200,64.139259 2031.539307,50.969971 2017.322998,40.910618 C2001.834106,29.950853 1984.607910,23.086603 1965.498901,23.083458 C1349.834717,22.982134 734.170471,22.978926 118.506310,23.193510 C108.931015,23.196846 99.056236,25.103529 89.846603,27.870596 C72.454338,33.096165 57.968109,43.173737 46.179630,57.222862 C31.852810,74.297096 23.543512,93.693901 23.092083,116.002113 C22.663931,137.160034 23.000000,158.333420 23.000000,180.500000 z" fill="url(#gradient-border)"/>
  <g transform="matrix(1.725094, 0, 0, 1.725094, -732.297058, -826.422546)">
    <path d="M 869.228 585.665 C 875.17 589.427 880.147 593.796 883.443 600.067 C 883.443 600.727 883.443 601.387 883.443 602.067 C 884.577 601.737 885.711 601.407 886.88 601.067 C 895.757 598.918 903.255 599.868 911.443 604.067 C 916.65 607.869 920.465 612.915 922.443 619.067 C 922.672 621.044 922.879 623.023 923.068 625.005 C 923.783 630.306 925.335 632.471 929.38 635.942 C 930.256 636.599 931.131 637.257 932.033 637.934 C 935.589 641.081 937.228 644.197 937.771 648.919 C 937.745 649.834 937.719 650.749 937.693 651.692 C 937.677 652.612 937.662 653.533 937.646 654.481 C 937.463 656.807 937.038 658.822 936.443 661.067 C 937.113 661.057 937.784 661.046 938.475 661.035 C 941.527 660.994 944.578 660.968 947.63 660.942 C 948.685 660.925 949.74 660.909 950.828 660.891 C 951.849 660.885 952.871 660.878 953.923 660.872 C 954.861 660.861 955.798 660.851 956.764 660.84 C 959.664 661.086 961.775 661.946 964.443 663.067 C 967.322 662.866 969.858 662.264 972.591 661.345 C 978.766 659.286 984.266 658.587 990.755 658.692 C 992.129 658.707 992.129 658.707 993.53 658.723 C 1010.86 659.117 1023.85 665.196 1036.44 677.067 C 1038.14 679.03 1039.67 681.003 1041.13 683.145 C 1042.78 685.555 1044.6 687.801 1046.44 690.067 C 1047.17 688.907 1047.17 688.907 1047.91 687.723 C 1058.11 671.875 1071.72 660.935 1090.51 656.755 C 1108.47 654.089 1127.11 655.635 1142.44 666.067 C 1148.04 670.215 1152.82 675.089 1156.44 681.067 C 1156.44 681.727 1156.44 682.387 1156.44 683.067 C 1158.9 680.64 1161.32 678.207 1163.63 675.637 C 1172.72 665.767 1184.54 659.325 1198.18 658.766 C 1215.44 658.563 1229.29 661.136 1242.38 673.38 C 1251.87 683.47 1253.81 694.642 1253.44 708.067 C 1254.76 708.067 1256.08 708.067 1257.44 708.067 C 1257.11 707.077 1256.78 706.087 1256.44 705.067 C 1256.11 705.727 1255.78 706.387 1255.44 707.067 C 1254.44 706.067 1254.44 706.067 1254.38 702.505 C 1254.4 701.37 1254.42 700.236 1254.44 699.067 C 1254.77 700.057 1255.1 701.047 1255.44 702.067 C 1256.1 702.067 1256.76 702.067 1257.44 702.067 C 1257.46 701.25 1257.47 700.434 1257.49 699.592 C 1257.56 695.875 1257.66 692.159 1257.76 688.442 C 1257.78 687.157 1257.8 685.872 1257.82 684.548 C 1257.86 683.304 1257.89 682.06 1257.93 680.778 C 1257.97 679.066 1257.97 679.066 1258.01 677.319 C 1258.83 671.16 1261.74 667.006 1266.44 663.067 C 1270.63 661.37 1274.18 660.811 1278.69 660.801 C 1279.86 660.799 1281.02 660.796 1282.23 660.794 C 1284.04 660.805 1284.04 660.805 1285.88 660.817 C 1287.08 660.809 1288.28 660.802 1289.52 660.794 C 1295.59 660.807 1300.71 661.105 1306.44 663.067 C 1311.09 662.782 1314.34 661.163 1318.44 659.067 C 1323.68 657.466 1330.51 656.817 1335.62 658.997 C 1337.63 660.13 1337.63 660.13 1339.36 661.29 C 1342.49 662.457 1345.17 661.551 1348.44 661.067 C 1352.71 660.864 1356.97 660.839 1361.24 660.827 C 1363.24 660.817 1365.24 660.786 1367.24 660.755 C 1374.2 660.727 1379.83 661.265 1386.39 663.551 C 1389.6 664.357 1391.44 663.315 1394.26 661.755 C 1405.14 656.94 1419.87 657.212 1431.1 661.032 C 1444.48 666.941 1452.6 675.669 1458.44 689.067 C 1462.33 701.057 1461.61 714.822 1461.65 727.274 C 1461.65 727.969 1461.65 728.665 1461.65 729.381 C 1461.67 733.047 1461.68 736.713 1461.68 740.379 C 1461.69 744.139 1461.71 747.899 1461.74 751.659 C 1461.76 754.58 1461.77 757.501 1461.77 760.422 C 1461.77 761.809 1461.78 763.195 1461.79 764.581 C 1461.94 781.044 1461.94 781.044 1457.13 786.576 C 1448.54 794.387 1435.32 793.077 1424.44 793.067 C 1417.58 792.736 1412.91 791.474 1407.78 786.798 C 1404.75 782.879 1404.19 779.016 1404.16 774.163 C 1404.14 772.998 1404.13 771.833 1404.12 770.633 C 1404.11 769.384 1404.1 768.135 1404.1 766.848 C 1404.08 764.876 1404.05 762.905 1404.03 760.933 C 1403.99 756.778 1403.96 752.624 1403.93 748.469 C 1403.9 745.045 1403.87 741.621 1403.83 738.197 C 1403.8 735.632 1403.78 733.066 1403.77 730.501 C 1403.76 729.336 1403.74 728.171 1403.73 726.971 C 1403.72 725.949 1403.71 724.927 1403.71 723.875 C 1403.43 720.934 1402.67 718.738 1401.44 716.067 C 1399.79 716.067 1398.14 716.067 1396.44 716.067 C 1394.76 719.741 1394.19 722.619 1394.17 726.648 C 1394.16 727.743 1394.15 728.838 1394.14 729.966 C 1394.14 731.14 1394.14 732.315 1394.13 733.524 C 1394.11 736.023 1394.08 738.523 1394.06 741.022 C 1394.03 744.952 1394.01 748.882 1393.99 752.812 C 1393.96 756.612 1393.92 760.412 1393.88 764.212 C 1393.88 765.38 1393.88 766.548 1393.88 767.751 C 1393.8 774.865 1393.62 781.627 1388.54 787.126 C 1387.53 787.808 1387.53 787.808 1386.51 788.505 C 1385.84 788.978 1385.17 789.451 1384.48 789.938 C 1378.79 793.094 1372.14 792.325 1365.82 792.362 C 1364.45 792.374 1363.09 792.394 1361.72 792.424 C 1346.27 792.759 1346.27 792.759 1339.44 788.067 C 1334.9 782.731 1334.34 777.891 1334.24 771.083 C 1334.22 769.903 1334.2 768.722 1334.18 767.505 C 1334.16 766.24 1334.14 764.976 1334.13 763.673 C 1334.11 762.37 1334.09 761.068 1334.06 759.726 C 1334.01 756.275 1333.96 752.824 1333.91 749.374 C 1333.86 745.848 1333.81 742.322 1333.75 738.796 C 1333.64 731.886 1333.54 724.977 1333.44 718.067 C 1332 718.2 1330.57 718.341 1329.13 718.485 C 1328.33 718.563 1327.52 718.64 1326.7 718.72 C 1323.69 719.182 1321.79 720.148 1319.44 722.067 C 1317.59 725.079 1317.19 727.365 1317.17 730.876 C 1317.16 731.828 1317.15 732.78 1317.14 733.76 C 1317.14 734.783 1317.14 735.806 1317.13 736.86 C 1317.11 739.039 1317.08 741.218 1317.06 743.397 C 1317.03 746.822 1317.01 750.248 1316.99 753.673 C 1316.96 756.985 1316.92 760.298 1316.88 763.61 C 1316.88 764.623 1316.88 765.636 1316.88 766.679 C 1316.78 774.199 1315.93 780.893 1311.19 786.942 C 1303.53 792.868 1296.36 792.527 1286.94 792.442 C 1285.65 792.454 1284.36 792.465 1283.03 792.477 C 1274.74 792.452 1269.17 792.131 1262.63 786.755 C 1258.14 781.235 1258.17 775.873 1258.44 769.067 C 1248.48 770.247 1248.48 770.247 1240.41 775.383 C 1239.24 777.911 1238.31 780.421 1237.44 783.067 C 1232.97 790.006 1226.29 793.2 1218.44 795.067 C 1207.15 796.117 1198.09 795.043 1189.13 787.88 C 1185.22 784.212 1182.53 779.998 1180.44 775.067 C 1180.44 774.407 1180.44 773.747 1180.44 773.067 C 1179.45 773.397 1178.46 773.727 1177.44 774.067 C 1169.55 774.47 1162.01 774.538 1154.44 772.067 C 1153.89 772.719 1153.33 773.372 1152.76 774.044 C 1140.83 787.702 1127.85 794.038 1109.82 795.817 C 1091.34 796.914 1074.71 791.5 1060.26 779.942 C 1054.7 774.839 1049.81 767.808 1046.44 761.067 C 1045.7 762.227 1045.7 762.227 1044.94 763.411 C 1035.02 778.617 1023.59 790.333 1005.41 794.813 C 994.939 796.781 984.923 795.438 974.443 794.067 C 974.453 794.631 974.464 795.195 974.474 795.776 C 974.516 798.373 974.542 800.97 974.568 803.567 C 974.585 804.454 974.601 805.341 974.619 806.255 C 974.714 819.201 974.714 819.201 970.638 824.344 C 969.955 824.892 969.272 825.44 968.568 826.005 C 967.89 826.57 967.212 827.136 966.513 827.719 C 964.449 829.063 962.851 829.641 960.443 830.067 C 960.443 830.727 960.443 831.387 960.443 832.067 C 961.522 832.044 961.522 832.044 962.623 832.019 C 984.141 831.611 1002.61 831.831 1019.12 847.571 C 1024.85 853.733 1029.49 860.657 1033.44 868.067 C 1033.81 867.34 1034.17 866.613 1034.55 865.864 C 1043.18 849.834 1055.68 839.552 1072.99 834.048 C 1087.73 829.861 1104.11 830.831 1118.44 836.067 C 1119.18 836.321 1119.92 836.575 1120.68 836.837 C 1127.84 839.843 1133.69 845.98 1139.44 851.067 C 1139.61 850.403 1139.78 849.739 1139.96 849.055 C 1142.51 839.772 1142.51 839.772 1146.44 836.067 C 1150.44 833.796 1153.92 834.009 1158.44 834.067 C 1158.48 832.565 1158.48 832.565 1158.52 831.032 C 1158.84 822.698 1159.21 816.613 1165.13 810.255 C 1172.49 806.474 1181.35 806.458 1189.44 806.067 C 1191.26 805.968 1191.26 805.968 1193.11 805.868 C 1206.2 805.461 1206.2 805.461 1211.44 810.067 C 1216.34 815.658 1215.99 822.925 1216.17 829.969 C 1216.31 831.503 1216.31 831.503 1216.44 833.067 C 1219.2 834.445 1221.62 834.257 1224.69 834.38 C 1230.02 834.767 1233.48 835.212 1237.44 839.067 C 1240.7 843.947 1241.49 849.377 1242.44 855.067 C 1243.1 855.067 1243.76 855.067 1244.44 855.067 C 1245.8 853.585 1247.1 852.055 1248.38 850.505 C 1257.63 840.076 1270.55 833.695 1284.44 832.067 C 1303.03 831.033 1321.18 831.467 1335.98 844.412 C 1339.28 847.497 1342.37 850.758 1345.44 854.067 C 1346.44 855.072 1347.43 856.075 1348.44 857.067 C 1348.55 856.259 1348.66 855.451 1348.78 854.618 C 1348.93 853.549 1349.09 852.481 1349.26 851.38 C 1349.41 850.324 1349.56 849.268 1349.71 848.18 C 1351.18 841.934 1354.45 838.736 1359.44 835.067 C 1364.95 833.158 1371.2 833.841 1376.94 833.817 C 1378.16 833.796 1379.38 833.776 1380.63 833.755 C 1386.73 833.729 1392.09 834.064 1397.98 835.727 C 1402.32 836.952 1402.32 836.952 1406.75 836.266 C 1407.6 835.767 1408.44 835.269 1409.32 834.755 C 1416.46 831.264 1424.08 830.382 1431.78 832.801 C 1436.16 835.055 1438.5 838.171 1440 842.779 C 1441 847.953 1440.71 853.342 1440.74 858.601 C 1440.75 860.071 1440.77 861.542 1440.8 863.011 C 1441.13 879.536 1441.13 879.536 1436.44 885.067 C 1431.39 889.491 1425.93 890.304 1419.54 891.489 C 1415.06 892.412 1412.31 893.223 1409.44 897.067 C 1408.45 900.057 1408.32 902.025 1408.32 905.146 C 1408.31 906.181 1408.31 907.216 1408.31 908.282 C 1408.3 909.961 1408.3 909.961 1408.3 911.673 C 1408.28 914.042 1408.26 916.411 1408.24 918.78 C 1408.21 922.515 1408.19 926.249 1408.19 929.984 C 1408.19 933.589 1408.15 937.193 1408.12 940.798 C 1408.12 941.906 1408.13 943.015 1408.14 944.157 C 1408.03 950.957 1407.11 955.917 1402.44 961.067 C 1395.39 966.601 1387.65 966.249 1379.13 966.255 C 1378.12 966.267 1377.12 966.279 1376.08 966.292 C 1367.62 966.308 1360.18 965.731 1353.44 960.067 C 1350.03 955.68 1348.89 951.544 1348.44 946.067 C 1347.92 946.636 1347.4 947.204 1346.86 947.79 C 1335.63 959.568 1321.28 967.14 1304.8 968.244 C 1279.52 968.793 1279.52 968.793 1268.44 964.067 C 1267.5 963.666 1266.56 963.265 1265.58 962.852 C 1255.75 958.06 1247.21 950.338 1241.44 941.067 C 1241.33 942.008 1241.22 942.949 1241.11 943.919 C 1240.95 945.164 1240.79 946.409 1240.63 947.692 C 1240.48 948.922 1240.33 950.152 1240.17 951.419 C 1239.21 956.216 1237.68 959.753 1234.32 963.317 C 1226.61 968.009 1217.29 967.403 1208.57 967.38 C 1206.76 967.404 1206.76 967.404 1204.92 967.428 C 1191.58 967.436 1180.99 964.417 1170.69 955.755 C 1161.04 944.224 1159.03 934.163 1158.82 919.255 C 1158.77 916.685 1158.71 914.116 1158.65 911.548 C 1158.63 909.86 1158.63 909.86 1158.6 908.138 C 1158.42 902.531 1158.42 902.531 1155.44 898.067 C 1155.32 899.8 1155.32 899.8 1155.19 901.567 C 1154.39 907.763 1152.17 912.896 1147.32 916.942 C 1146.37 917.643 1145.42 918.345 1144.44 919.067 C 1143.78 919.727 1143.12 920.387 1142.44 921.067 C 1142.86 921.61 1143.29 922.152 1143.72 922.712 C 1144.27 923.427 1144.82 924.142 1145.38 924.88 C 1146.2 925.941 1146.2 925.941 1147.03 927.024 C 1149.75 930.959 1149.83 934.4 1149.44 939.067 C 1146.56 948.799 1137.6 954.926 1129.14 959.692 C 1111.07 968.896 1091.16 971.476 1071.53 966.055 C 1055.16 960.683 1044.11 950.929 1035.07 936.473 C 1033.67 933.975 1033.67 933.975 1031.44 933.067 C 1031.37 933.624 1031.29 934.181 1031.22 934.755 C 1029.43 945.123 1022.7 951.924 1014.44 958.067 C 997.129 968.863 977.106 970.767 957.443 967.067 C 941.155 963.161 928.348 954.021 919.318 939.942 C 918.346 938.325 917.382 936.703 916.443 935.067 C 916.405 936.141 916.368 937.215 916.329 938.321 C 916.264 939.757 916.197 941.193 916.13 942.63 C 916.108 943.334 916.085 944.039 916.062 944.764 C 915.742 951.083 914.28 955.822 910.193 960.817 C 902.794 966.87 895.685 966.528 886.443 966.442 C 885.198 966.454 883.952 966.465 882.669 966.477 C 874.44 966.451 868.667 966.292 862.63 960.255 C 859.304 955.408 858.201 951.084 858.14 945.249 C 858.123 944.127 858.106 943.006 858.089 941.851 C 858.077 940.055 858.077 940.055 858.064 938.223 C 858.047 936.981 858.03 935.738 858.012 934.458 C 857.968 931.166 857.932 927.874 857.9 924.582 C 857.854 919.946 857.798 915.311 857.737 910.676 C 857.706 908.212 857.679 905.748 857.657 903.284 C 857.644 902.162 857.63 901.041 857.616 899.885 C 857.607 898.904 857.597 897.923 857.588 896.912 C 857.434 893.902 856.992 891.029 856.443 888.067 C 854.463 888.067 852.483 888.067 850.443 888.067 C 849.707 897.427 849.347 906.75 849.232 916.137 C 849.218 917.196 849.203 918.255 849.189 919.347 C 849.131 923.75 849.076 928.154 849.041 932.558 C 849.014 935.814 848.968 939.069 848.919 942.325 C 848.916 943.316 848.913 944.306 848.909 945.327 C 848.815 950.644 848.46 954.495 845.443 959.067 C 837.747 966.428 831.33 966.407 821.13 966.38 C 819.932 966.396 818.734 966.412 817.499 966.428 C 803.229 966.436 803.229 966.436 797.93 961.721 C 793.58 956.839 792.202 952.352 792.14 945.932 C 792.123 944.717 792.106 943.503 792.089 942.251 C 792.077 940.298 792.077 940.298 792.064 938.305 C 792.048 936.95 792.03 935.594 792.012 934.238 C 791.967 930.68 791.932 927.122 791.9 923.563 C 791.848 917.857 791.783 912.151 791.712 906.445 C 791.689 904.452 791.673 902.459 791.657 900.466 C 791.644 899.261 791.63 898.056 791.616 896.814 C 791.607 895.75 791.597 894.686 791.588 893.59 C 791.61 891.072 791.61 891.072 790.443 889.067 C 788.793 889.067 787.143 889.067 785.443 889.067 C 784.119 891.714 784.304 893.726 784.285 896.691 C 784.275 897.869 784.265 899.048 784.254 900.262 C 784.247 901.542 784.239 902.822 784.232 904.141 C 784.211 906.147 784.19 908.152 784.168 910.157 C 784.115 915.109 784.071 920.062 784.041 925.014 C 784.024 927.789 784 930.563 783.967 933.338 C 783.936 935.951 783.916 938.564 783.909 941.177 C 783.809 948.431 783.656 954.232 778.829 959.993 C 778.269 960.45 777.708 960.908 777.13 961.38 C 776.301 962.085 776.301 962.085 775.454 962.805 C 768.822 966.965 761.601 966.4 754.068 966.38 C 752.277 966.404 752.277 966.404 750.451 966.428 C 736.229 966.436 736.229 966.436 730.93 961.721 C 725.628 955.77 725.144 950.68 725.443 943.067 C 724.851 943.416 724.259 943.766 723.65 944.126 C 722.86 944.581 722.069 945.036 721.255 945.505 C 720.478 945.957 719.701 946.409 718.9 946.876 C 711.299 950.561 702.536 949.116 694.443 948.067 C 694.102 948.636 693.762 949.204 693.411 949.79 C 687.425 959.327 680.156 965.496 669.443 969.067 C 656.806 969.89 647.34 969.351 637.193 961.067 C 629.67 953.864 625.788 945.435 625.443 935.067 C 624.515 935.15 623.586 935.232 622.63 935.317 C 613.946 935.247 606.536 931.247 600.388 925.352 C 592.666 916.282 591.924 906.533 592.443 895.067 C 593.449 885.752 597.737 877.937 604.564 871.567 C 610.221 867.051 616.405 865.305 623.443 864.067 C 623.65 863.233 623.858 862.399 624.072 861.54 C 627.301 849.742 632.891 841.505 643.443 835.067 C 657.143 828.798 673.273 827.717 687.513 832.813 C 699.719 838.037 707.366 845.389 712.533 857.684 C 714.258 862.201 714.563 865.97 714.505 870.755 C 714.501 871.456 714.496 872.158 714.492 872.882 C 714.48 874.61 714.462 876.339 714.443 878.067 C 715.35 878.356 716.258 878.645 717.193 878.942 C 719.774 879.835 722.031 880.819 724.443 882.067 C 724.457 881.109 724.472 880.152 724.487 879.165 C 724.545 875.579 724.623 871.993 724.705 868.407 C 724.738 866.862 724.766 865.316 724.789 863.77 C 725.075 844.925 725.075 844.925 729.752 839.568 C 736.753 833.162 744.922 833.731 753.818 833.755 C 755.608 833.73 755.608 833.73 757.435 833.706 C 764.237 833.702 769.224 834.347 775.443 837.067 C 780.155 836.899 784.061 835.601 788.353 833.786 C 799.365 829.999 812.593 831.54 823.443 835.067 C 826.206 836.581 828.732 838.177 831.259 840.055 C 833.44 841.352 833.44 841.352 835.892 840.391 C 836.734 839.954 837.575 839.517 838.443 839.067 C 839.294 838.665 840.144 838.263 841.021 837.848 C 841.903 837.426 842.784 837.003 843.693 836.567 C 857.574 830.309 872.969 830.332 887.443 835.067 C 890.84 836.685 893.584 838.632 896.443 841.067 C 897.202 841.694 897.961 842.32 898.744 842.966 C 905.48 849.057 908.772 855.903 912.443 864.067 C 913.102 865.404 913.764 866.74 914.443 868.067 C 914.748 867.484 915.054 866.902 915.369 866.301 C 923.332 852.034 935.876 839.744 951.443 834.067 C 954.236 833.938 954.236 833.938 956.443 834.067 C 956.113 833.407 955.783 832.747 955.443 832.067 C 953.793 832.397 952.143 832.727 950.443 833.067 C 950.443 832.407 950.443 831.747 950.443 831.067 C 949.32 831.09 948.197 831.113 947.04 831.137 C 925.889 831.449 925.889 831.449 918.443 825.067 C 915.914 820.827 915.063 817.671 915.026 812.758 C 915.001 810.916 915.001 810.916 914.976 809.037 C 914.971 807.068 914.971 807.068 914.966 805.059 C 914.952 803.687 914.936 802.315 914.919 800.944 C 914.877 797.345 914.852 793.746 914.831 790.147 C 914.796 784.381 914.735 778.615 914.673 772.848 C 914.654 770.839 914.643 768.829 914.632 766.819 C 914.616 764.987 914.616 764.987 914.6 763.117 C 914.591 761.506 914.591 761.506 914.581 759.861 C 914.461 757.428 914.144 755.389 913.443 753.067 C 913.186 754.196 912.929 755.325 912.664 756.488 C 911.7 760.72 910.732 764.95 909.762 769.18 C 909.345 771.003 908.929 772.827 908.514 774.65 C 901.633 804.89 901.633 804.89 891.318 812.317 C 860.372 827.655 809.667 824.609 777.443 815.067 C 769.646 811.983 764.933 807.842 761.443 800.067 C 760.845 797.854 760.329 795.617 759.88 793.369 C 759.75 792.728 759.619 792.086 759.485 791.425 C 759.058 789.315 758.643 787.203 758.228 785.091 C 757.929 783.6 757.629 782.109 757.328 780.619 C 756.538 776.693 755.758 772.764 754.98 768.835 C 754.201 764.909 753.412 760.984 752.624 757.059 C 747.854 733.263 747.854 733.263 746.181 724.466 C 745.998 723.52 745.816 722.573 745.628 721.598 C 745.306 719.917 744.99 718.236 744.681 716.553 C 743.941 712.384 743.941 712.384 741.443 709.067 C 741.091 709.973 740.739 710.879 740.376 711.813 C 737.246 719.538 733.946 725.717 728.443 732.067 C 727.845 732.933 727.246 733.8 726.63 734.692 C 715.437 746.844 698.449 751.861 682.443 753.067 C 679.087 753.171 675.737 753.163 672.38 753.13 C 671.515 753.125 670.649 753.121 669.757 753.116 C 667.652 753.104 665.548 753.086 663.443 753.067 C 663.453 753.692 663.464 754.316 663.474 754.96 C 663.516 757.829 663.542 760.698 663.568 763.567 C 663.585 764.549 663.601 765.532 663.619 766.544 C 663.676 775.187 663.146 782.131 657.017 788.661 C 648.658 796.128 631.694 793.47 621.311 792.963 C 615.021 792.516 609.319 791.734 604.866 786.942 C 599.647 780.066 600.017 771.408 600.07 763.179 C 600.067 761.916 600.063 760.653 600.059 759.351 C 600.05 755.911 600.059 752.471 600.073 749.031 C 600.084 745.415 600.08 741.799 600.078 738.183 C 600.077 732.111 600.088 726.04 600.107 719.968 C 600.128 712.971 600.131 705.973 600.125 698.975 C 600.119 692.217 600.125 685.459 600.136 678.701 C 600.141 675.837 600.142 672.974 600.14 670.11 C 600.137 666.102 600.152 662.093 600.168 658.085 C 600.166 656.91 600.163 655.735 600.161 654.525 C 600.275 636.768 600.275 636.768 606.419 629.54 C 614.119 623.936 622.974 624.626 632.044 624.669 C 633.569 624.667 635.093 624.664 636.618 624.66 C 639.807 624.656 642.995 624.662 646.184 624.676 C 650.232 624.693 654.279 624.683 658.327 624.665 C 661.476 624.654 664.624 624.658 667.773 624.666 C 669.263 624.668 670.753 624.665 672.243 624.658 C 691.578 624.587 708.274 628.643 723.443 641.067 C 724.09 641.588 724.737 642.109 725.404 642.645 C 734.292 650.608 739.288 663.162 743.443 674.067 C 743.795 673.536 744.147 673.005 744.509 672.458 C 747.025 668.857 749.093 665.951 753.068 663.942 C 756.953 661.784 758.099 659.772 760.443 656.067 C 766.09 650.548 771.845 648.489 779.443 647.067 C 779.469 646.389 779.494 645.711 779.521 645.012 C 780.273 632.668 784.237 624.458 793.443 616.067 C 799.77 611.18 807.728 610.891 815.443 610.067 C 815.639 609.45 815.835 608.832 816.036 608.196 C 819.626 598.031 825.604 591.66 834.853 586.258 C 844.965 581.607 859.02 580.761 869.228 585.665 Z M 663.443 683.067 C 663.443 688.017 663.443 692.967 663.443 698.067 C 670.361 698.323 675.368 698.5 681.443 695.067 C 682.703 692.547 682.361 691.213 682.005 688.442 C 681.903 687.625 681.802 686.808 681.697 685.966 C 681.571 685.026 681.571 685.026 681.443 684.067 C 674.95 680.887 670.251 679.663 663.443 683.067 Z M 958.443 831.067 C 958.113 831.727 957.783 832.387 957.443 833.067 C 958.103 833.067 958.763 833.067 959.443 833.067 C 959.113 832.407 958.783 831.747 958.443 831.067 Z M 1154.44 885.067 C 1154.77 887.707 1155.1 890.347 1155.44 893.067 C 1156.43 892.077 1157.42 891.087 1158.44 890.067 C 1157.78 889.407 1157.12 888.747 1156.44 888.067 C 1155.78 887.077 1155.12 886.087 1154.44 885.067 Z M 1215.44 886.067 C 1215.16 890.143 1215.21 894.232 1215.19 898.317 C 1215.17 899.463 1215.15 900.609 1215.13 901.79 C 1215.13 902.897 1215.12 904.004 1215.12 905.145 C 1215.11 906.16 1215.1 907.175 1215.09 908.22 C 1215.5 911.533 1216.44 913.416 1218.44 916.067 C 1220.95 916.67 1220.95 916.67 1223.63 916.38 C 1224.53 916.334 1225.43 916.289 1226.36 916.243 C 1227.05 916.185 1227.73 916.127 1228.44 916.067 C 1230.54 912.612 1230.74 909.775 1230.86 905.77 C 1230.91 903.962 1230.91 903.962 1230.97 902.118 C 1231.02 900.236 1231.02 900.236 1231.07 898.317 C 1231.11 897.047 1231.14 895.778 1231.18 894.469 C 1231.28 891.335 1231.37 888.201 1231.44 885.067 C 1228.96 885.04 1226.48 885.02 1224.01 885.005 C 1223.3 884.996 1222.59 884.988 1221.86 884.979 C 1218.36 884.634 1218.36 884.634 1215.44 886.067 Z M 1028.44 923.067 C 1029.44 925.067 1029.44 925.067 1029.44 925.067 L 1028.44 923.067 Z M 1029.44 925.067 C 1030.44 928.067 1030.44 928.067 1030.44 928.067 L 1029.44 925.067 Z M 1030.44 928.067 C 1030.77 929.387 1031.1 930.707 1031.44 932.067 C 1031.77 931.407 1032.1 930.747 1032.44 930.067 C 1031.78 929.407 1031.12 928.747 1030.44 928.067 Z" fill="#493513"/>
    <path d="M 991.005 669.817 C 991.957 669.796 992.909 669.776 993.89 669.755 C 1006.94 669.684 1018.13 674.484 1027.79 683.262 C 1041.46 698.196 1043.08 716.19 1042.58 735.391 C 1041.86 749.853 1034.39 762.859 1024.44 773.067 C 1014.87 781.253 1002.59 785.465 990.083 785.278 C 981.025 784.554 972.473 780.47 965.658 774.505 C 964.443 773.067 964.443 773.067 964.443 771.067 C 963.783 771.067 963.123 771.067 962.443 771.067 C 962.773 771.727 963.103 772.387 963.443 773.067 C 963.552 774.44 963.602 775.817 963.62 777.194 C 963.639 778.47 963.639 778.47 963.659 779.773 C 963.666 780.694 963.673 781.614 963.681 782.563 C 963.689 783.508 963.697 784.452 963.705 785.425 C 963.719 787.425 963.73 789.425 963.738 791.425 C 963.755 794.489 963.799 797.552 963.843 800.616 C 963.853 802.557 963.862 804.497 963.869 806.438 C 963.886 807.357 963.904 808.276 963.922 809.222 C 963.9 815.473 963.9 815.473 961.844 818.144 C 958.655 819.37 956.014 819.456 952.595 819.466 C 951.615 819.47 951.615 819.47 950.616 819.474 C 949.24 819.476 947.864 819.471 946.488 819.458 C 944.383 819.442 942.28 819.458 940.175 819.477 C 938.836 819.475 937.497 819.471 936.158 819.466 C 934.942 819.462 933.726 819.459 932.474 819.455 C 929.443 819.067 929.443 819.067 927.777 817.899 C 925.908 815.334 926.065 813.532 926.062 810.374 C 926.053 809.187 926.045 808.001 926.036 806.779 C 926.042 805.476 926.048 804.173 926.055 802.831 C 926.051 801.446 926.045 800.061 926.039 798.677 C 926.025 794.914 926.03 791.152 926.04 787.39 C 926.047 783.455 926.04 779.521 926.036 775.586 C 926.03 768.979 926.037 762.371 926.052 755.764 C 926.068 748.121 926.063 740.478 926.046 732.835 C 926.033 726.277 926.031 719.719 926.038 713.161 C 926.043 709.242 926.044 705.324 926.034 701.405 C 926.025 697.721 926.031 694.038 926.049 690.354 C 926.054 688.354 926.045 686.355 926.036 684.355 C 926.045 683.169 926.053 681.983 926.062 680.761 C 926.063 679.727 926.064 678.694 926.065 677.63 C 926.443 675.067 926.443 675.067 927.779 673.274 C 932.498 669.851 938.767 670.843 944.318 670.817 C 945.407 670.796 946.496 670.776 947.619 670.755 C 948.672 670.749 949.725 670.744 950.81 670.739 C 952.25 670.725 952.25 670.725 953.72 670.711 C 956.954 671.134 958.816 672.164 961.443 674.067 C 962.755 676.255 962.755 676.255 963.443 678.067 C 964.419 677.573 965.394 677.08 966.4 676.571 C 967.685 675.924 968.97 675.277 970.255 674.63 C 970.898 674.304 971.54 673.979 972.203 673.643 C 978.865 670.295 983.677 669.856 991.005 669.817 Z" fill="#FCD24C"/>
    <path d="M 888.536 848.512 C 897.693 855.98 902.536 865.42 904.443 877.067 C 904.544 879.503 904.591 881.942 904.604 884.38 C 904.609 885.098 904.614 885.815 904.619 886.555 C 904.633 888.916 904.64 891.276 904.646 893.637 C 904.652 895.282 904.657 896.927 904.663 898.572 C 904.674 902.013 904.679 905.454 904.683 908.896 C 904.688 913.309 904.713 917.722 904.741 922.135 C 904.76 925.528 904.765 928.922 904.766 932.316 C 904.769 933.943 904.777 935.571 904.791 937.198 C 904.808 939.47 904.806 941.741 904.799 944.013 C 904.805 945.952 904.805 945.952 904.81 947.931 C 904.443 951.067 904.443 951.067 903.045 952.945 C 898.2 956.337 892.276 955.293 886.568 955.317 C 884.771 955.348 884.771 955.348 882.939 955.38 C 881.212 955.387 881.212 955.387 879.451 955.395 C 878.395 955.405 877.339 955.414 876.252 955.424 C 872.955 955.005 871.786 954.398 869.443 952.067 C 868.944 949.413 868.944 949.413 868.944 946.178 C 868.934 944.966 868.924 943.754 868.914 942.505 C 868.922 941.193 868.93 939.88 868.939 938.528 C 868.931 937.164 868.922 935.8 868.91 934.435 C 868.884 930.838 868.878 927.242 868.879 923.645 C 868.882 917.91 868.867 912.175 868.824 906.439 C 868.814 904.447 868.823 902.455 868.833 900.463 C 868.794 893.655 868.66 887.22 865.443 881.067 C 861.846 877.558 859.175 875.919 854.193 875.817 C 849.877 875.893 847.025 876.484 843.443 879.067 C 838.9 884.833 838.32 891.019 838.317 898.208 C 838.313 899.4 838.309 900.591 838.305 901.818 C 838.304 903.09 838.303 904.362 838.302 905.673 C 838.284 908.374 838.264 911.075 838.244 913.776 C 838.213 918.029 838.19 922.282 838.192 926.536 C 838.193 929.317 838.181 932.099 838.153 934.88 C 838.128 937.498 838.122 940.116 838.136 942.733 C 838.12 943.915 838.103 945.096 838.086 946.314 C 838.083 947.355 838.079 948.396 838.075 949.469 C 837.443 952.067 837.443 952.067 835.072 953.903 C 832.114 955.212 830.069 955.44 826.845 955.43 C 825.796 955.43 824.748 955.429 823.667 955.428 C 822.583 955.412 821.498 955.396 820.38 955.38 C 819.292 955.383 818.203 955.386 817.081 955.389 C 807.959 955.328 807.959 955.328 804.443 953.067 C 803.087 950.355 803.311 948.22 803.301 945.184 C 803.29 943.331 803.29 943.331 803.28 941.44 C 803.278 940.778 803.276 940.115 803.274 939.433 C 803.267 937.355 803.251 935.278 803.233 933.2 C 803.18 927.293 803.132 921.385 803.117 915.477 C 803.107 911.863 803.077 908.25 803.036 904.636 C 803.023 903.264 803.018 901.891 803.02 900.519 C 803.031 891.943 802.9 885.127 796.996 878.424 C 794.132 875.922 791.144 875.883 787.505 875.817 C 786.651 875.791 785.796 875.766 784.915 875.739 C 781.968 876.13 780.707 877.209 778.443 879.067 C 777.783 879.067 777.123 879.067 776.443 879.067 C 773.23 886.923 773.017 893.941 773.036 902.368 C 773.027 903.735 773.016 905.103 773.004 906.471 C 772.961 911.506 772.95 916.541 772.937 921.576 C 772.926 925.852 772.902 930.127 772.863 934.403 C 772.849 936.399 772.854 938.395 772.858 940.392 C 772.848 941.604 772.838 942.816 772.828 944.064 C 772.825 945.13 772.823 946.195 772.821 947.293 C 772.393 950.43 771.606 951.794 769.443 954.067 C 764.427 956.082 758.257 955.335 752.943 955.38 C 751.802 955.409 750.661 955.438 749.486 955.467 C 748.389 955.476 747.292 955.484 746.161 955.493 C 745.161 955.507 744.16 955.522 743.128 955.537 C 739.638 954.926 738.496 953.931 736.443 951.067 C 735.973 948.397 735.973 948.397 736.017 945.383 C 736.025 944.291 736.034 943.199 736.042 942.073 C 736.071 940.937 736.1 939.8 736.13 938.63 C 736.14 937.497 736.15 936.365 736.16 935.198 C 736.226 930.329 736.464 925.838 737.443 921.067 C 737.528 919.641 737.573 918.211 737.576 916.782 C 737.577 916.004 737.578 915.226 737.579 914.424 C 737.576 913.626 737.572 912.827 737.568 912.005 C 737.572 911.202 737.575 910.4 737.579 909.573 C 737.578 908.796 737.577 908.02 737.576 907.219 C 737.574 906.518 737.573 905.817 737.572 905.094 C 737.512 903.08 737.512 903.08 736.945 901.252 C 736.382 898.803 736.301 896.599 736.282 894.087 C 736.272 893.099 736.262 892.111 736.253 891.093 C 736.248 890.033 736.244 888.972 736.24 887.88 C 736.234 886.785 736.228 885.69 736.222 884.562 C 736.213 882.249 736.206 879.936 736.203 877.623 C 736.193 874.081 736.162 870.539 736.13 866.997 C 736.124 864.749 736.118 862.502 736.115 860.255 C 736.102 859.194 736.09 858.134 736.077 857.041 C 736.08 856.053 736.083 855.065 736.086 854.048 C 736.081 852.747 736.081 852.747 736.075 851.419 C 736.526 848.532 737.428 847.161 739.443 845.067 C 742.29 844.549 742.29 844.549 745.72 844.536 C 746.956 844.531 748.191 844.526 749.464 844.52 C 750.757 844.536 752.049 844.551 753.38 844.567 C 755.313 844.544 755.313 844.544 757.285 844.52 C 758.521 844.525 759.758 844.531 761.033 844.536 C 762.732 844.543 762.732 844.543 764.466 844.549 C 768.09 845.18 769.261 846.15 771.443 849.067 C 772.193 852.817 772.193 852.817 772.443 856.067 C 773.121 855.464 773.799 854.861 774.497 854.239 C 786.125 844.254 795.164 841.861 810.253 842.848 C 818.78 843.7 824.242 847.054 829.982 853.262 C 831.443 855.067 831.443 855.067 832.443 857.067 C 835.791 855.607 838.013 853.719 840.63 851.192 C 853.581 839.437 874.086 838.504 888.536 848.512 Z" fill="#FCD24C"/>
    <path d="M 624.227 634.679 C 625.976 634.665 625.976 634.665 627.76 634.65 C 629.021 634.656 630.281 634.662 631.579 634.669 C 632.887 634.666 634.195 634.663 635.543 634.66 C 638.32 634.656 641.096 634.662 643.873 634.676 C 647.38 634.693 650.887 634.683 654.395 634.666 C 678.565 634.564 700.753 634.72 719.482 651.942 C 728.732 661.722 732.85 674.075 732.755 687.317 C 732.75 688.151 732.744 688.985 732.738 689.845 C 732.469 703.633 728.346 716.319 718.693 726.442 C 700.39 743.538 677.043 742.407 653.443 743.067 C 653.428 744.076 653.414 745.085 653.399 746.125 C 653.341 749.875 653.263 753.624 653.18 757.374 C 653.147 758.995 653.119 760.617 653.096 762.239 C 653.063 764.573 653.01 766.906 652.954 769.239 C 652.945 770.324 652.945 770.324 652.935 771.43 C 652.846 774.496 652.604 776.762 651.161 779.494 C 646.284 783.96 637.663 782.292 631.505 782.317 C 630.23 782.338 628.954 782.358 627.64 782.38 C 625.796 782.387 625.796 782.387 623.915 782.395 C 622.794 782.405 621.673 782.414 620.517 782.424 C 617.054 782.022 615.19 781.189 612.443 779.067 C 611.42 775.999 611.312 773.904 611.302 770.691 C 611.297 769.575 611.291 768.459 611.285 767.309 C 611.284 766.084 611.283 764.859 611.282 763.597 C 611.277 762.307 611.272 761.018 611.267 759.689 C 611.253 756.15 611.247 752.61 611.243 749.071 C 611.24 746.86 611.236 744.648 611.231 742.437 C 611.217 735.518 611.208 728.598 611.204 721.679 C 611.199 713.692 611.182 705.706 611.153 697.719 C 611.131 691.545 611.121 685.371 611.12 679.197 C 611.119 675.51 611.113 671.822 611.095 668.135 C 611.075 664.022 611.08 659.909 611.086 655.796 C 611.077 654.575 611.068 653.354 611.058 652.096 C 611.064 650.975 611.07 649.853 611.075 648.697 C 611.074 647.725 611.072 646.753 611.071 645.751 C 611.628 641.732 613.402 639.086 616.269 636.279 C 619.069 634.718 621.026 634.686 624.227 634.679 Z M 663.443 683.067 C 663.443 688.017 663.443 692.967 663.443 698.067 C 670.361 698.323 675.368 698.5 681.443 695.067 C 682.703 692.547 682.361 691.213 682.005 688.442 C 681.903 687.625 681.802 686.808 681.697 685.966 C 681.571 685.026 681.571 685.026 681.443 684.067 C 674.95 680.887 670.251 679.663 663.443 683.067 Z" fill="#FBD14B"/>
    <path d="M 865.443 596.067 C 870.177 599.165 873.655 602.6 875.443 608.067 C 876.146 616.661 876.146 616.661 874.443 620.067 C 879.206 618.182 883.37 615.975 887.646 613.153 C 891.564 610.785 894.962 610.7 899.443 611.067 C 905.142 612.765 908.736 615.643 911.595 620.856 C 913.313 625.337 913.415 629.561 911.673 634.051 C 909.782 637.578 907.415 640.413 904.443 643.067 C 905.247 642.902 906.051 642.737 906.88 642.567 C 918.356 640.956 918.356 640.956 923.443 644.067 C 925.924 647.061 926.435 648.651 926.505 652.567 C 925.193 656.889 923.214 658.829 919.443 661.067 C 911.612 665.163 903.913 664.509 895.443 663.067 C 898.267 669.581 900.929 673.036 907.454 675.997 C 909.443 677.067 909.443 677.067 911.443 680.067 C 911.906 684.24 911.892 686.354 909.63 689.942 C 907.443 692.067 907.443 692.067 904.443 693.067 C 902.339 693.007 900.235 692.944 898.133 692.85 C 889.481 692.194 889.481 692.194 882.068 695.942 C 881.627 696.476 881.186 697.009 880.732 697.559 C 878.493 700.178 876.274 700.969 872.892 701.368 C 863.956 701.406 857.997 698.538 850.443 694.067 C 850.102 694.526 849.762 694.985 849.411 695.458 C 845.061 700.966 840.894 704.36 833.837 705.481 C 825.893 705.907 819.483 703.382 813.353 698.352 C 812.723 697.928 812.092 697.504 811.443 697.067 C 808.529 697.766 806.113 698.732 803.443 700.067 C 801.509 700.216 799.569 700.288 797.63 700.317 C 796.074 700.356 796.074 700.356 794.486 700.395 C 790.03 699.915 787.42 698.28 784.63 694.817 C 782.437 692.643 782.437 692.643 778.849 693.438 C 778.137 693.545 777.425 693.651 776.692 693.761 C 773.05 694.257 769.426 694.33 765.755 694.38 C 765.022 694.409 764.29 694.438 763.535 694.467 C 759.869 694.51 757.649 694.188 754.466 692.317 C 752.277 689.882 751.738 688.975 751.755 685.755 C 752.017 681.213 753.577 678.715 756.716 675.508 C 759.609 673.094 762.594 671.067 766.443 671.067 C 766.484 670.18 766.525 669.293 766.568 668.38 C 767.736 663.956 769.727 662.617 773.443 660.067 C 775.38 659.255 775.38 659.255 777.443 659.067 C 778.536 658.902 779.629 658.737 780.755 658.567 C 785.432 659.201 786.565 660.86 789.619 664.243 C 793.169 667.794 797.361 669.796 802.318 670.442 C 804.653 670.239 804.653 670.239 806.443 668.067 C 807.085 665.998 807.085 665.998 807.443 664.067 C 806.597 664.026 805.751 663.985 804.88 663.942 C 799.254 662.51 795.744 659.215 792.763 654.294 C 790.309 648.297 790.285 641.045 792.099 634.813 C 794.974 629.274 800.656 624.38 806.443 622.067 C 814.183 621.116 819.824 621.994 826.443 626.067 C 826.385 625.245 826.327 624.422 826.267 623.575 C 825.903 614.575 827.119 608.267 832.947 601.258 C 841.879 592.628 854.391 590.854 865.443 596.067 Z" fill="#FEEC93"/>
    <path d="M 686.052 843.758 C 694.937 848.622 700.325 854.217 703.443 864.067 C 704.501 871.704 703.714 878.115 700.443 885.067 C 701 885.081 701.556 885.095 702.13 885.11 C 709.833 885.591 714.442 888.476 720.193 893.442 C 727.032 901.421 728.227 908.887 727.674 919.073 C 726.999 924.896 724.075 929.346 720.13 933.505 C 714.311 936.888 709.48 938.779 702.677 937.712 C 696.823 936.023 692.031 931.938 687.443 928.067 C 687.417 928.768 687.391 929.47 687.365 930.192 C 686.788 939.844 684.327 945.946 677.24 952.594 C 671.735 957.106 665.697 958.482 658.685 958.337 C 652.228 957.56 646.943 955.073 642.505 950.317 C 638.194 944.826 635.824 939.246 636.076 932.141 C 636.643 928.938 637.98 926.214 639.47 923.341 C 640.637 920.612 641.044 917.997 641.443 915.067 C 640.744 915.561 640.045 916.054 639.326 916.563 C 638.415 917.204 637.505 917.844 636.568 918.505 C 635.663 919.143 634.758 919.781 633.826 920.438 C 628.424 924.131 622.829 923.62 616.443 923.067 C 610.844 920.468 606.634 916.039 604.322 910.27 C 602.071 902.068 602.653 893.648 606.443 886.067 C 609.504 881.005 613.908 877.989 619.443 876.067 C 625.168 875.47 630.886 875.425 636.443 877.067 C 636.113 876.077 635.783 875.087 635.443 874.067 C 634.543 865.623 635.5 859.074 640.443 852.067 C 651.112 839.783 671.595 837.351 686.052 843.758 Z" fill="#FDE88A"/>
    <path d="M 1007.44 851.067 C 1016.93 858.698 1021.75 868.695 1025.44 880.067 C 1025.77 881.057 1026.1 882.047 1026.44 883.067 C 1026.7 886.896 1026.67 890.73 1026.69 894.567 C 1026.71 895.625 1026.73 896.684 1026.76 897.774 C 1026.76 899.296 1026.76 899.296 1026.77 900.848 C 1026.78 901.777 1026.79 902.706 1026.8 903.663 C 1026.44 906.067 1026.44 906.067 1025.33 907.696 C 1022.53 909.731 1020.3 909.427 1016.86 909.408 C 1016.2 909.408 1015.53 909.409 1014.85 909.409 C 1012.66 909.407 1010.47 909.384 1008.27 909.36 C 1006.75 909.354 1005.23 909.35 1003.71 909.347 C 999.714 909.336 995.714 909.306 991.715 909.273 C 987.632 909.242 983.55 909.229 979.468 909.214 C 971.46 909.181 963.451 909.13 955.443 909.067 C 955.741 910.32 956.038 911.573 956.345 912.864 C 956.596 913.921 956.596 913.921 956.853 915 C 958.008 919.049 959.765 921.898 963.247 924.325 C 970.531 928.14 978.589 928.293 986.474 926.301 C 990.663 924.851 994.478 923.132 998.255 920.817 C 1001.9 918.816 1003.38 918.155 1007.44 919.067 C 1010.38 921.133 1012.88 923.553 1015.44 926.067 C 1016.06 926.603 1016.68 927.14 1017.32 927.692 C 1019 929.192 1019 929.192 1021.44 932.067 C 1021.04 937.912 1017.56 941.238 1013.44 945.067 C 998.217 956.71 982.01 958.305 963.443 957.067 C 958.848 956.406 954.673 954.967 950.443 953.067 C 949.642 952.716 948.842 952.366 948.017 952.005 C 933.365 944.717 925.747 932.007 920.443 917.067 C 917.414 904.17 917.433 886.974 923.443 875.067 C 923.867 874.144 924.291 873.221 924.728 872.27 C 931.691 858.227 942.612 849.434 957.056 843.794 C 973.781 838.702 993.04 841.414 1007.44 851.067 Z" fill="#FCD24C"/>
    <path d="M 1295.19 841.755 C 1296.17 841.76 1297.15 841.766 1298.16 841.772 C 1309.65 841.965 1317.98 844.476 1327.44 851.067 C 1328.08 851.508 1328.72 851.949 1329.38 852.403 C 1339.52 860.218 1344.27 872.821 1346.44 885.067 C 1346.7 888.607 1346.72 892.144 1346.76 895.692 C 1346.8 897.123 1346.8 897.123 1346.84 898.583 C 1346.85 899.498 1346.86 900.413 1346.87 901.356 C 1346.88 902.188 1346.9 903.021 1346.91 903.878 C 1346.44 906.067 1346.44 906.067 1344.82 907.683 C 1341.72 909.491 1339.6 909.428 1336.02 909.408 C 1334.07 909.407 1334.07 909.407 1332.08 909.407 C 1330.66 909.392 1329.25 909.376 1327.83 909.36 C 1326.38 909.354 1324.93 909.35 1323.48 909.347 C 1319.66 909.336 1315.85 909.306 1312.04 909.273 C 1308.14 909.242 1304.25 909.229 1300.35 909.214 C 1292.72 909.181 1285.08 909.13 1277.44 909.067 C 1277.72 910.509 1278.01 911.949 1278.3 913.387 C 1278.54 914.59 1278.54 914.59 1278.79 915.818 C 1280.13 920.436 1283.46 922.496 1287.44 924.817 C 1296.45 928.57 1304.55 927.478 1313.58 924.298 C 1316.93 922.857 1319.76 921.073 1322.63 918.825 C 1324.44 918.067 1324.44 918.067 1326.77 918.61 C 1330.14 920.449 1332.96 922.712 1335.82 925.255 C 1336.65 925.94 1336.65 925.94 1337.51 926.639 C 1339.09 928.048 1339.09 928.048 1341.44 931.067 C 1341.49 936.978 1339.64 939.961 1335.71 944.083 C 1323.9 954.427 1310.41 957.385 1295.19 957.505 C 1294.19 957.515 1293.18 957.525 1292.14 957.536 C 1278.52 957.375 1266.38 952.426 1256.44 943.067 C 1244.96 929.792 1239.74 914.319 1240.16 896.833 C 1241.4 880.463 1246.77 866.206 1258.79 854.844 C 1269.49 845.764 1281.27 841.672 1295.19 841.755 Z" fill="#FCD24C"/>
    <path d="M 1122.44 850.067 C 1133.45 858.343 1140.54 869.321 1143.15 882.952 C 1143.74 887.208 1143.84 891.464 1143.88 895.755 C 1143.89 896.629 1143.9 897.503 1143.91 898.403 C 1143.89 899.635 1143.89 899.635 1143.88 900.891 C 1143.87 901.624 1143.86 902.357 1143.85 903.113 C 1143.33 905.602 1142.39 906.481 1140.44 908.067 C 1137.63 909.473 1135.3 909.187 1132.16 909.181 C 1131.51 909.181 1130.87 909.181 1130.21 909.181 C 1128.07 909.18 1125.94 909.173 1123.81 909.165 C 1122.33 909.163 1120.86 909.161 1119.38 909.16 C 1115.49 909.157 1111.6 909.147 1107.71 909.136 C 1103.74 909.126 1099.77 909.121 1095.81 909.116 C 1088.02 909.105 1080.23 909.088 1072.44 909.067 C 1072.89 910.335 1073.35 911.6 1073.81 912.864 C 1074.06 913.569 1074.32 914.274 1074.58 915 C 1076.65 919.969 1079.86 923.035 1084.57 925.442 C 1093.39 928.933 1102.79 927.43 1111.44 924.067 C 1113.6 922.833 1115.6 921.541 1117.59 920.055 C 1120.24 918.639 1121.45 918.494 1124.44 919.067 C 1127.16 920.82 1129.46 922.928 1131.82 925.13 C 1132.47 925.691 1133.13 926.252 1133.8 926.831 C 1135.61 928.497 1137.1 930.005 1138.44 932.067 C 1138.53 935.773 1138.17 937.884 1136.24 941.036 C 1123.11 953.551 1108.47 957.682 1090.83 957.467 C 1074.06 956.972 1061.63 951.421 1049.93 939.176 C 1038.68 925.1 1036.4 908.528 1037.44 891.067 C 1039.49 874.862 1047.45 862.386 1060.01 852.192 C 1077.63 839.229 1104.09 837.174 1122.44 850.067 Z" fill="#FCD24C"/>
    <path d="M 1433.57 673.692 C 1443.11 681.571 1448.43 690.767 1450.44 703.067 C 1450.55 705.534 1450.6 708.003 1450.62 710.472 C 1450.63 711.199 1450.63 711.927 1450.64 712.676 C 1450.66 715.07 1450.67 717.463 1450.68 719.856 C 1450.68 720.675 1450.69 721.494 1450.69 722.338 C 1450.71 726.667 1450.73 730.995 1450.74 735.323 C 1450.75 739.797 1450.78 744.27 1450.82 748.743 C 1450.85 752.183 1450.86 755.623 1450.86 759.063 C 1450.87 760.713 1450.88 762.363 1450.9 764.013 C 1450.92 766.316 1450.92 768.618 1450.91 770.921 C 1450.92 772.232 1450.92 773.542 1450.93 774.893 C 1450.44 778.067 1450.44 778.067 1448.55 779.971 C 1443.22 782.745 1437.31 782.25 1431.44 782.255 C 1430.55 782.267 1429.66 782.279 1428.75 782.292 C 1420.26 782.311 1420.26 782.311 1416.44 780.067 C 1414.12 776.575 1414.19 775.196 1414.19 771.07 C 1414.18 769.835 1414.17 768.6 1414.17 767.327 C 1414.17 766.667 1414.17 766.007 1414.17 765.327 C 1414.17 763.254 1414.16 761.181 1414.14 759.107 C 1414.09 753.212 1414.07 747.317 1414.06 741.422 C 1414.06 737.814 1414.03 734.205 1414 730.597 C 1413.99 729.227 1413.98 727.858 1413.99 726.489 C 1414.02 718.651 1413.9 712.675 1409.44 706.067 C 1404.77 703.246 1400.86 702.466 1395.44 703.067 C 1392.68 704.475 1392.68 704.475 1390.44 706.067 C 1389.78 706.067 1389.12 706.067 1388.44 706.067 C 1387.76 707.39 1387.1 708.727 1386.44 710.067 C 1385.93 710.995 1385.42 711.923 1384.9 712.879 C 1382.52 718.489 1383 724.528 1383 730.516 C 1382.98 732.487 1382.96 734.458 1382.94 736.429 C 1382.91 739.175 1382.9 741.92 1382.89 744.665 C 1382.87 749.482 1382.84 754.299 1382.79 759.115 C 1382.76 761.676 1382.75 764.237 1382.74 766.798 C 1382.73 767.956 1382.72 769.115 1382.71 770.308 C 1382.71 771.326 1382.7 772.344 1382.7 773.393 C 1382.44 776.135 1381.94 777.77 1380.44 780.067 C 1376.14 782.217 1370.41 781.294 1365.64 781.307 C 1363.52 781.317 1361.39 781.348 1359.27 781.38 C 1357.92 781.386 1356.58 781.391 1355.23 781.395 C 1354 781.405 1352.77 781.414 1351.51 781.424 C 1348.44 781.067 1348.44 781.067 1346.78 779.81 C 1345.12 777.648 1345.06 776.525 1345.05 773.823 C 1345.04 772.958 1345.03 772.093 1345.01 771.202 C 1345.02 770.256 1345.02 769.31 1345.02 768.335 C 1345.01 767.336 1345.01 766.338 1345 765.309 C 1344.97 762 1344.97 758.692 1344.97 755.383 C 1344.97 753.088 1344.96 750.793 1344.95 748.497 C 1344.94 743.683 1344.94 738.869 1344.94 734.054 C 1344.95 727.879 1344.92 721.704 1344.88 715.529 C 1344.85 710.787 1344.85 706.046 1344.85 701.305 C 1344.85 699.027 1344.84 696.75 1344.82 694.473 C 1344.8 691.291 1344.81 688.111 1344.83 684.929 C 1344.81 683.985 1344.8 683.041 1344.79 682.068 C 1344.87 675.697 1344.87 675.697 1347.8 672.483 C 1350.98 670.782 1353.1 670.551 1356.7 670.536 C 1357.88 670.531 1359.07 670.526 1360.29 670.52 C 1362.13 670.543 1362.13 670.543 1364.01 670.567 C 1365.85 670.544 1365.85 670.544 1367.74 670.52 C 1368.92 670.525 1370.1 670.531 1371.32 670.536 C 1372.94 670.543 1372.94 670.543 1374.59 670.549 C 1378.09 671.184 1379.28 672.298 1381.44 675.067 C 1381.95 677.848 1381.63 680.213 1381.44 683.067 C 1382.1 683.067 1382.76 683.067 1383.44 683.067 C 1383.44 682.407 1383.44 681.747 1383.44 681.067 C 1397.94 668.141 1415.78 664.445 1433.57 673.692 Z" fill="#FCD24C"/>
    <path d="M 1227.99 675.61 C 1234.77 680.454 1239.66 686.826 1241.44 695.067 C 1242.3 703.222 1240.68 709.598 1237.44 717.067 C 1238.06 717.07 1238.68 717.072 1239.31 717.075 C 1246.4 717.399 1251.22 719.201 1256.44 724.067 C 1261.4 729.819 1262.12 735.541 1261.79 742.977 C 1261.14 748.714 1259.89 753.112 1255.38 757.005 C 1250.17 760.666 1245.74 760.984 1239.44 760.067 C 1236.12 758.433 1233.29 756.429 1230.44 754.067 C 1230.6 754.78 1230.76 755.493 1230.93 756.227 C 1231.97 761.995 1232.18 767.772 1230.38 773.38 C 1226.53 778.725 1222.03 782.722 1215.44 784.067 C 1208.92 784.708 1204.02 783.594 1198.44 780.067 C 1192.42 774.637 1191.44 770.265 1190.88 762.317 C 1190.8 761.147 1190.71 759.976 1190.63 758.77 C 1190.57 757.878 1190.51 756.986 1190.44 756.067 C 1189.43 756.699 1189.43 756.699 1188.4 757.344 C 1187.5 757.892 1186.61 758.44 1185.69 759.005 C 1184.81 759.55 1183.93 760.095 1183.02 760.657 C 1177.08 763.908 1169.7 764.229 1163.19 762.454 C 1157.01 759.712 1152.32 754.878 1149.34 748.829 C 1146.23 740.4 1146.71 732.207 1150.44 724.067 C 1155.09 716.95 1160.36 713.437 1168.44 711.067 C 1168.11 710.139 1167.78 709.211 1167.44 708.255 C 1165.51 701.245 1165.42 694.505 1168.44 687.817 C 1173.67 678.594 1182.27 673.408 1192.34 670.523 C 1204.1 667.972 1217.72 669.398 1227.99 675.61 Z" fill="#FEEA8F"/>
    <path d="M 1137.47 675.512 C 1141.23 678.546 1144.26 681.704 1146.44 686.067 C 1146.44 691.061 1144.74 693.456 1141.44 697.067 C 1138.71 699.294 1135.84 701.309 1132.94 703.317 C 1132.18 703.858 1131.42 704.4 1130.64 704.958 C 1123.84 709.723 1123.84 709.723 1120.44 710.067 C 1118.91 708.862 1117.39 707.648 1115.93 706.348 C 1112.05 703.014 1107.74 702.569 1102.79 702.684 C 1097.47 703.552 1093.69 706.759 1090.07 710.567 C 1085.81 717.118 1085.7 723.43 1086.44 731.067 C 1088.32 737.742 1092.44 741.686 1098.31 745.176 C 1103.24 747.236 1109.16 746.859 1114.14 745.133 C 1115.77 744.415 1117.38 743.655 1118.96 742.844 C 1122.62 741.7 1124.75 742.007 1128.44 743.067 C 1131.18 745.085 1133.44 747.454 1135.76 749.942 C 1136.38 750.58 1136.99 751.218 1137.63 751.876 C 1144.15 758.652 1144.15 758.652 1145.01 762.755 C 1144.01 768.639 1139.8 772.193 1135.26 775.805 C 1122.8 784.517 1107.06 786.243 1092.23 783.685 C 1076.86 780.006 1066.06 771.606 1057.76 758.505 C 1049.17 742.963 1047.54 723.535 1052.07 706.38 C 1052.8 704.255 1053.59 702.148 1054.44 700.067 C 1054.87 699.024 1055.29 697.981 1055.73 696.907 C 1061.46 684.285 1070.71 674.973 1083.63 669.786 C 1101.52 663.64 1121.64 664.226 1137.47 675.512 Z" fill="#FCD24C"/>
    <path d="M 1195.51 816.817 C 1197.38 816.778 1197.38 816.778 1199.29 816.739 C 1202.44 817.067 1202.44 817.067 1204.11 818.241 C 1205.94 820.742 1205.87 822.53 1205.95 825.61 C 1205.99 826.683 1206.03 827.756 1206.06 828.862 C 1206.1 830.541 1206.1 830.541 1206.13 832.255 C 1206.16 833.386 1206.2 834.517 1206.23 835.682 C 1206.32 838.477 1206.38 841.272 1206.44 844.067 C 1217.33 844.562 1217.33 844.562 1228.44 845.067 C 1230.56 849.295 1229.67 854.86 1229.69 859.505 C 1229.71 860.663 1229.73 861.821 1229.76 863.014 C 1229.76 864.678 1229.76 864.678 1229.77 866.376 C 1229.78 867.395 1229.79 868.414 1229.8 869.463 C 1229.38 872.542 1228.88 873.216 1226.44 875.067 C 1224.17 875.408 1224.17 875.408 1221.56 875.36 C 1220.62 875.35 1219.68 875.341 1218.71 875.331 C 1217.74 875.306 1216.76 875.28 1215.76 875.255 C 1214.77 875.241 1213.78 875.228 1212.76 875.214 C 1210.32 875.178 1207.88 875.129 1205.44 875.067 C 1205.49 881.082 1205.56 887.095 1205.65 893.109 C 1205.68 895.154 1205.7 897.198 1205.71 899.243 C 1205.73 902.187 1205.78 905.131 1205.83 908.075 C 1205.84 908.984 1205.84 909.894 1205.84 910.831 C 1205.97 916.517 1206.71 919.709 1210.44 924.067 C 1214.22 926.242 1217.89 926.401 1222.19 926.63 C 1228.34 926.967 1228.34 926.967 1229.44 928.067 C 1229.7 932.207 1229.63 936.358 1229.63 940.505 C 1229.64 941.676 1229.65 942.847 1229.67 944.053 C 1229.67 945.17 1229.67 946.287 1229.67 947.438 C 1229.68 948.469 1229.68 949.499 1229.69 950.561 C 1229.44 953.067 1229.44 953.067 1227.44 955.067 C 1221.92 957.01 1215.58 956.293 1209.82 956.317 C 1207.97 956.348 1207.97 956.348 1206.08 956.38 C 1194.86 956.427 1185.81 954.945 1177.44 947.067 C 1169.26 938.758 1168.99 926.308 1168.93 915.301 C 1168.9 913.562 1168.9 913.562 1168.88 911.788 C 1168.82 908.131 1168.79 904.474 1168.76 900.817 C 1168.72 898.318 1168.69 895.82 1168.65 893.321 C 1168.57 887.236 1168.5 881.152 1168.44 875.067 C 1167.38 875.03 1166.32 874.992 1165.23 874.954 C 1163.84 874.888 1162.46 874.822 1161.07 874.755 C 1160.37 874.732 1159.67 874.709 1158.95 874.686 C 1156.92 874.579 1156.92 874.579 1153.44 874.067 C 1151.2 870.702 1151.19 869.532 1151.18 865.594 C 1151.17 863.998 1151.17 863.998 1151.17 862.37 C 1151.18 861.259 1151.18 860.149 1151.19 859.005 C 1151.18 857.89 1151.18 856.776 1151.17 855.628 C 1151.17 854.565 1151.17 853.502 1151.18 852.407 C 1151.18 851.431 1151.18 850.455 1151.18 849.45 C 1151.44 847.067 1151.44 847.067 1153.44 845.067 C 1156.01 844.761 1158.49 844.556 1161.07 844.442 C 1162.13 844.384 1162.13 844.384 1163.21 844.325 C 1164.95 844.231 1166.7 844.148 1168.44 844.067 C 1168.46 843.487 1168.47 842.908 1168.49 842.31 C 1168.56 839.666 1168.66 837.023 1168.76 834.38 C 1168.78 833.468 1168.8 832.556 1168.82 831.616 C 1169.17 822.88 1169.17 822.88 1172.44 819.067 C 1179.7 816.648 1187.9 816.951 1195.51 816.817 Z" fill="#FBD14C"/>
    <path d="M 893.208 705.774 C 894.098 705.784 894.987 705.793 895.904 705.803 C 896.824 705.829 897.744 705.854 898.693 705.88 C 899.629 705.893 900.564 705.907 901.529 705.921 C 903.834 705.956 906.138 706.005 908.443 706.067 C 907.053 719.174 904.667 732.015 902.13 744.942 C 901.518 748.08 900.908 751.219 900.297 754.357 C 899.897 756.414 899.496 758.47 899.094 760.527 C 897.979 766.245 896.902 771.968 895.88 777.704 C 895.663 778.905 895.445 780.106 895.221 781.343 C 894.842 783.454 894.472 785.567 894.115 787.682 C 892.959 794.015 891.45 798.763 886.122 802.844 C 872.994 808.834 855.567 809.237 841.443 809.067 C 841.315 786.428 841.472 763.822 842.257 741.195 C 842.402 736.881 842.472 732.572 842.486 728.255 C 842.5 727.273 842.514 726.291 842.529 725.28 C 842.554 723.55 842.554 721.819 842.523 720.089 C 842.595 717.025 842.824 714.736 844.951 712.436 C 847.994 710.132 849.612 709.05 853.505 709.13 C 855.429 709.744 857.34 710.401 859.232 711.106 C 867.404 713.552 876.781 712.89 884.443 709.067 C 885.044 708.559 885.645 708.05 886.264 707.526 C 888.837 705.803 890.146 705.715 893.208 705.774 Z" fill="#D35822"/>
    <path d="M 754.443 706.067 C 776.673 705.07 776.673 705.07 785.443 711.067 C 792.066 713.275 798.684 712.475 805.193 710.255 C 809.832 708.816 809.832 708.816 812.583 709.946 C 814.443 711.317 814.443 711.317 816.005 712.77 C 817.528 714.318 817.528 714.318 820.443 715.067 C 821.928 761.597 821.928 761.597 823.443 809.067 C 785.552 809.067 785.552 809.067 774.029 798.87 C 771.34 795.814 770.784 792.609 770.103 788.678 C 769.938 787.858 769.773 787.038 769.603 786.193 C 769.067 783.499 768.571 780.8 768.076 778.098 C 767.709 776.215 767.34 774.332 766.969 772.45 C 766.001 767.505 765.067 762.555 764.14 757.602 C 763.191 752.569 762.21 747.543 761.232 742.516 C 759.806 735.166 758.393 727.813 757.006 720.456 C 756.789 719.31 756.789 719.31 756.568 718.141 C 755.813 714.123 755.098 710.102 754.443 706.067 Z" fill="#D25721"/>
    <path d="M 1426.44 842.067 C 1428.04 843.159 1428.04 843.159 1429.44 845.067 C 1429.82 848.206 1429.82 848.206 1429.81 852.036 C 1429.81 853.051 1429.81 853.051 1429.81 854.086 C 1429.81 855.515 1429.8 856.944 1429.78 858.373 C 1429.76 860.559 1429.76 862.744 1429.77 864.93 C 1429.72 875.648 1429.72 875.648 1427.44 879.067 C 1424.72 879.438 1424.72 879.438 1421.38 879.505 C 1413.46 879.968 1407.49 881.481 1402.01 887.442 C 1396.64 893.892 1397.16 901.417 1397.17 909.36 C 1397.15 911.788 1397.13 914.216 1397.11 916.643 C 1397.08 920.462 1397.07 924.28 1397.06 928.099 C 1397.05 931.791 1397.02 935.481 1396.98 939.173 C 1396.99 940.319 1396.99 941.466 1397 942.648 C 1396.98 943.709 1396.97 944.771 1396.96 945.865 C 1396.95 946.799 1396.95 947.734 1396.95 948.697 C 1396.44 951.067 1396.44 951.067 1394.54 952.85 C 1389.35 955.86 1383.28 955.25 1377.44 955.255 C 1376.55 955.267 1375.66 955.279 1374.75 955.292 C 1366.26 955.311 1366.26 955.311 1362.44 953.067 C 1360.39 949.992 1360.19 949.366 1360.18 945.899 C 1360.17 944.627 1360.17 944.627 1360.16 943.329 C 1360.16 942.401 1360.17 941.474 1360.17 940.518 C 1360.16 939.539 1360.16 938.56 1360.15 937.551 C 1360.14 934.308 1360.14 931.065 1360.14 927.821 C 1360.14 925.57 1360.13 923.32 1360.13 921.069 C 1360.12 916.349 1360.12 911.629 1360.13 906.909 C 1360.13 900.854 1360.12 894.801 1360.09 888.746 C 1360.08 884.098 1360.08 879.449 1360.08 874.8 C 1360.08 872.568 1360.07 870.335 1360.06 868.103 C 1360.05 864.984 1360.06 861.865 1360.07 858.745 C 1360.06 857.82 1360.06 856.894 1360.05 855.941 C 1360.1 849.733 1360.1 849.733 1361.78 846.493 C 1364.43 844.222 1366.8 844.583 1370.23 844.606 C 1370.88 844.607 1371.54 844.608 1372.22 844.609 C 1373.61 844.615 1374.99 844.631 1376.38 844.655 C 1378.5 844.692 1380.62 844.696 1382.75 844.696 C 1393.15 844.772 1393.15 844.772 1395.44 847.067 C 1395.86 849.231 1395.86 849.231 1396.07 851.692 C 1396.14 852.509 1396.22 853.327 1396.29 854.169 C 1396.34 854.795 1396.39 855.422 1396.44 856.067 C 1397.29 855.392 1398.13 854.716 1399.01 854.02 C 1416.8 839.955 1416.8 839.955 1426.44 842.067 Z" fill="#FCD24C"/>
    <path d="M 1332.44 668.067 C 1335.15 670.129 1335.82 671.787 1336.44 675.067 C 1336.67 679.377 1336.63 683.69 1336.63 688.005 C 1336.64 689.185 1336.65 690.365 1336.67 691.581 C 1336.67 692.72 1336.67 693.859 1336.67 695.032 C 1336.68 696.07 1336.68 697.107 1336.69 698.176 C 1336.43 701.243 1335.94 703.376 1334.44 706.067 C 1331.63 706.791 1329.18 707.21 1326.32 707.505 C 1319.65 708.438 1313.77 709.405 1309.44 715.067 C 1305.99 721.381 1306 727.071 1306 734.169 C 1305.99 735.323 1305.97 736.478 1305.96 737.668 C 1305.92 741.342 1305.9 745.017 1305.88 748.692 C 1305.86 752.374 1305.83 756.056 1305.79 759.738 C 1305.76 762.025 1305.75 764.312 1305.74 766.599 C 1305.73 767.638 1305.72 768.676 1305.71 769.745 C 1305.71 770.655 1305.7 771.564 1305.7 772.501 C 1305.41 775.36 1304.72 777.498 1303.44 780.067 C 1299.22 782.178 1293.71 781.294 1289.07 781.307 C 1287.02 781.317 1284.97 781.348 1282.92 781.38 C 1281.63 781.385 1280.34 781.39 1279.01 781.395 C 1277.82 781.405 1276.64 781.414 1275.41 781.424 C 1272.44 781.067 1272.44 781.067 1270.56 779.889 C 1269.02 777.37 1269.07 775.529 1269.08 772.587 C 1269.08 771.504 1269.08 770.422 1269.08 769.307 C 1269.1 768.176 1269.11 767.045 1269.13 765.88 C 1269.13 764.768 1269.12 763.656 1269.12 762.51 C 1269.16 756.31 1269.77 751.021 1271.44 745.067 C 1271.79 742.124 1271.79 742.124 1271.76 739.317 C 1271.77 738.415 1271.79 737.512 1271.81 736.583 C 1271.48 733.468 1270.85 731.053 1269.95 728.079 C 1267.7 719.389 1267.92 710.558 1267.94 701.638 C 1267.94 698.611 1267.9 695.587 1267.86 692.561 C 1267.85 690.627 1267.85 688.693 1267.85 686.758 C 1267.83 685.859 1267.82 684.96 1267.8 684.034 C 1267.85 679.566 1267.98 677.664 1270.79 674.024 C 1275.87 670.276 1280.83 670.884 1286.88 670.88 C 1287.84 670.867 1288.79 670.855 1289.77 670.842 C 1290.69 670.841 1291.62 670.839 1292.56 670.837 C 1293.4 670.832 1294.24 670.828 1295.11 670.824 C 1297.68 671.092 1299.28 671.662 1301.44 673.067 C 1302.27 675.45 1302.27 675.45 1302.69 678.192 C 1302.84 679.102 1302.99 680.012 1303.15 680.95 C 1303.29 681.998 1303.29 681.998 1303.44 683.067 C 1303.96 682.487 1304.49 681.907 1305.03 681.309 C 1311.93 673.982 1321.46 665.116 1332.44 668.067 Z" fill="#FBD14C"/>
    <path d="M 828.443 632.067 C 829.433 632.397 830.423 632.727 831.443 633.067 C 832.568 637.071 832.342 638.994 830.505 642.692 C 828.139 648.216 827.532 653.114 828.443 659.067 C 830.751 664.053 834.411 667.806 839.443 670.067 C 846.485 671.428 853.381 669.789 859.443 666.067 C 864.277 661.662 869.199 656.825 869.638 650.051 C 869.615 648.984 869.592 647.917 869.568 646.817 C 869.55 645.739 869.532 644.662 869.513 643.551 C 869.49 642.732 869.467 641.912 869.443 641.067 C 866.435 640.064 863.905 639.764 860.755 639.505 C 859.761 639.421 858.768 639.337 857.744 639.251 C 856.605 639.16 856.605 639.16 855.443 639.067 C 855.755 636.692 855.755 636.692 856.443 634.067 C 860.699 631.23 864.446 631.429 869.443 632.067 C 873.415 634.089 876.215 636.205 878.443 640.067 C 878.656 642.74 878.728 645.16 878.63 647.817 C 878.61 648.863 878.61 648.863 878.589 649.93 C 878.554 651.643 878.5 653.355 878.443 655.067 C 879 655.249 879.556 655.431 880.13 655.618 C 881.728 656.144 883.323 656.678 884.915 657.219 C 886.519 657.757 888.131 658.273 889.751 658.758 C 895.109 660.479 895.109 660.479 896.755 663.38 C 896.982 664.266 897.209 665.153 897.443 666.067 C 899.448 671.728 902.184 673.406 907.384 675.891 C 909.443 677.067 909.443 677.067 911.443 680.067 C 911.906 684.24 911.892 686.354 909.63 689.942 C 907.443 692.067 907.443 692.067 904.443 693.067 C 902.339 693.007 900.235 692.944 898.133 692.85 C 889.481 692.194 889.481 692.194 882.068 695.942 C 881.627 696.476 881.186 697.009 880.732 697.559 C 878.493 700.178 876.274 700.969 872.892 701.368 C 863.542 701.408 857.794 698.618 850.443 693.067 C 851.103 688.117 851.763 683.167 852.443 678.067 C 851.32 678.137 850.197 678.206 849.04 678.278 C 834.406 678.915 834.406 678.915 828.169 673.774 C 827.6 673.211 827.03 672.647 826.443 672.067 C 825.935 671.576 825.427 671.085 824.904 670.579 C 820.112 665.381 817.82 659.525 818.095 652.528 C 819.273 644.192 822.623 638.02 828.443 632.067 Z" fill="#FDD046"/>
    <path d="M 856.443 710.067 C 858.342 710.593 860.244 711.113 862.146 711.63 C 863.633 712.034 863.633 712.034 865.151 712.446 C 866.285 712.753 866.285 712.753 867.443 713.067 C 866.401 733.26 865.005 753.413 863.38 773.567 C 863.292 774.66 863.205 775.753 863.114 776.879 C 862.859 780.036 862.603 783.192 862.345 786.348 C 862.231 787.75 862.231 787.75 862.115 789.18 C 861.622 795.149 861.058 801.109 860.443 807.067 C 855.87 808.73 852.06 809.183 847.177 809.13 C 845.564 809.116 845.564 809.116 843.918 809.102 C 842.693 809.085 842.693 809.085 841.443 809.067 C 841.315 786.428 841.472 763.822 842.257 741.195 C 842.402 736.881 842.472 732.572 842.486 728.255 C 842.5 727.273 842.514 726.291 842.529 725.28 C 842.554 723.55 842.554 721.819 842.523 720.089 C 842.595 717.019 842.82 714.734 844.962 712.438 C 849.126 709.304 851.266 708.474 856.443 710.067 Z" fill="#FDEB93"/>
    <path d="M 818.018 712.419 C 823.619 718.536 822.143 728.382 822.173 736.215 C 822.22 738.315 822.272 740.413 822.328 742.512 C 822.463 748.026 822.532 753.539 822.589 759.054 C 822.658 764.685 822.788 770.315 822.913 775.946 C 823.15 786.986 823.318 798.025 823.443 809.067 C 821.401 809.094 819.359 809.114 817.318 809.13 C 816.181 809.141 815.044 809.153 813.872 809.165 C 810.63 809.072 807.623 808.681 804.443 808.067 C 803.391 804.471 803.101 800.925 802.794 797.197 C 802.737 796.514 802.68 795.83 802.621 795.126 C 802.434 792.864 802.251 790.602 802.068 788.34 C 801.937 786.753 801.807 785.165 801.676 783.577 C 801.401 780.24 801.129 776.903 800.859 773.565 C 800.516 769.34 800.169 765.116 799.82 760.892 C 799.549 757.604 799.28 754.316 799.012 751.028 C 798.885 749.475 798.757 747.921 798.629 746.367 C 797.716 735.275 797.013 724.182 796.443 713.067 C 804.72 709.685 809.836 707.708 818.018 712.419 Z" fill="#FDEC94"/>
    <path d="M 843.443 715.067 C 843.658 733.635 843.044 752.186 842.516 770.744 C 842.393 775.076 842.273 779.407 842.154 783.739 C 841.92 792.182 841.682 800.624 841.443 809.067 C 838.464 809.094 835.485 809.114 832.505 809.13 C 831.655 809.138 830.805 809.146 829.929 809.155 C 829.12 809.158 828.311 809.161 827.478 809.165 C 826.729 809.17 825.98 809.175 825.209 809.181 C 823.443 809.067 823.443 809.067 822.443 808.067 C 822.29 806.367 822.204 804.66 822.146 802.954 C 822.086 801.305 822.086 801.305 822.025 799.624 C 821.986 798.418 821.947 797.212 821.908 795.969 C 821.865 794.724 821.821 793.478 821.777 792.195 C 821.663 788.827 821.553 785.458 821.447 782.09 C 821.381 780.014 821.313 777.939 821.244 775.864 C 820.591 755.929 820.124 736.013 820.443 716.067 C 821.479 716.079 822.516 716.09 823.583 716.102 C 824.953 716.112 826.323 716.121 827.693 716.13 C 828.716 716.142 828.716 716.142 829.759 716.155 C 834.471 716.178 838.781 715.067 843.443 715.067 Z" fill="#D35722"/>
    <path d="M 995.63 706.067 C 1001.47 709.251 1005.34 713.752 1007.44 720.067 C 1008.66 735.798 1008.66 735.798 1003.44 742.067 C 997.461 747.743 991.192 750.647 982.884 750.45 C 977.13 749.548 972.14 746.721 968.005 742.692 C 963.64 735.359 962.437 729.651 963.443 721.067 C 965.204 714.789 969.132 710.671 974.443 707.067 C 981.727 703.02 988.063 702.704 995.63 706.067 Z" fill="#4B3613"/>
    <path d="M 889.443 706.067 C 895.713 706.067 901.983 706.067 908.443 706.067 C 906.986 719.174 904.668 732.006 902.13 744.942 C 901.518 748.08 900.908 751.219 900.297 754.357 C 899.897 756.414 899.496 758.47 899.094 760.527 C 897.979 766.245 896.902 771.968 895.88 777.704 C 895.663 778.905 895.445 780.106 895.221 781.343 C 894.842 783.454 894.472 785.567 894.115 787.682 C 892.94 794.122 891.463 798.762 886.068 802.88 C 883.179 804.186 880.582 804.702 877.443 805.067 C 877.184 798.412 878.176 792.018 879.13 785.442 C 879.402 783.516 879.675 781.589 879.946 779.662 C 880.238 777.588 880.532 775.513 880.827 773.439 C 881.913 765.756 882.962 758.068 884.005 750.38 C 884.111 749.6 884.217 748.82 884.326 748.016 C 886.219 734.053 887.909 720.074 889.443 706.067 Z" fill="#EFC332"/>
    <path d="M 754.443 706.067 C 761.043 706.067 767.643 706.067 774.443 706.067 C 775.029 710.671 775.613 715.275 776.193 719.88 C 776.282 720.59 776.372 721.301 776.464 722.033 C 777.971 734.016 779.349 746.01 780.688 758.013 C 781.984 769.587 783.506 781.109 785.224 792.629 C 785.384 793.701 785.544 794.774 785.708 795.88 C 785.85 796.814 785.993 797.749 786.139 798.712 C 786.443 801.067 786.443 801.067 786.443 804.067 C 780.934 803.842 778.097 802.565 774.01 798.888 C 771.358 795.807 770.784 792.608 770.103 788.678 C 769.938 787.858 769.773 787.038 769.603 786.193 C 769.067 783.499 768.571 780.8 768.076 778.098 C 767.709 776.215 767.34 774.332 766.969 772.45 C 766.001 767.505 765.067 762.555 764.14 757.602 C 763.191 752.569 762.21 747.543 761.232 742.516 C 759.806 735.166 758.393 727.813 757.006 720.456 C 756.789 719.31 756.789 719.31 756.568 718.141 C 755.813 714.122 755.115 710.102 754.443 706.067 Z" fill="#EFC230"/>
    <path d="M 652.443 670.067 C 656.776 669.95 661.109 669.88 665.443 669.817 C 666.663 669.784 667.884 669.75 669.142 669.716 C 676.428 669.637 681.293 670.045 687.443 674.067 C 692.319 679.2 693.914 683.422 693.759 690.399 C 693.104 695.921 691.008 700.368 687.255 704.442 C 679.695 708.81 672.553 709.5 663.943 709.317 C 662.442 709.309 662.442 709.309 660.911 709.301 C 653.598 709.222 653.598 709.222 652.443 708.067 C 652.354 705.255 652.328 702.468 652.345 699.657 C 652.347 698.815 652.348 697.973 652.349 697.105 C 652.355 694.405 652.368 691.705 652.38 689.005 C 652.385 687.178 652.39 685.352 652.394 683.526 C 652.405 679.04 652.422 674.553 652.443 670.067 Z M 663.443 683.067 C 663.443 688.017 663.443 692.967 663.443 698.067 C 670.361 698.323 675.368 698.5 681.443 695.067 C 682.703 692.547 682.361 691.213 682.005 688.442 C 681.903 687.625 681.802 686.808 681.697 685.966 C 681.571 685.026 681.571 685.026 681.443 684.067 C 674.95 680.887 670.251 679.663 663.443 683.067 Z" fill="#483412"/>
    <path d="M 780.755 658.567 C 785.441 659.202 786.687 660.903 789.736 664.317 C 791.987 666.625 794.53 667.749 797.443 669.067 C 797.938 670.057 797.938 670.057 798.443 671.067 C 800.459 672.201 800.459 672.201 802.443 673.067 C 802.113 673.727 801.783 674.387 801.443 675.067 C 795.693 674.192 795.693 674.192 793.443 673.067 C 793.443 672.407 793.443 671.747 793.443 671.067 C 790.803 671.067 788.163 671.067 785.443 671.067 C 785.3 672.069 785.157 673.07 785.009 674.102 C 784.154 680.091 783.298 686.079 782.443 692.067 C 776.767 693.67 771.644 694.432 765.755 694.442 C 765.022 694.467 764.29 694.491 763.535 694.516 C 759.877 694.536 757.638 694.182 754.466 692.313 C 752.275 689.881 751.738 688.975 751.755 685.755 C 752.017 681.213 753.577 678.715 756.716 675.508 C 759.609 673.094 762.594 671.067 766.443 671.067 C 766.484 670.18 766.525 669.293 766.568 668.38 C 767.736 663.956 769.727 662.617 773.443 660.067 C 775.869 659.05 778.129 658.963 780.755 658.567 Z" fill="#FCD753"/>
    <path d="M 828.443 632.067 C 829.433 632.397 830.423 632.727 831.443 633.067 C 832.568 637.071 832.342 638.994 830.505 642.692 C 828.139 648.216 827.532 653.114 828.443 659.067 C 830.748 664.047 834.411 667.816 839.443 670.067 C 846.451 671.316 852.869 669.417 859.443 667.067 C 856.333 670.355 853.427 672.904 849.443 675.067 C 850.103 675.727 850.763 676.387 851.443 677.067 C 846.723 679.427 840.547 678.645 835.443 678.067 C 828.187 675.089 823.328 669.513 819.63 662.755 C 816.898 654.269 818.518 646.976 822.443 639.067 C 824.288 636.47 826.206 634.355 828.443 632.067 Z" fill="#FAC82A"/>
    <path d="M 985.716 872.798 C 990.218 876.108 991.378 879.743 992.443 885.067 C 980.563 885.067 968.683 885.067 956.443 885.067 C 957.66 878.98 959.96 876.197 964.443 872.067 C 971.274 868.503 979.1 869.068 985.716 872.798 Z" fill="#4E3814"/>
    <path d="M 1307.44 873.067 C 1311.53 876.942 1311.78 879.241 1313.44 885.067 C 1301.56 885.067 1289.68 885.067 1277.44 885.067 C 1279.73 877.064 1281.93 874.614 1288.88 870.692 C 1295.49 869.08 1301.5 869.78 1307.44 873.067 Z" fill="#4B3513"/>
    <path d="M 1100.19 871.192 C 1104.18 873.49 1105.89 875.241 1108.44 879.067 C 1108.94 882.037 1108.94 882.037 1109.44 885.067 C 1097.89 885.067 1086.34 885.067 1074.44 885.067 C 1075.66 877.751 1075.66 877.751 1079.44 874.067 C 1086.18 869.389 1092.44 868.865 1100.19 871.192 Z" fill="#503A15"/>
    <path d="M 683.568 883.005 C 684.478 883.014 685.388 883.023 686.326 883.032 C 687.374 883.049 687.374 883.049 688.443 883.067 C 688.236 884.88 688.236 884.88 687.443 887.067 C 685.369 888.567 685.369 888.567 682.755 890.067 C 676.555 894.133 674.162 899.335 671.443 906.067 C 670.453 905.737 669.463 905.407 668.443 905.067 C 666.96 901.562 667.121 897.799 667.443 894.067 C 671.088 887.182 675.729 882.904 683.568 883.005 Z" fill="#FAC82A"/>
    <path d="M 1169.44 706.067 C 1177.67 705.708 1183.36 705.52 1189.82 711.13 C 1192.18 715.393 1191.78 719.298 1191.44 724.067 C 1187.88 722.495 1186.22 720.562 1183.78 717.528 C 1179.63 712.997 1174.2 712.564 1168.44 712.067 C 1168.77 710.087 1169.1 708.107 1169.44 706.067 Z" fill="#FACA2F"/>
    <path d="M 784.443 661.067 C 787.87 663.337 790.781 665.933 793.443 669.067 C 793.443 669.727 793.443 670.387 793.443 671.067 C 785.193 671.067 776.943 671.067 768.443 671.067 C 768.443 666.067 768.443 666.067 770.255 663.817 C 774.399 660.502 779.348 659.927 784.443 661.067 Z" fill="#F6C53B"/>
    <path d="M 1099.51 871.067 C 1100.14 871.397 1100.78 871.727 1101.44 872.067 C 1098.19 873.15 1096.09 873.039 1092.69 872.88 C 1086.92 872.845 1083.94 873.428 1079.44 877.067 C 1078.45 879.047 1077.46 881.027 1076.44 883.067 C 1087.33 883.067 1098.22 883.067 1109.44 883.067 C 1109.44 883.727 1109.44 884.387 1109.44 885.067 C 1097.89 885.067 1086.34 885.067 1074.44 885.067 C 1075.66 877.751 1075.66 877.751 1079.44 874.067 C 1085.78 869.668 1092.16 868.669 1099.51 871.067 Z" fill="#231205"/>
    <path d="M 852.443 692.067 C 853.763 693.057 855.083 694.047 856.443 695.067 C 856.964 694.719 857.484 694.371 858.021 694.012 C 861.364 692.707 863.688 693.311 867.193 693.942 C 868.948 694.248 868.948 694.248 870.74 694.559 C 872.078 694.811 872.078 694.811 873.443 695.067 C 873.443 696.057 873.443 697.047 873.443 698.067 C 876.908 697.572 876.908 697.572 880.443 697.067 C 878.058 699.56 876.633 700.964 873.087 701.27 C 864.525 701.412 858.894 700.127 852.443 694.067 C 852.443 693.407 852.443 692.747 852.443 692.067 Z" fill="#FBE265"/>
    <path d="M 1225.44 721.067 C 1225.07 724.292 1224.59 725.892 1222.51 728.442 C 1220.19 731.043 1220.19 731.043 1219.38 734.817 C 1219.07 735.89 1218.76 736.962 1218.44 738.067 C 1217.45 738.397 1216.46 738.727 1215.44 739.067 C 1213.06 736.685 1213.12 736.017 1213.07 732.755 C 1213.14 729.31 1213.38 728.164 1215.26 725.13 C 1218.75 721.831 1220.69 720.81 1225.44 721.067 Z" fill="#FAC51F"/>
    <path d="M 1350.44 671.067 C 1354.86 670.951 1359.28 670.88 1363.69 670.817 C 1365.57 670.767 1365.57 670.767 1367.49 670.716 C 1368.7 670.703 1369.9 670.69 1371.15 670.676 C 1372.26 670.656 1373.37 670.635 1374.51 670.613 C 1378.1 671.169 1379.25 672.23 1381.44 675.067 C 1381.95 677.848 1381.63 680.213 1381.44 683.067 C 1382.43 682.737 1383.42 682.407 1384.44 682.067 C 1384.11 683.057 1383.78 684.047 1383.44 685.067 C 1382.45 684.737 1381.46 684.407 1380.44 684.067 C 1379.78 680.767 1379.12 677.467 1378.44 674.067 C 1377.28 674.091 1377.28 674.091 1376.09 674.115 C 1372.58 674.177 1369.08 674.216 1365.57 674.255 C 1363.73 674.292 1363.73 674.292 1361.86 674.331 C 1360.11 674.345 1360.11 674.345 1358.33 674.36 C 1356.71 674.384 1356.71 674.384 1355.06 674.408 C 1354.19 674.295 1353.33 674.183 1352.44 674.067 C 1351.78 673.077 1351.12 672.087 1350.44 671.067 Z" fill="#F9DF53"/>
    <path d="M 960.443 876.067 C 960.443 879.067 960.443 879.067 958.443 883.067 C 973.788 882.572 973.788 882.572 989.443 882.067 C 988.783 880.087 988.123 878.107 987.443 876.067 C 991.045 879.205 991.438 880.046 992.443 885.067 C 980.563 885.067 968.683 885.067 956.443 885.067 C 957.338 880.589 957.693 879.295 960.443 876.067 Z" fill="#211004"/>
    <path d="M 1405.44 951.067 C 1406.19 952.692 1406.19 952.692 1406.44 955.067 C 1403.74 960.463 1400.72 962.567 1395.44 965.067 C 1389.94 966.44 1384.46 966.251 1378.82 966.255 C 1377.77 966.267 1376.72 966.279 1375.64 966.292 C 1374.13 966.295 1374.13 966.295 1372.59 966.298 C 1371.67 966.302 1370.76 966.306 1369.82 966.31 C 1367.44 966.067 1367.44 966.067 1364.44 964.067 C 1365.29 964.052 1366.14 964.038 1367.01 964.023 C 1370.17 963.962 1373.34 963.887 1376.5 963.805 C 1377.87 963.772 1379.23 963.743 1380.6 963.721 C 1382.57 963.687 1384.54 963.633 1386.51 963.579 C 1387.7 963.553 1388.88 963.526 1390.1 963.499 C 1393.77 963.025 1396.22 961.826 1399.44 960.067 C 1400.1 960.067 1400.76 960.067 1401.44 960.067 C 1401.73 959.325 1402.02 958.582 1402.32 957.817 C 1403.27 955.5 1404.29 953.288 1405.44 951.067 Z" fill="#463613"/>
    <path d="M 908.443 638.067 C 908.773 638.727 909.103 639.387 909.443 640.067 C 910.433 640.005 911.423 639.943 912.443 639.88 C 916.833 639.897 920.608 640.917 924.443 643.067 C 926.947 645.884 927.386 647.73 928.005 651.442 C 927.249 656.318 925.197 658.938 921.443 662.067 C 918.068 663.505 918.068 663.505 915.443 664.067 C 915.443 663.407 915.443 662.747 915.443 662.067 C 917.393 660.734 919.433 659.628 921.497 658.481 C 923.738 656.852 924.518 655.661 925.443 653.067 C 925.115 649.856 924.463 647.129 923.443 644.067 C 917.28 641.731 909.773 642.99 903.443 644.067 C 905.093 642.087 906.743 640.107 908.443 638.067 Z" fill="#261606"/>
    <path d="M 746.935 833.872 C 748.733 833.881 748.733 833.881 750.568 833.891 C 752.424 833.916 752.424 833.916 754.318 833.942 C 755.578 833.951 756.839 833.96 758.138 833.969 C 761.24 833.993 764.341 834.026 767.443 834.067 C 767.938 835.057 767.938 835.057 768.443 836.067 C 767.571 836.076 766.698 836.086 765.8 836.095 C 762.536 836.14 759.273 836.201 756.01 836.275 C 754.603 836.303 753.196 836.324 751.788 836.338 C 740.986 836.442 740.986 836.442 731.443 841.067 C 730.783 840.737 730.123 840.407 729.443 840.067 C 734.919 835.235 739.683 833.803 746.935 833.872 Z" fill="#4B3712"/>
    <path d="M 803.318 832.005 C 804.47 832.014 805.623 832.023 806.81 832.032 C 807.679 832.044 808.548 832.055 809.443 832.067 C 809.113 833.057 808.783 834.047 808.443 835.067 C 805.36 835.235 802.276 835.401 799.193 835.567 C 798.32 835.615 797.447 835.662 796.548 835.712 C 795.704 835.757 794.86 835.802 793.99 835.848 C 792.827 835.911 792.827 835.911 791.641 835.975 C 789.576 836.061 787.509 836.067 785.443 836.067 C 784.783 837.387 784.123 838.707 783.443 840.067 C 782.123 839.737 780.803 839.407 779.443 839.067 C 781.551 836.73 783.297 835.504 786.255 834.442 C 786.901 834.202 787.547 833.963 788.212 833.716 C 793.259 832.248 798.081 831.951 803.318 832.005 Z" fill="#483410"/>
    <path d="M 1309.44 877.067 C 1312.66 879.725 1312.53 880.479 1313.44 885.067 C 1302.55 885.067 1291.66 885.067 1280.44 885.067 C 1280.44 884.407 1280.44 883.747 1280.44 883.067 C 1290.67 883.067 1300.9 883.067 1311.44 883.067 C 1310.78 881.087 1310.12 879.107 1309.44 877.067 Z" fill="#251204"/>
    <path d="M 863.63 631.942 C 865.517 632.004 865.517 632.004 867.443 632.067 C 867.443 632.397 867.443 632.727 867.443 633.067 C 866.805 633.188 866.167 633.309 865.509 633.434 C 864.27 633.686 864.27 633.686 863.005 633.942 C 862.182 634.104 861.358 634.267 860.509 634.434 C 859.827 634.643 859.145 634.852 858.443 635.067 C 858.113 635.727 857.783 636.387 857.443 637.067 C 858.99 636.974 858.99 636.974 860.568 636.88 C 864.755 637.082 866.952 637.794 870.443 640.067 C 872.983 643.966 872.536 647.12 872.001 651.583 C 871.2 655.148 869.738 657.254 867.443 660.067 C 867.443 657.067 867.443 657.067 868.435 655.27 C 869.77 652.352 869.637 650.01 869.568 646.817 C 869.541 645.201 869.541 645.201 869.513 643.551 C 869.49 642.732 869.467 641.912 869.443 641.067 C 866.435 640.064 863.905 639.764 860.755 639.505 C 859.761 639.421 858.768 639.337 857.744 639.251 C 856.605 639.16 856.605 639.16 855.443 639.067 C 855.755 636.692 855.755 636.692 856.443 634.067 C 859.532 632.008 860.152 631.828 863.63 631.942 Z" fill="#FAC521"/>
    <path d="M 702.443 860.067 C 705.499 863.124 705.408 865.398 705.63 869.692 C 705.584 874.607 704.538 879.293 703.443 884.067 C 704.433 884.129 705.423 884.191 706.443 884.255 C 711.181 884.909 714.591 887.379 718.443 890.067 C 719.433 890.727 720.423 891.387 721.443 892.067 C 721.113 892.727 720.783 893.387 720.443 894.067 C 719.851 893.657 719.259 893.247 718.65 892.825 C 717.86 892.286 717.069 891.747 716.255 891.192 C 715.089 890.392 715.089 890.392 713.9 889.575 C 709.543 886.901 705.486 885.771 700.443 885.067 C 700.934 883.366 700.934 883.366 701.435 881.63 C 702.579 877.055 702.673 872.759 702.568 868.067 C 702.554 866.905 702.554 866.905 702.54 865.719 C 702.517 863.835 702.481 861.951 702.443 860.067 Z" fill="#231405"/>
    <path d="M 1359.73 669.696 C 1360.74 669.696 1360.74 669.696 1361.76 669.696 C 1363.8 669.692 1365.84 669.656 1367.88 669.618 C 1369.81 669.612 1369.81 669.612 1371.78 669.606 C 1372.96 669.598 1374.14 669.59 1375.36 669.581 C 1379.08 670.167 1380.19 671.101 1382.44 674.067 C 1383.76 677.692 1383.76 677.692 1384.44 681.067 C 1384.11 681.727 1383.78 682.387 1383.44 683.067 C 1382.78 683.067 1382.12 683.067 1381.44 683.067 C 1381.32 682.357 1381.2 681.647 1381.08 680.915 C 1380.82 679.536 1380.82 679.536 1380.57 678.13 C 1380.4 677.213 1380.24 676.297 1380.08 675.352 C 1379.87 674.598 1379.66 673.844 1379.44 673.067 C 1376.52 671.606 1373.94 671.956 1370.68 671.969 C 1370.02 671.971 1369.36 671.972 1368.68 671.974 C 1366.56 671.979 1364.44 671.992 1362.32 672.005 C 1360.88 672.01 1359.44 672.014 1358.01 672.018 C 1354.49 672.029 1350.96 672.047 1347.44 672.067 C 1350.79 668.716 1355.18 669.737 1359.73 669.696 Z" fill="#060200"/>
    <path d="M 1260.44 781.067 C 1260.91 781.477 1261.38 781.887 1261.87 782.309 C 1262.49 782.848 1263.11 783.387 1263.76 783.942 C 1264.68 784.743 1264.68 784.743 1265.62 785.559 C 1270.41 789.519 1274.47 790.124 1280.53 790.383 C 1281.46 790.425 1282.39 790.467 1283.35 790.51 C 1284.31 790.55 1285.27 790.589 1286.26 790.63 C 1287.23 790.673 1288.21 790.716 1289.22 790.76 C 1291.63 790.866 1294.04 790.968 1296.44 791.067 C 1296.44 791.397 1296.44 791.727 1296.44 792.067 C 1292.59 792.155 1288.73 792.208 1284.88 792.255 C 1283.79 792.28 1282.71 792.305 1281.59 792.331 C 1273.7 792.403 1268.67 791.81 1262.51 786.567 C 1260.44 784.067 1260.44 784.067 1260.44 781.067 Z" fill="#2F200A"/>
    <path d="M 1225.44 724.067 C 1225.44 727.067 1225.44 727.067 1223.57 729.317 C 1221.13 732.477 1220.4 735.226 1219.44 739.067 C 1218.44 740.067 1218.44 740.067 1215.88 740.13 C 1215.08 740.109 1214.27 740.088 1213.44 740.067 C 1211.58 736.943 1211.24 734.974 1211.69 731.38 C 1211.78 730.592 1211.87 729.804 1211.96 728.993 C 1212.12 728.357 1212.28 727.722 1212.44 727.067 C 1213.1 726.737 1213.76 726.407 1214.44 726.067 C 1214.44 729.697 1214.44 733.327 1214.44 737.067 C 1215.76 737.397 1217.08 737.727 1218.44 738.067 C 1218.53 737.475 1218.62 736.884 1218.7 736.274 C 1219.72 730.569 1220.94 727.743 1225.44 724.067 Z" fill="#FDF2A6"/>
    <path d="M 1395.44 845.067 C 1396.59 847.231 1396.59 847.231 1397.26 849.692 C 1397.49 850.509 1397.72 851.327 1397.96 852.169 C 1398.12 852.795 1398.28 853.422 1398.44 854.067 C 1397.45 855.057 1396.46 856.047 1395.44 857.067 C 1395.38 856.357 1395.32 855.647 1395.26 854.915 C 1395.13 853.536 1395.13 853.536 1395.01 852.13 C 1394.92 851.213 1394.84 850.297 1394.76 849.352 C 1394.68 847.105 1394.68 847.105 1393.44 846.067 C 1391.44 845.909 1389.44 845.816 1387.44 845.751 C 1386.22 845.709 1385.01 845.667 1383.76 845.624 C 1382.48 845.584 1381.2 845.545 1379.88 845.505 C 1378.6 845.461 1377.31 845.418 1375.99 845.374 C 1372.81 845.267 1369.63 845.165 1366.44 845.067 C 1366.44 844.737 1366.44 844.407 1366.44 844.067 C 1370.34 843.841 1374.23 843.639 1378.13 843.442 C 1379.23 843.378 1380.34 843.313 1381.47 843.247 C 1382.54 843.195 1383.61 843.144 1384.7 843.091 C 1385.68 843.038 1386.66 842.986 1387.67 842.932 C 1390.7 843.08 1392.75 843.684 1395.44 845.067 Z" fill="#382008"/>
    <path d="M 829.443 604.067 C 829.773 604.727 830.103 605.387 830.443 606.067 C 829.989 606.995 829.535 607.923 829.068 608.88 C 826.554 614.274 826.698 620.213 826.443 626.067 C 822.723 624.841 819.065 623.559 815.443 622.067 C 818.021 621.146 819.037 620.882 821.583 622.044 C 822.197 622.381 822.811 622.719 823.443 623.067 C 823.541 622.282 823.639 621.497 823.74 620.688 C 824.658 614.236 825.761 609.467 829.443 604.067 Z" fill="#231405"/>
    <path d="M 1392.44 846.067 C 1393.43 846.397 1394.42 846.727 1395.44 847.067 C 1395.77 850.037 1396.1 853.007 1396.44 856.067 C 1399.41 853.757 1402.38 851.447 1405.44 849.067 C 1406.1 849.397 1406.76 849.727 1407.44 850.067 C 1406.72 850.624 1406 851.181 1405.26 851.755 C 1402.47 854.046 1399.96 856.482 1397.44 859.067 C 1396.45 858.737 1395.46 858.407 1394.44 858.067 C 1393.23 855.633 1393.12 853.649 1392.88 850.942 C 1392.8 850.032 1392.71 849.122 1392.63 848.184 C 1392.57 847.486 1392.51 846.787 1392.44 846.067 Z" fill="#F9E85B"/>
    <path d="M 862.443 594.067 C 867.992 595.862 871.932 598.952 875.318 603.692 C 876.919 608.497 876.684 613.049 876.443 618.067 C 878.093 617.737 879.743 617.407 881.443 617.067 C 880.193 618.567 880.193 618.567 878.443 620.067 C 877.123 620.067 875.803 620.067 874.443 620.067 C 874.512 618.89 874.512 618.89 874.583 617.688 C 874.912 608.606 874.912 608.606 870.443 601.067 C 868.377 599.333 866.28 597.751 864.052 596.231 C 863.521 595.847 862.99 595.463 862.443 595.067 C 862.443 594.737 862.443 594.407 862.443 594.067 Z" fill="#190D02"/>
    <path d="M 1090.26 832.005 C 1091.44 832.011 1091.44 832.011 1092.64 832.018 C 1094.58 832.03 1096.51 832.048 1098.44 832.067 C 1098.44 832.727 1098.44 833.387 1098.44 834.067 C 1090.52 834.397 1082.6 834.727 1074.44 835.067 C 1078.56 830.949 1084.78 831.945 1090.26 832.005 Z" fill="#35250C"/>
    <path d="M 635.443 858.067 C 636.709 861.934 636.555 865.799 636.505 869.817 C 636.501 870.514 636.496 871.212 636.492 871.93 C 636.48 873.643 636.462 875.355 636.443 877.067 C 631.753 876.501 627.098 875.882 622.443 875.067 C 622.443 874.737 622.443 874.407 622.443 874.067 C 623.68 874.046 624.918 874.026 626.193 874.005 C 626.889 873.993 627.585 873.981 628.302 873.969 C 630.476 874.069 632.356 874.47 634.443 875.067 C 634.347 874.343 634.252 873.618 634.154 872.872 C 633.528 867.414 633.081 863.207 635.443 858.067 Z" fill="#1B0E03"/>
    <path d="M 1229.44 753.067 C 1232.41 755.047 1232.41 755.047 1235.44 757.067 C 1234.45 757.562 1234.45 757.562 1233.44 758.067 C 1233.48 758.696 1233.51 759.325 1233.55 759.973 C 1233.74 766.115 1233.12 770.51 1230.44 776.067 C 1229.45 776.727 1228.46 777.387 1227.44 778.067 C 1227.75 777.304 1228.06 776.541 1228.38 775.755 C 1231.29 768.394 1231.11 760.791 1229.44 753.067 Z" fill="#1A0E03"/>
    <path d="M 1222.44 723.067 C 1222.44 727.091 1220.68 728.776 1218.44 732.067 C 1217.73 733.713 1217.04 735.374 1216.44 737.067 C 1215.45 736.737 1214.46 736.407 1213.44 736.067 C 1214.53 728.957 1214.53 728.957 1217.13 726.423 C 1218.85 725.221 1220.64 724.134 1222.44 723.067 Z" fill="#FBCD33"/>
    <path d="M 757.443 675.067 C 758.103 675.397 758.763 675.727 759.443 676.067 C 758.968 676.645 758.494 677.222 758.005 677.817 C 755.299 681.714 755.043 685.364 755.443 690.067 C 756.818 691.946 756.818 691.946 758.443 693.067 C 755.576 692.494 754.581 692.206 752.443 690.067 C 751.721 686.271 751.586 682.539 753.564 679.141 C 754.943 677.505 754.943 677.505 757.443 675.067 Z" fill="#F9ED6A"/>
    <path d="M 1153.44 768.067 C 1154.06 768.26 1154.68 768.454 1155.31 768.653 C 1160.99 770.397 1166.63 771.849 1172.44 773.067 C 1172.44 773.397 1172.44 773.727 1172.44 774.067 C 1165.47 774.46 1159.93 773.698 1153.44 771.067 C 1153.44 770.077 1153.44 769.087 1153.44 768.067 Z" fill="#3D2B0E"/>
    <path d="M 687.443 834.067 C 694.252 835.076 699.481 838.866 704.005 843.942 C 704.48 844.643 704.954 845.345 705.443 846.067 C 704.453 846.562 704.453 846.562 703.443 847.067 C 702.762 846.345 702.081 845.623 701.38 844.88 C 697.343 840.843 692.686 837.374 687.443 835.067 C 687.443 834.737 687.443 834.407 687.443 834.067 Z" fill="#3A290F"/>
    <path d="M 1028.44 672.067 C 1034.45 674.516 1038.59 680.032 1042.44 685.067 C 1043.26 687.442 1043.26 687.442 1043.44 689.067 C 1040.91 686.627 1038.52 684.082 1036.19 681.442 C 1035.67 680.852 1035.15 680.261 1034.62 679.653 C 1033.44 678.067 1033.44 678.067 1033.44 676.067 C 1032.8 675.778 1032.16 675.49 1031.51 675.192 C 1029.44 674.067 1029.44 674.067 1028.44 672.067 Z" fill="#30210B"/>
    <path d="M 857.443 667.067 C 858.103 667.397 858.763 667.727 859.443 668.067 C 853.493 673.167 853.493 673.167 849.443 674.067 C 846.049 673.628 842.759 672.904 839.443 672.067 C 839.443 671.737 839.443 671.407 839.443 671.067 C 840.323 670.946 841.204 670.825 842.111 670.7 C 843.272 670.532 844.434 670.365 845.63 670.192 C 846.779 670.03 847.927 669.867 849.111 669.7 C 852.413 669.185 852.413 669.185 855.244 667.934 C 855.969 667.648 856.695 667.362 857.443 667.067 Z" fill="#FAC423"/>
    <path d="M 625.443 858.067 C 625.773 858.067 626.103 858.067 626.443 858.067 C 626.54 864.219 626.54 864.219 626.443 866.067 C 624.632 867.878 621.83 867.449 619.38 867.63 C 617.723 867.755 617.723 867.755 616.033 867.883 C 615.178 867.944 614.323 868.005 613.443 868.067 C 613.773 867.407 614.103 866.747 614.443 866.067 C 616.439 865.645 616.439 865.645 618.88 865.317 C 621.316 864.914 621.316 864.914 623.443 864.067 C 625.134 861.084 625.134 861.084 625.443 858.067 Z" fill="#3E2B0F"/>
    <path d="M 1058.44 775.067 C 1059.99 776.212 1059.99 776.212 1061.57 777.38 C 1063.97 779.115 1066.12 780.392 1068.82 781.692 C 1071.44 783.067 1071.44 783.067 1072.44 786.067 C 1068.04 785.559 1065.87 784.098 1062.63 781.13 C 1061.84 780.419 1061.05 779.709 1060.24 778.977 C 1058.44 777.067 1058.44 777.067 1058.44 775.067 Z" fill="#3C2B0F"/>
    <path d="M 986.005 703.88 C 987.183 703.858 987.183 703.858 988.384 703.837 C 990.443 704.067 990.443 704.067 992.443 706.067 C 988.813 706.067 985.183 706.067 981.443 706.067 C 981.443 706.727 981.443 707.387 981.443 708.067 C 979.463 708.067 977.483 708.067 975.443 708.067 C 978.635 704.571 981.355 703.918 986.005 703.88 Z" fill="#38250C"/>
    <path d="M 1405.44 951.067 C 1406.19 952.692 1406.19 952.692 1406.44 955.067 C 1403.76 960.437 1400.68 962.547 1395.44 965.067 C 1394.78 965.067 1394.12 965.067 1393.44 965.067 C 1393.44 964.407 1393.44 963.747 1393.44 963.067 C 1399.19 960.067 1399.19 960.067 1401.44 960.067 C 1401.73 959.325 1402.02 958.582 1402.32 957.817 C 1403.27 955.5 1404.29 953.288 1405.44 951.067 Z" fill="#3A290E"/>
    <path d="M 780.443 639.067 C 780.773 639.067 781.103 639.067 781.443 639.067 C 781.773 642.367 782.103 645.667 782.443 649.067 C 778.813 649.397 775.183 649.727 771.443 650.067 C 774.36 648.122 776.068 647.614 779.443 647.067 C 779.773 644.427 780.103 641.787 780.443 639.067 Z" fill="#30220B"/>
    <path d="M 1068.44 838.067 C 1061.51 841.532 1061.51 841.532 1054.44 845.067 C 1055.65 841.451 1056.52 841.12 1059.76 839.317 C 1060.54 838.868 1061.32 838.42 1062.12 837.958 C 1064.44 837.067 1064.44 837.067 1068.44 838.067 Z" fill="#39280D"/>
    <path d="M 863.63 631.942 C 865.517 632.004 865.517 632.004 867.443 632.067 C 867.443 632.397 867.443 632.727 867.443 633.067 C 866.805 633.188 866.167 633.309 865.509 633.434 C 864.27 633.686 864.27 633.686 863.005 633.942 C 862.182 634.104 861.358 634.267 860.509 634.434 C 859.827 634.643 859.145 634.852 858.443 635.067 C 858.113 635.727 857.783 636.387 857.443 637.067 C 859.423 637.067 861.403 637.067 863.443 637.067 C 863.443 637.397 863.443 637.727 863.443 638.067 C 860.803 638.397 858.163 638.727 855.443 639.067 C 855.755 636.692 855.755 636.692 856.443 634.067 C 859.532 632.008 860.152 631.828 863.63 631.942 Z" fill="#FAC112"/>
    <path d="M 904.443 877.067 C 904.485 879.4 904.484 881.734 904.443 884.067 C 904.113 884.397 903.783 884.727 903.443 885.067 C 903.075 887.395 902.74 889.729 902.443 892.067 C 902.113 892.067 901.783 892.067 901.443 892.067 C 901.443 887.447 901.443 882.827 901.443 878.067 C 903.443 877.067 903.443 877.067 904.443 877.067 Z" fill="#EFC547"/>
    <path d="M 1040.44 857.067 C 1041.1 857.397 1041.76 857.727 1042.44 858.067 C 1041.8 858.975 1041.16 859.882 1040.51 860.817 C 1038.38 863.779 1038.38 863.779 1037.88 866.38 C 1037.74 866.936 1037.59 867.493 1037.44 868.067 C 1036.45 868.397 1035.46 868.727 1034.44 869.067 C 1034.9 864.04 1037.43 860.918 1040.44 857.067 Z" fill="#3A2A0E"/>
    <path d="M 1309.44 877.067 C 1312.34 879.462 1312.94 881.38 1313.44 885.067 C 1310.8 885.067 1308.16 885.067 1305.44 885.067 C 1305.44 884.407 1305.44 883.747 1305.44 883.067 C 1307.42 883.067 1309.4 883.067 1311.44 883.067 C 1310.78 881.087 1310.12 879.107 1309.44 877.067 Z" fill="#251405"/>
    <path d="M 1377.44 671.067 C 1379.33 671.29 1379.33 671.29 1381.44 672.067 C 1382.53 674.063 1382.53 674.063 1383.26 676.505 C 1383.51 677.308 1383.76 678.111 1384.03 678.938 C 1384.44 681.067 1384.44 681.067 1383.44 683.067 C 1382.78 683.067 1382.12 683.067 1381.44 683.067 C 1381.26 682.019 1381.26 682.019 1381.08 680.95 C 1380.91 680.04 1380.74 679.13 1380.57 678.192 C 1380.4 677.287 1380.24 676.382 1380.08 675.45 C 1379.61 672.902 1379.61 672.902 1377.44 671.067 Z" fill="#2A1807"/>
    <path d="M 1328.44 853.067 C 1331.89 854.493 1333.54 856.165 1335.69 859.192 C 1336.47 860.279 1336.47 860.279 1337.27 861.387 C 1337.85 862.219 1337.85 862.219 1338.44 863.067 C 1338.11 863.727 1337.78 864.387 1337.44 865.067 C 1337.04 864.513 1336.65 863.958 1336.24 863.387 C 1335.71 862.663 1335.18 861.938 1334.63 861.192 C 1334.11 860.473 1333.59 859.753 1333.05 859.012 C 1331.41 856.837 1331.41 856.837 1328.44 855.067 C 1328.44 854.407 1328.44 853.747 1328.44 853.067 Z" fill="#F6E760"/>
    <path d="M 1313.44 661.067 C 1314.43 661.397 1315.42 661.727 1316.44 662.067 C 1310.21 666.1 1310.21 666.1 1306.57 665.942 C 1304.44 665.067 1304.44 665.067 1303.44 663.067 C 1305.08 663.129 1305.08 663.129 1306.76 663.192 C 1310.53 663.388 1310.53 663.388 1313.44 661.067 Z" fill="#37270D"/>
    <path d="M 1245.44 944.067 C 1248.63 946.483 1251.19 948.747 1253.44 952.067 C 1253.11 952.727 1252.78 953.387 1252.44 954.067 C 1251.27 952.972 1250.1 951.866 1248.94 950.755 C 1247.97 949.832 1247.97 949.832 1246.97 948.891 C 1245.44 947.067 1245.44 947.067 1245.44 944.067 Z" fill="#3D2D0E"/>
    <path d="M 1157.44 716.067 C 1158.1 716.397 1158.76 716.727 1159.44 717.067 C 1156 722.852 1156 722.852 1153.19 723.942 C 1152.62 723.983 1152.04 724.025 1151.44 724.067 C 1153.18 721.009 1154.83 718.433 1157.44 716.067 Z" fill="#F8F0AC"/>
    <path d="M 794.443 875.067 C 797.761 876.054 799.208 876.754 801.318 879.567 C 801.689 880.392 802.06 881.217 802.443 882.067 C 802.113 882.727 801.783 883.387 801.443 884.067 C 800.273 882.757 799.107 881.444 797.943 880.13 C 797.293 879.399 796.643 878.668 795.974 877.915 C 794.443 876.067 794.443 876.067 794.443 875.067 Z" fill="#F4E35D"/>
    <path d="M 639.443 854.067 C 640.443 856.067 640.443 856.067 639.63 859.63 C 638.443 863.067 638.443 863.067 636.443 864.067 C 637.193 857.442 637.193 857.442 639.443 854.067 Z" fill="#FCF4AB"/>
    <path d="M 918.443 643.067 C 920.818 643.255 920.818 643.255 923.443 644.067 C 924.755 646.63 924.755 646.63 925.443 649.067 C 922.505 647.755 922.505 647.755 919.443 646.067 C 919.113 645.077 918.783 644.087 918.443 643.067 Z" fill="#F8EFA5"/>
    <path d="M 942.443 960.067 C 946.001 960.677 949.126 961.645 952.443 963.067 C 952.443 963.397 952.443 963.727 952.443 964.067 C 945.92 963.452 945.92 963.452 943.505 961.505 C 943.155 961.03 942.804 960.556 942.443 960.067 Z" fill="#433010"/>
    <path d="M 923.443 650.067 C 924.103 650.727 924.763 651.387 925.443 652.067 C 925.318 654.567 925.318 654.567 924.443 657.067 C 922.38 658.38 922.38 658.38 920.443 659.067 C 920.907 657.953 920.907 657.953 921.38 656.817 C 922.252 654.56 922.919 652.422 923.443 650.067 Z" fill="#F9F0A4"/>
  </g>
</svg>