<?xml version="1.0" encoding="utf-8"?>
<svg version="1.1" id="Layer_1" xmlns="http://www.w3.org/2000/svg" x="0px" y="0px" width="100%" viewBox="0 0 2079 1024" enable-background="new 0 0 2079 1024">
  <path d=" M2080.000000,104.000000 C2080.000000,377.699402 2080.000000,651.398804 2079.623535,925.658752 C2078.834229,926.895752 2078.158203,927.531738 2078.047119,928.254639 C2074.852295,949.023926 2065.721680,967.200867 2052.319580,982.952332 C2036.428467,1001.628845 2016.717529,1015.003662 1992.568848,1021.056824 C1987.062378,1022.437134 1981.523804,1023.688965 1976.000000,1025.000000 C1352.633911,1025.000000 729.267883,1025.000000 105.302437,1024.604980 C102.877556,1024.134033 101.002037,1024.303833 99.234161,1023.944397 C78.538399,1019.735596 59.482590,1011.632751 43.481583,997.777222 C24.540222,981.375549 10.639511,961.472412 4.829329,936.580933 C3.908867,932.637512 2.293879,928.856262 1.000001,925.000000 C1.000000,650.633911 1.000000,376.267883 1.372752,101.330917 C2.163387,99.549377 2.755275,98.369171 2.973194,97.123535 C6.547870,76.690521 15.321524,58.565281 28.711807,42.978722 C44.683273,24.387611 64.324043,10.995673 88.442596,4.934850 C93.943932,3.552403 99.479950,2.307960 105.000000,1.000000 C728.366028,1.000000 1351.732056,1.000000 1975.697510,1.394968 C1987.908447,2.433951 1998.695068,6.212467 2009.233887,10.725628 C2024.585205,17.299593 2037.637573,27.106106 2048.926270,39.387436 C2059.557617,50.953491 2067.919678,63.910023 2072.931396,78.807625 C2075.708984,87.063385 2077.670654,95.593521 2080.000000,104.000000 M23.000000,180.500000 C23.000000,423.664154 22.995129,666.828308 23.013815,909.992493 C23.014788,922.653687 26.324160,934.608826 31.548609,946.025940 C38.793530,961.858337 49.458263,975.029175 63.675381,985.087891 C79.164589,996.046509 96.389580,1002.913513 115.498985,1002.916687 C731.996521,1003.017822 1348.494019,1003.002014 1964.991577,1002.986328 C1977.652466,1002.986023 1989.584717,999.625916 2001.031006,994.463867 C2016.938965,987.289612 2030.043701,976.521667 2040.067383,962.309875 C2050.980469,946.836853 2057.919678,929.645325 2057.927246,910.502014 C2058.034912,645.669739 2058.004395,380.837463 2057.986816,116.005165 C2057.985840,103.342979 2054.673828,91.389534 2049.449707,79.972244 C2042.205200,64.139259 2031.539307,50.969971 2017.322998,40.910618 C2001.834106,29.950853 1984.607910,23.086603 1965.498901,23.083458 C1349.834717,22.982134 734.170471,22.978926 118.506310,23.193510 C108.931015,23.196846 99.056236,25.103529 89.846603,27.870596 C72.454338,33.096165 57.968109,43.173737 46.179630,57.222862 C31.852810,74.297096 23.543512,93.693901 23.092083,116.002113 C22.663931,137.160034 23.000000,158.333420 23.000000,180.500000 z" fill="#F93109"/>
  <path fill="#F93109" opacity="1.000000" stroke="none" d="M 72 493.736 C 147.666 493.103 223.332 493.103 299.445 493.103 C 299.445 520.517 299.445 547.551 299.445 575.288 C 275.511 575.288 251.613 575.288 227.291 575.288 C 227.291 641.954 227.291 707.918 227.291 774.413 C 199.377 774.413 171.896 774.413 143.731 774.413 C 143.731 708.476 143.731 642.352 143.731 575.361 C 119.794 575.361 96.529 575.361 72.63 575.361 C 72 548.364 72 521.364 72 493.736 Z" style="transform-origin: 993.516px 511.868px;"/>
  <path fill="#F93109" opacity="1.000000" stroke="none" d="M 601.957 694.031 C 601.957 721.178 601.957 747.656 601.957 774.539 C 573.988 774.539 546.5 774.539 518.681 774.539 C 518.681 702.93 518.681 631.543 518.681 559.67 C 546.143 559.67 573.635 559.67 601.865 559.67 C 601.865 564.575 601.865 569.57 601.865 575.193 C 636.54 543.046 699.068 549.411 720.307 580.932 C 725.506 576.452 730.598 571.91 735.853 567.571 C 746.163 559.06 758.511 555.906 771.428 555.24 C 787.43 554.417 803.338 554.846 818.413 561.693 C 842.334 572.555 855.134 591.961 860.719 616.69 C 862.511 624.613 863.396 632.901 863.453 641.031 C 863.708 685.3 863.571 729.566 863.571 774.388 C 834.996 774.388 806.599 774.388 777.265 774.388 C 777.265 772.241 777.265 769.872 777.265 767.509 C 777.265 731.318 777.342 695.136 777.165 658.954 C 777.149 654.403 776.449 649.633 774.957 645.352 C 771.547 635.576 762.031 629.518 753.195 630.72 C 741.868 632.258 736.235 637.79 734.229 650.127 C 733.315 655.8 732.848 661.604 732.823 667.352 C 732.705 702.858 732.762 738.359 732.762 774.404 C 704.172 774.404 675.782 774.404 646.458 774.404 C 646.458 772.215 646.458 769.846 646.458 767.474 C 646.458 729.948 646.332 692.411 646.526 654.882 C 646.602 639.64 635.055 627.462 617.54 632.035 C 609.69 634.085 604.316 641.547 603.44 653.184 C 602.436 666.539 602.412 679.964 601.957 694.031 Z" style="transform-origin: 993.516px 511.868px;"/>
  <path fill="#F93109" opacity="1.000000" stroke="none" d="M 332.259 244.472 C 379.042 243.79 425.824 243.723 473.231 243.757 C 483.404 246.014 493.14 247.559 502.463 250.444 C 538.694 261.653 560.716 286.091 566.638 323.559 C 570.807 349.968 567.487 375.544 552.133 398.526 C 544.583 409.825 534.713 418.44 522.946 424.888 C 542.452 457.651 561.98 490.46 582.013 524.117 C 553.073 524.117 525.296 524.117 497.521 524.117 C 496.399 524.117 495.265 524.023 494.154 524.13 C 487.632 524.763 483.547 523.424 479.74 516.457 C 465.935 491.188 450.341 466.901 436.344 441.734 C 431.973 433.882 426.83 432.544 418.606 434.438 C 418.606 464.01 418.606 493.758 418.606 523.806 C 389.682 523.806 361.456 523.806 332.259 523.806 C 332.259 430.898 332.259 337.993 332.259 244.472 M 451.73 310.896 C 440.897 310.327 430.064 309.761 418.963 309.184 C 418.963 329.308 418.963 348.255 418.963 367.517 C 433.97 367.727 448.608 368.86 462.776 363.637 C 473.082 359.846 482.367 345.23 480.513 335.319 C 477.957 321.65 467.533 312.478 451.73 310.896 Z" style="transform-origin: 993.516px 511.868px;"/>
  <path fill="#F93109" opacity="1.000000" stroke="none" d="M 1304.86 620.213 C 1309.44 614.239 1313.34 608.255 1318.15 603.122 C 1322.74 598.184 1328.29 594.127 1333.28 588.251 C 1323.38 589.255 1313.48 590.259 1303.52 591.268 C 1308.46 575.106 1324.78 565.325 1349.59 564.33 C 1343.84 559.153 1338.89 554.693 1333.3 549.644 C 1338.72 544.872 1343.68 540.53 1349.36 535.551 C 1352.37 539.659 1355.21 543.466 1357.96 547.33 C 1360.75 551.225 1363.45 555.175 1366.6 559.661 C 1374.17 545.958 1385.21 538.566 1400.76 540.525 C 1405.36 541.1 1411.08 541.995 1412.65 548.832 C 1405.81 550.948 1400.34 554.165 1401.77 561.876 C 1413.25 561.876 1424.36 561.355 1435.38 561.984 C 1458.93 563.328 1479.8 571.399 1497.86 587.122 C 1518.38 605.035 1528.93 628.243 1532.05 654.309 C 1535.52 683.347 1527.48 709.704 1508.2 732.607 C 1486.84 758.058 1459.07 772.122 1427.22 777.234 C 1391.49 782.962 1357.66 776.711 1328.36 753.592 C 1307.56 737.196 1296.19 715.602 1292.31 689.597 C 1288.67 665.152 1291.48 642.009 1304.86 620.213 Z" style="transform-origin: 993.516px 511.868px;"/>
  <path fill="#F93109" opacity="1.000000" stroke="none" d="M 979.85 779.666 C 975.447 780.174 971.363 780.24 966.664 780.206 C 954.081 776.173 941.677 773.226 930.273 768.062 C 914.525 760.947 903.136 748.372 894.335 733.653 C 879.96 709.632 875.387 683.209 877.216 655.767 C 878.806 632.129 885.486 609.624 900.467 590.883 C 916.039 571.395 936.026 558.724 961.501 554.925 C 981.798 551.902 999.5 556.791 1015.61 568.632 C 1020.56 572.255 1024.86 576.736 1030.42 581.695 C 1030.42 574.166 1030.42 567.826 1030.42 561.007 C 1058.58 561.007 1086.08 561.007 1113.97 561.007 C 1113.97 631.625 1113.97 702.256 1113.97 773.243 C 1086.49 773.243 1059.15 773.243 1030.95 773.243 C 1030.95 766.844 1030.95 760.295 1030.95 753.763 C 1030.46 753.433 1030 753.096 1029.53 752.76 C 1016.09 767.509 1000.55 778.086 979.85 779.666 M 1010.85 636.103 C 987.895 625.455 965.51 638.266 961.247 659.008 C 956.202 683.493 974.69 704.333 1000.14 700.984 C 1016.09 698.888 1026.72 687.352 1029.15 672.136 C 1031.3 658.79 1026.91 645.099 1010.85 636.103 Z" style="transform-origin: 993.516px 511.868px;"/>
  <path fill="#F93109" opacity="1.000000" stroke="none" d="M 1571.61 362.159 C 1572.97 369.174 1575.29 375.604 1575.43 382.073 C 1576.18 427.361 1576.48 472.658 1576.91 517.95 C 1576.93 519.72 1576.91 521.489 1576.91 523.683 C 1547.69 523.683 1518.83 523.683 1489.29 523.683 C 1489.29 521.192 1489.29 518.795 1489.29 516.398 C 1489.29 479.103 1489.07 441.809 1489.41 404.513 C 1489.5 392.725 1482.29 381.855 1468.98 381.405 C 1457.09 381.004 1448.25 384.755 1444.96 399.323 C 1443.17 407.245 1442.28 415.52 1442.21 423.646 C 1441.91 454.422 1442.1 485.203 1442.1 515.981 C 1442.1 518.419 1442.1 520.858 1442.1 523.701 C 1413.25 523.701 1384.85 523.701 1356.16 523.701 C 1356.16 452.62 1356.16 381.703 1356.16 310.244 C 1384.34 310.244 1412.73 310.244 1442.04 310.244 C 1442.04 316.082 1442.04 322.17 1442.04 330.296 C 1469.41 302.064 1500.41 297.104 1533.5 311.996 C 1554.2 321.282 1566.18 339.444 1571.61 362.159 Z" style="transform-origin: 993.516px 511.868px;"/>
  <path fill="#F93109" opacity="1.000000" stroke="none" d="M 398.673 779.651 C 392.907 780.174 387.472 780.24 381.421 780.206 C 372.84 778.832 364.767 778.033 356.938 776.208 C 316.701 766.793 282.818 738.394 274.335 696.163 C 272.432 686.673 270.165 676.923 270.523 667.386 C 271.504 641.073 276.619 615.864 294.48 594.827 C 313.717 572.166 338.289 560.659 367.367 556.162 C 401.062 550.946 432.607 555.402 461.247 574.076 C 484.996 589.558 498.553 612.097 503.633 640.092 C 508.586 667.376 507.034 693.948 495.386 719.202 C 480.99 750.401 455.391 768.171 422.647 776.156 C 414.977 778.024 406.897 778.228 398.673 779.651 M 404.316 696.909 C 407.006 695.439 409.978 694.328 412.335 692.443 C 429.664 678.611 432.436 654.683 415.312 638.034 C 403.187 626.242 387.654 624.518 372.187 631.05 C 353.009 639.143 344.09 664.023 355.591 681.783 C 364.16 695.011 381.433 705.245 404.316 696.909 Z" style="transform-origin: 993.516px 511.868px;"/>
  <path fill="#F93109" opacity="1.000000" stroke="none" d="M 1670.32 779.651 C 1663.64 780.174 1657.32 780.24 1650.38 780.206 C 1640.09 778.396 1630.3 777.169 1620.8 774.858 C 1604.94 771.009 1591.17 763.119 1578.32 752.955 C 1558.14 736.969 1547.3 715.696 1543.55 691.123 C 1538.82 660.02 1541.95 629.524 1559.55 602.384 C 1575.61 577.573 1598.43 561.99 1627.85 556.439 C 1652.98 551.689 1677.48 553.139 1701.24 563.188 C 1718.31 570.406 1731.43 582.427 1741.24 597.852 C 1752.5 615.653 1759.24 635.047 1759 656.482 C 1758.89 665.951 1758.99 675.421 1758.99 685.754 C 1712.24 685.754 1665.72 685.754 1619.02 685.754 C 1623.8 713.421 1684.03 720.842 1703.98 693.157 C 1721.42 709.514 1738.73 725.775 1756.44 742.393 C 1746.81 754.934 1734.04 763.362 1719.66 769.454 C 1704.03 776.054 1687.68 779.321 1670.32 779.651 M 1625.15 642.787 C 1644.48 642.787 1663.82 642.787 1683.35 642.787 C 1679.08 620.538 1661.47 615.299 1645.36 617.432 C 1633.17 619.058 1620.51 628.667 1619.23 642.553 C 1620.8 642.632 1622.36 642.709 1625.15 642.787 Z" style="transform-origin: 993.516px 511.868px;"/>
  <path fill="#F93109" opacity="1.000000" stroke="none" d="M 1147.76 440.859 C 1137.01 428.316 1131.03 414.01 1127.94 398.504 C 1123.49 376.006 1123.91 353.52 1130.63 331.505 C 1136.63 311.997 1147.09 295.453 1162.81 281.815 C 1177.85 268.762 1194.91 260.977 1214.13 257.896 C 1247.73 252.52 1279.8 256.484 1306.64 279.158 C 1323.73 293.571 1334.25 312.845 1339.56 334.684 C 1343.74 352.053 1343.19 369.655 1341.93 387.898 C 1295.27 387.898 1248.9 387.898 1201.85 387.898 C 1207.15 402.786 1218.76 408.951 1231.91 411.95 C 1252.73 416.695 1276.57 409.316 1286.72 395.627 C 1288.73 397.017 1291.04 398.201 1292.84 399.919 C 1305.8 412.284 1318.7 424.734 1331.53 437.208 C 1340.01 445.421 1339.96 445.442 1331.13 453.694 C 1317.22 466.732 1300.45 474.588 1282.03 477.983 C 1267.5 480.661 1252.5 482.359 1237.77 482.029 C 1205.4 481.298 1176.36 470.989 1153.05 447.429 C 1151.19 445.557 1149.75 443.29 1147.76 440.859 M 1213.64 325.792 C 1208.05 330.844 1203.23 336.344 1202.15 344.762 C 1222.83 344.762 1243.06 344.767 1263.23 344.748 C 1264.3 344.747 1265.37 344.537 1266.67 344.394 C 1264.33 335.045 1260.77 327.374 1251.53 322.978 C 1238.55 316.772 1226.41 318.318 1213.64 325.792 Z" style="transform-origin: 993.516px 511.868px;"/>
  <path fill="#F93109" opacity="1.000000" stroke="none" d="M 798.862 369.099 C 808.174 393.889 808.968 418.682 804.543 444.076 C 800.734 465.949 791.253 484.656 775.185 499.737 C 760.085 513.908 742.02 523.397 721.607 526.526 C 706.287 528.873 690.418 530.457 675.068 529.155 C 635.18 525.753 601.714 509.757 581.626 473.121 C 574.225 459.624 570.612 444.74 569.274 429.015 C 567.605 409.427 569.747 390.677 576.434 372.478 C 584.333 350.978 598.554 334.517 618.11 322.48 C 644.108 306.471 672.834 302.852 702.372 304.522 C 723.441 305.713 743.653 311.419 761.558 323.13 C 778.656 334.305 791.128 349.525 798.862 369.099 M 624.342 411.048 C 632.436 413.638 640.768 415.691 648.473 419.141 C 650.889 420.222 652.44 425.003 652.697 428.227 C 652.798 429.419 648.161 431.954 645.514 432.224 C 639.509 432.835 633.403 432.312 627.341 432.454 C 622.076 432.574 614.04 439.432 612.837 444.59 C 611.078 452.098 614.571 459.988 620.189 463.745 C 630.795 470.833 640.253 465.321 646.561 457.776 C 649.428 454.352 652.21 450.27 655.976 448.358 C 659.444 446.596 664.7 446.013 668.228 447.358 C 671.736 448.695 673.333 453.059 671.014 457.639 C 669.559 460.523 669.077 463.904 668.211 467.076 C 665.29 477.766 667.446 484.37 675.7 489.21 C 682.108 492.962 689.014 493.151 695.143 489.276 C 700.822 485.693 704.829 480.15 702.953 472.891 C 701.747 468.276 698.992 464.086 697.267 459.585 C 695.398 454.721 695.193 449.363 699.868 446.371 C 704.309 443.531 709.141 445.087 712.578 449.34 C 714.928 452.249 717.066 455.328 719.34 458.3 C 727.477 468.962 736.513 477.72 751.518 477.049 C 761.155 476.615 769.07 465.792 766.796 456.012 C 763.797 443.093 753.819 438.424 742.744 435.218 C 734.981 432.976 726.928 431.754 719.138 429.61 C 712.612 427.816 711.153 422.055 712.879 416.848 C 714.037 413.392 718.011 409.989 721.547 408.446 C 725.396 406.761 730.189 406.966 734.584 406.856 C 743.888 406.626 750.172 402.294 753.012 393.698 C 755.882 385.009 752.92 373.807 746.501 369.093 C 735.478 360.995 720.049 366.486 715.264 380.214 C 713.9 384.125 712.913 388.224 711.096 391.911 C 708.3 397.578 703.153 399.796 697.14 398.563 C 692.136 397.534 687.708 394.784 688.204 388.755 C 688.779 381.708 689.587 374.611 691.146 367.731 C 695.185 349.943 685.268 338.911 667.656 342.085 C 660.447 343.382 653.354 350.497 651.969 358.291 C 650.627 365.853 653.54 371.36 659.892 375.935 C 665.822 380.206 672.337 384.384 674.36 392.342 C 675.892 398.396 672.415 403.432 666.3 404.122 C 658.643 404.986 653.956 401.289 649.954 395.117 C 646.912 390.439 643.14 385.836 638.699 382.561 C 632.908 378.291 625.951 379.515 620.14 382.999 C 615.004 386.079 610.614 391.292 613.066 397.449 C 615.064 402.471 619.812 406.395 624.342 411.048 Z" style="transform-origin: 993.516px 511.868px;"/>
  <path fill="#F93109" opacity="1.000000" stroke="none" d="M 1880.66 779.666 C 1865.49 780.174 1850.63 780.24 1835.13 780.206 C 1822.25 777.049 1809.86 774.413 1797.77 770.807 C 1785.46 767.133 1774.44 760.72 1763.71 752.407 C 1775.23 733.329 1786.59 714.569 1797.55 696.426 C 1810.54 702.229 1822.84 708.359 1835.61 713.229 C 1846.2 717.27 1857.51 718.744 1868.78 715.478 C 1871.38 714.719 1874.32 713.118 1875.83 711.001 C 1877.34 708.874 1878.48 705.099 1877.57 702.992 C 1876.64 700.772 1873.16 698.533 1870.61 698.299 C 1863.74 697.659 1856.63 698.691 1849.8 697.967 C 1821.92 695.05 1796.43 686.524 1779.57 662.428 C 1766.95 644.386 1766.82 624.422 1775.01 604.398 C 1784.87 580.236 1804.99 567.64 1828.18 559.375 C 1845.7 553.107 1864.02 552.813 1882.59 554.953 C 1906.23 557.682 1927.59 566.128 1948.01 577.729 C 1948.37 577.935 1948.59 578.412 1949.45 579.489 C 1941.95 591.951 1934.25 604.704 1926.56 617.444 C 1926.31 617.824 1925.85 618.06 1925.62 618.433 C 1923.11 622.468 1920.98 629.501 1917.99 629.891 C 1912.9 630.556 1907.29 627.065 1901.91 625.241 C 1887.71 620.419 1873.59 614.886 1858.27 615.996 C 1854.42 616.275 1850.03 617.967 1847.08 620.436 C 1842.44 624.325 1844.04 630.074 1850.01 631.869 C 1853.73 632.992 1857.85 633.416 1861.77 633.261 C 1883.19 632.422 1903.77 635.81 1922.77 645.825 C 1939.24 654.496 1952.12 667.069 1955.17 686.198 C 1958.99 709.701 1955.42 731.662 1938.33 750.149 C 1922.71 767.05 1903.77 776.77 1880.66 779.666 Z" style="transform-origin: 993.516px 511.868px;"/>
  <path fill="#F93109" opacity="1.000000" stroke="none" d="M 1150.8 537.598 C 1150.8 525.286 1150.8 513.644 1150.8 501.596 C 1179.67 501.596 1208.05 501.596 1236.91 501.596 C 1236.91 520.589 1236.91 539.382 1236.91 558.887 C 1248.22 558.887 1259.1 558.887 1270.4 558.887 C 1270.4 584.392 1270.4 609.182 1270.4 634.452 C 1259.58 634.452 1248.84 634.452 1237.11 634.452 C 1237.11 637.499 1237.11 640.077 1237.11 642.657 C 1237.11 657.489 1237.08 672.315 1237.12 687.143 C 1237.15 697.391 1240.55 700.761 1250.63 700.772 C 1259.8 700.78 1268.97 700.773 1278.51 700.773 C 1278.51 726.072 1278.51 750.858 1278.51 776.443 C 1253.41 775.11 1228.2 779.802 1203.91 772.062 C 1176.65 763.389 1157.98 745.718 1153.72 716.481 C 1151.4 700.474 1151.47 684.101 1150.87 667.878 C 1150.48 657.133 1150.8 646.363 1150.8 634.894 C 1143.64 634.894 1136.77 634.894 1129.63 634.894 C 1129.63 609.384 1129.63 584.595 1129.63 559.325 C 1136.5 559.325 1143.2 559.325 1150.8 559.325 C 1150.8 552.008 1150.8 545.139 1150.8 537.598 Z" style="transform-origin: 993.516px 511.868px;"/>
  <path fill="#F93109" opacity="1.000000" stroke="none" d="M 1041.88 521.383 C 1028.51 516.574 1017.28 509.34 1008.75 498.599 C 999.63 487.152 993.645 473.942 993.217 459.323 C 992.502 434.97 993.031 410.576 993.031 385.483 C 984.576 385.483 977.754 385.483 970.512 385.483 C 970.512 359.98 970.512 335.192 970.512 309.925 C 977.332 309.925 983.997 309.925 991.373 309.925 C 991.373 290.512 991.373 271.553 991.373 252.163 C 1020.45 252.163 1048.86 252.163 1077.71 252.163 C 1077.71 271.025 1077.71 289.82 1077.71 309.324 C 1089.02 309.324 1099.88 309.324 1111.22 309.324 C 1111.22 334.824 1111.22 359.613 1111.22 385.12 C 1100.38 385.12 1089.5 385.12 1078 385.12 C 1078 404.182 1077.77 422.541 1078.11 440.889 C 1078.25 447.008 1083.74 451.19 1090.44 451.271 C 1099.83 451.382 1109.3 451.299 1119.27 451.299 C 1119.27 475.833 1119.27 500.178 1119.27 525.529 C 1093.57 527.429 1067.81 529.031 1041.88 521.383 Z" style="transform-origin: 993.516px 511.868px;"/>
  <path fill="#F93109" opacity="1.000000" stroke="none" d="M 837.448 463.729 C 836.199 437.095 835.293 410.952 834.358 384.074 C 828.082 384.074 821.252 384.074 814.062 384.074 C 814.062 359.177 814.062 334.989 814.062 310.08 C 820.655 310.08 827.494 310.08 835.03 310.08 C 835.03 290.422 835.03 271.46 835.03 252.113 C 864.126 252.113 892.524 252.113 921.393 252.113 C 921.393 271.149 921.393 289.944 921.393 309.453 C 932.705 309.453 943.596 309.453 954.865 309.453 C 954.865 334.517 954.865 358.859 954.865 383.685 C 943.959 383.685 933.254 383.685 921.556 383.685 C 921.556 388.079 921.556 392.021 921.556 395.959 C 921.556 409.443 921.504 422.929 921.573 436.409 C 921.615 446.915 926.105 451.291 936.639 451.298 C 945.33 451.305 954.031 451.299 963.044 451.299 C 963.044 476.131 963.044 500.313 963.044 525.084 C 945.153 526.95 927.34 527.459 909.287 525.787 C 894.183 524.394 880.055 520.432 867.606 512.311 C 850.46 501.124 840.893 484.49 837.448 463.729 Z" style="transform-origin: 993.516px 511.868px;"/>
  <path fill="#F93109" opacity="1.000000" stroke="none" d="M 2006.46 550.899 C 2006.96 558.765 2007.02 566.437 2006.99 574.74 C 2003.78 578.314 2000.89 581.632 1997.47 584.154 C 1988.88 590.485 1978.84 591.033 1969.79 586.787 C 1960.04 582.195 1955.52 573.534 1955.57 561.907 C 1955.62 551.974 1962.38 540.971 1971.88 537.663 C 1982.2 534.071 1995 537.062 2001.64 544.97 C 2003.2 546.819 2004.59 548.796 2006.46 550.899 M 1994.51 574.754 C 1995.99 570.545 1998.53 566.409 1998.81 562.122 C 1999.46 552.884 1991.47 544.88 1982.3 544.35 C 1974.29 543.889 1964.83 551.533 1963.95 559.191 C 1962.74 569.836 1968.94 579.21 1978.18 580.724 C 1985.16 581.872 1991.58 579.069 1993.65 574.013 C 1993.65 574.013 1993.58 574.074 1994.51 574.754 Z" style="transform-origin: 993.516px 511.868px;"/>
  <path fill="#F93109" opacity="1.000000" stroke="none" d="M 1993.67 573.985 C 1989.02 572.825 1984.35 571.698 1979.03 570.399 C 1979.07 570.302 1978.7 571.874 1978.29 573.699 C 1975.98 573.699 1973.64 573.699 1970.98 573.699 C 1970.98 565.857 1970.98 558.318 1970.98 549.787 C 1977.97 550.695 1985.87 546.627 1991.52 552.931 C 1995.38 557.231 1994.16 562.871 1989.4 566.902 C 1990.94 569.173 1992.27 571.137 1993.61 573.584 C 1993.58 574.074 1993.65 574.013 1993.67 573.985 Z" style="transform-origin: 993.516px 511.868px;"/>
</svg>