<?xml version="1.0" encoding="utf-8"?>
<svg version="1.1" id="Layer_1" xmlns="http://www.w3.org/2000/svg" x="0px" y="0px" width="100%" viewBox="0 0 2079 1024" enable-background="new 0 0 2079 1024">
  <defs>
    <linearGradient id="linear-gradient" y1="40.76" x2="190.24" y2="40.76" gradientUnits="userSpaceOnUse" gradientTransform="matrix(7.819596, 0, 0, 7.819596, 297.668335, 198.081848)">
      <stop offset="0" stop-color="#90cea1"/>
      <stop offset="0.56" stop-color="#3cbec9"/>
      <stop offset="1" stop-color="#00b3e5"/>
    </linearGradient>
  </defs>
  <path d=" M2080.000000,104.000000 C2080.000000,377.699402 2080.000000,651.398804 2079.623535,925.658752 C2078.834229,926.895752 2078.158203,927.531738 2078.047119,928.254639 C2074.852295,949.023926 2065.721680,967.200867 2052.319580,982.952332 C2036.428467,1001.628845 2016.717529,1015.003662 1992.568848,1021.056824 C1987.062378,1022.437134 1981.523804,1023.688965 1976.000000,1025.000000 C1352.633911,1025.000000 729.267883,1025.000000 105.302437,1024.604980 C102.877556,1024.134033 101.002037,1024.303833 99.234161,1023.944397 C78.538399,1019.735596 59.482590,1011.632751 43.481583,997.777222 C24.540222,981.375549 10.639511,961.472412 4.829329,936.580933 C3.908867,932.637512 2.293879,928.856262 1.000001,925.000000 C1.000000,650.633911 1.000000,376.267883 1.372752,101.330917 C2.163387,99.549377 2.755275,98.369171 2.973194,97.123535 C6.547870,76.690521 15.321524,58.565281 28.711807,42.978722 C44.683273,24.387611 64.324043,10.995673 88.442596,4.934850 C93.943932,3.552403 99.479950,2.307960 105.000000,1.000000 C728.366028,1.000000 1351.732056,1.000000 1975.697510,1.394968 C1987.908447,2.433951 1998.695068,6.212467 2009.233887,10.725628 C2024.585205,17.299593 2037.637573,27.106106 2048.926270,39.387436 C2059.557617,50.953491 2067.919678,63.910023 2072.931396,78.807625 C2075.708984,87.063385 2077.670654,95.593521 2080.000000,104.000000 M23.000000,180.500000 C23.000000,423.664154 22.995129,666.828308 23.013815,909.992493 C23.014788,922.653687 26.324160,934.608826 31.548609,946.025940 C38.793530,961.858337 49.458263,975.029175 63.675381,985.087891 C79.164589,996.046509 96.389580,1002.913513 115.498985,1002.916687 C731.996521,1003.017822 1348.494019,1003.002014 1964.991577,1002.986328 C1977.652466,1002.986023 1989.584717,999.625916 2001.031006,994.463867 C2016.938965,987.289612 2030.043701,976.521667 2040.067383,962.309875 C2050.980469,946.836853 2057.919678,929.645325 2057.927246,910.502014 C2058.034912,645.669739 2058.004395,380.837463 2057.986816,116.005165 C2057.985840,103.342979 2054.673828,91.389534 2049.449707,79.972244 C2042.205200,64.139259 2031.539307,50.969971 2017.322998,40.910618 C2001.834106,29.950853 1984.607910,23.086603 1965.498901,23.083458 C1349.834717,22.982134 734.170471,22.978926 118.506310,23.193510 C108.931015,23.196846 99.056236,25.103529 89.846603,27.870596 C72.454338,33.096165 57.968109,43.173737 46.179630,57.222862 C31.852810,74.297096 23.543512,93.693901 23.092083,116.002113 C22.663931,137.160034 23.000000,158.333420 23.000000,180.500000 z" fill="url(#linear-gradient)"/>
  <path class="cls-1" d="M 1123.96 480.056 L 1647.1 480.056 C 1723.38 480.056 1785.22 418.242 1785.27 341.962 C 1785.27 265.652 1723.41 203.79 1647.1 203.79 L 1123.96 203.79 C 1047.65 203.79 985.793 265.652 985.793 341.962 C 985.836 418.242 1047.68 480.056 1123.96 480.056 Z M 435.841 831.938 L 1037.17 831.938 C 1113.45 831.938 1175.3 770.124 1175.34 693.844 C 1175.34 617.534 1113.48 555.672 1037.17 555.672 L 435.841 555.672 C 359.53 555.672 297.668 617.534 297.668 693.844 C 297.712 770.124 359.561 831.938 435.841 831.938 Z M 379.07 475.052 L 440.063 475.052 L 440.063 252.193 L 519.041 252.193 L 519.041 198.082 L 300.092 198.082 L 300.092 252.037 L 379.07 252.037 L 379.07 475.052 Z M 598.801 475.052 L 659.794 475.052 L 659.794 262.594 L 660.576 262.594 L 730.952 474.896 L 777.87 474.896 L 850.592 262.594 L 851.374 262.594 L 851.374 474.896 L 912.367 474.896 L 912.367 198.082 L 819.705 198.082 L 755.584 378.715 L 754.802 378.715 L 691.072 198.082 L 598.801 198.082 L 598.801 475.052 Z M 1489.61 633.399 C 1481.45 616.389 1469.33 601.586 1454.27 590.235 C 1438.63 578.804 1420.87 570.615 1402.03 566.15 C 1381.39 560.994 1360.2 558.368 1338.93 558.331 L 1247.44 558.331 L 1247.44 835.144 L 1347.14 835.144 C 1367.16 835.241 1387.08 832.207 1406.17 826.152 C 1424.2 820.667 1441.04 811.862 1455.83 800.191 C 1470.21 788.514 1481.88 773.836 1490 757.183 C 1498.78 738.679 1503.15 718.388 1502.75 697.91 C 1503.38 675.683 1498.89 653.607 1489.61 633.399 Z M 1431.51 734.506 C 1426.94 744.941 1419.84 754.076 1410.87 761.093 C 1401.54 767.95 1390.89 772.796 1379.59 775.324 C 1366.77 778.278 1353.64 779.721 1340.49 779.625 L 1308.82 779.625 L 1308.82 615.414 L 1344.79 615.414 C 1357.13 615.353 1369.42 617.011 1381.31 620.34 C 1392.24 623.288 1402.53 628.247 1411.65 634.963 C 1420.01 641.541 1426.79 649.903 1431.51 659.438 C 1436.88 670.433 1439.56 682.548 1439.33 694.783 C 1439.67 708.437 1437 722 1431.51 734.506 Z M 1780.5 733.49 C 1777.74 725.929 1773.54 718.973 1768.14 713.002 C 1762.77 707.065 1756.36 702.162 1749.22 698.536 C 1741.43 694.606 1733.06 691.965 1724.43 690.716 L 1724.43 689.934 C 1737.84 686.084 1749.85 678.423 1758.99 667.883 C 1768.01 656.896 1772.68 642.986 1772.13 628.785 C 1772.72 616.05 1769.59 603.418 1763.14 592.424 C 1757.25 583.46 1749.18 576.141 1739.68 571.155 C 1729.46 565.879 1718.4 562.438 1706.99 560.989 C 1695.03 559.28 1682.96 558.418 1670.87 558.409 L 1567.65 558.409 L 1567.65 835.223 L 1681.03 835.223 C 1693.44 835.23 1705.81 833.919 1717.94 831.313 C 1729.75 828.948 1741.07 824.585 1751.41 818.41 C 1761.2 812.571 1769.49 804.541 1775.65 794.952 C 1782.24 783.914 1785.5 771.204 1785.03 758.356 C 1785.05 749.881 1783.59 741.468 1780.73 733.49 L 1780.5 733.49 Z M 1628.64 610.331 L 1670.09 610.331 C 1674.94 610.35 1679.78 610.821 1684.55 611.738 C 1689.18 612.57 1693.65 614.072 1697.85 616.196 C 1701.71 618.303 1704.99 621.34 1707.38 625.032 C 1710.03 629.296 1711.33 634.252 1711.14 639.263 C 1711.25 644.167 1710.09 649.016 1707.78 653.339 C 1705.67 657.135 1702.66 660.357 1699.02 662.722 C 1695.23 665.124 1691.05 666.844 1686.66 667.805 C 1682.13 668.874 1677.48 669.399 1672.82 669.369 L 1628.64 669.369 L 1628.64 610.331 Z M 1720.29 766.723 C 1717.93 770.803 1714.67 774.282 1710.75 776.888 C 1706.77 779.562 1702.31 781.423 1697.61 782.362 C 1692.94 783.414 1688.17 783.939 1683.38 783.926 L 1628.64 783.926 L 1628.64 721.369 L 1674.78 721.369 C 1680.01 721.419 1685.23 721.811 1690.42 722.542 C 1695.92 723.298 1701.31 724.743 1706.45 726.843 C 1711.24 728.851 1715.46 732.022 1718.72 736.07 C 1722.13 740.556 1723.87 746.083 1723.65 751.709 C 1723.9 756.925 1722.74 762.112 1720.29 766.723 Z" style="" fill="url(#linear-gradient)"/>
  <title>Asset 2</title>
</svg>