<svg width="311" height="134" viewBox="0 0 311 134" fill="none" xmlns="http://www.w3.org/2000/svg">
<g clip-path="url(#clip0_1_2)">
<path d="M291 0C302.046 0 311 8.95431 311 20V114C311 125.046 302.046 134 291 134H20C8.954 134 0 125.046 0 114V20C0 8.95431 8.954 0 20 0H291ZM199.853 19.6367C192.792 19.6367 186.503 20.8482 180.988 23.2725C175.473 25.6967 171.155 29.0759 168.034 33.4092C164.913 37.7425 163.367 42.7883 163.397 48.5459C163.367 55.6062 165.671 61.2119 170.307 65.3633C174.943 69.4845 181.292 72.4699 189.353 74.3184L199.079 76.5908C202.473 77.3787 205.262 78.2422 207.443 79.1816C209.655 80.0907 211.292 81.1814 212.353 82.4541C213.413 83.6964 213.958 85.1967 213.988 86.9541C213.958 88.8328 213.367 90.4996 212.216 91.9541C211.064 93.4086 209.413 94.5451 207.262 95.3633C205.141 96.1815 202.564 96.5908 199.534 96.5908C196.231 96.5908 193.322 96.0762 190.807 95.0459C188.322 94.0156 186.368 92.5 184.943 90.5C183.519 88.5 182.716 86 182.534 83H160.988C161.079 90.2727 162.731 96.2883 165.943 101.046C169.155 105.803 173.656 109.348 179.443 111.682C185.231 114.015 192.019 115.182 199.807 115.182C207.564 115.182 214.186 114.061 219.671 111.818C225.186 109.576 229.413 106.349 232.353 102.137C235.292 97.9246 236.776 92.8788 236.807 87C236.776 83.2727 236.14 79.9092 234.897 76.9092C233.655 73.9092 231.822 71.2571 229.397 68.9541C227.004 66.6512 224.034 64.6666 220.488 63C216.973 61.3334 212.913 60 208.307 59L200.307 57.1816C198.186 56.7271 196.276 56.1969 194.579 55.5908C192.882 54.9848 191.428 54.2878 190.216 53.5C189.034 52.6818 188.125 51.7422 187.488 50.6816C186.882 49.6211 186.61 48.3938 186.671 47C186.701 45.303 187.201 43.803 188.171 42.5C189.141 41.1668 190.595 40.1208 192.534 39.3633C194.474 38.6058 196.898 38.2276 199.807 38.2275C204.201 38.2275 207.58 39.1671 209.943 41.0459C212.337 42.8944 213.685 45.4852 213.988 48.8184H235.534C235.474 43.0306 233.973 37.9398 231.034 33.5459C228.095 29.152 223.958 25.7426 218.625 23.3184C213.322 20.8638 207.065 19.6367 199.853 19.6367ZM74 20.9092V39.1816H102.272V114H124.454V39.1816H152.682V20.9092H74Z" fill="white"/>
</g>
<defs>
<clipPath id="clip0_1_2">
<rect width="311" height="134" fill="white"/>
</clipPath>
</defs>
</svg>
